%TF.GenerationSoftware,KiCad,Pcbnew,(6.0.9)*%
%TF.CreationDate,2023-01-04T16:14:09+08:00*%
%TF.ProjectId,CAWController,43415743-6f6e-4747-926f-6c6c65722e6b,rev?*%
%TF.SameCoordinates,Original*%
%TF.FileFunction,Drillmap*%
%TF.FilePolarity,Positive*%
%FSLAX45Y45*%
G04 Gerber Fmt 4.5, Leading zero omitted, Abs format (unit mm)*
G04 Created by KiCad (PCBNEW (6.0.9)) date 2023-01-04 16:14:09*
%MOMM*%
%LPD*%
G01*
G04 APERTURE LIST*
%ADD10C,0.200000*%
%ADD11C,0.100000*%
%ADD12C,0.040000*%
%ADD13C,0.050000*%
%ADD14C,0.055000*%
%ADD15C,0.060000*%
%ADD16C,0.070000*%
%ADD17C,0.430000*%
G04 APERTURE END LIST*
D10*
X16575000Y-13101081D02*
G75*
G03*
X16746000Y-12129000I0J501081D01*
G01*
D11*
X11020000Y-6100000D02*
X13200000Y-6100000D01*
D10*
X10404115Y-12130155D02*
G75*
G03*
X10575000Y-13101081I170885J-470425D01*
G01*
X10575000Y-6100500D02*
G75*
G03*
X10404000Y-7070581I0J-500112D01*
G01*
X13775000Y-6100000D02*
X16575000Y-6100500D01*
X11025000Y-5650000D02*
X13325000Y-5650000D01*
X13775000Y-6100000D02*
X13325000Y-5650000D01*
D11*
X13200000Y-6300000D02*
X11020000Y-6300000D01*
D10*
X10575000Y-13101081D02*
X16575000Y-13101081D01*
X11025000Y-5650000D02*
X10575000Y-6100500D01*
X10404115Y-12130157D02*
X10404000Y-7070581D01*
X16745779Y-7069398D02*
G75*
G03*
X16575000Y-6100500I-170779J469398D01*
G01*
D11*
X11020000Y-6300000D02*
X11020000Y-6100000D01*
D10*
X16745779Y-7069398D02*
X16746000Y-12129000D01*
D11*
X13200000Y-6100000D02*
X13200000Y-6300000D01*
D10*
D12*
X10605000Y-7130000D02*
X10645000Y-7170000D01*
X10645000Y-7130000D02*
X10605000Y-7170000D01*
X10605000Y-7205000D02*
X10645000Y-7245000D01*
X10645000Y-7205000D02*
X10605000Y-7245000D01*
X10605000Y-7355000D02*
X10645000Y-7395000D01*
X10645000Y-7355000D02*
X10605000Y-7395000D01*
X10605000Y-7430000D02*
X10645000Y-7470000D01*
X10645000Y-7430000D02*
X10605000Y-7470000D01*
X10680000Y-7130000D02*
X10720000Y-7170000D01*
X10720000Y-7130000D02*
X10680000Y-7170000D01*
X10680000Y-7205000D02*
X10720000Y-7245000D01*
X10720000Y-7205000D02*
X10680000Y-7245000D01*
X10680000Y-7355000D02*
X10720000Y-7395000D01*
X10720000Y-7355000D02*
X10680000Y-7395000D01*
X10680000Y-7430000D02*
X10720000Y-7470000D01*
X10720000Y-7430000D02*
X10680000Y-7470000D01*
X11530000Y-7130000D02*
X11570000Y-7170000D01*
X11570000Y-7130000D02*
X11530000Y-7170000D01*
X11530000Y-7205000D02*
X11570000Y-7245000D01*
X11570000Y-7205000D02*
X11530000Y-7245000D01*
X11530000Y-7355000D02*
X11570000Y-7395000D01*
X11570000Y-7355000D02*
X11530000Y-7395000D01*
X11530000Y-7430000D02*
X11570000Y-7470000D01*
X11570000Y-7430000D02*
X11530000Y-7470000D01*
X11605000Y-7130000D02*
X11645000Y-7170000D01*
X11645000Y-7130000D02*
X11605000Y-7170000D01*
X11605000Y-7205000D02*
X11645000Y-7245000D01*
X11645000Y-7205000D02*
X11605000Y-7245000D01*
X11605000Y-7355000D02*
X11645000Y-7395000D01*
X11645000Y-7355000D02*
X11605000Y-7395000D01*
X11605000Y-7430000D02*
X11645000Y-7470000D01*
X11645000Y-7430000D02*
X11605000Y-7470000D01*
X11660550Y-7793500D02*
X11700550Y-7833500D01*
X11700550Y-7793500D02*
X11660550Y-7833500D01*
X11660550Y-7983500D02*
X11700550Y-8023500D01*
X11700550Y-7983500D02*
X11660550Y-8023500D01*
X11700429Y-7548253D02*
X11740429Y-7588253D01*
X11740429Y-7548253D02*
X11700429Y-7588253D01*
X11785450Y-7784500D02*
X11825450Y-7824500D01*
X11825450Y-7784500D02*
X11785450Y-7824500D01*
X11785450Y-7955500D02*
X11825450Y-7995500D01*
X11825450Y-7955500D02*
X11785450Y-7995500D01*
X11785450Y-8107091D02*
X11825450Y-8147091D01*
X11825450Y-8107091D02*
X11785450Y-8147091D01*
X11801000Y-7628000D02*
X11841000Y-7668000D01*
X11841000Y-7628000D02*
X11801000Y-7668000D01*
X11816000Y-7521000D02*
X11856000Y-7561000D01*
X11856000Y-7521000D02*
X11816000Y-7561000D01*
X11950000Y-7206000D02*
X11990000Y-7246000D01*
X11990000Y-7206000D02*
X11950000Y-7246000D01*
X12055000Y-8805000D02*
X12095000Y-8845000D01*
X12095000Y-8805000D02*
X12055000Y-8845000D01*
X12167000Y-7208000D02*
X12207000Y-7248000D01*
X12207000Y-7208000D02*
X12167000Y-7248000D01*
X12306000Y-7522000D02*
X12346000Y-7562000D01*
X12346000Y-7522000D02*
X12306000Y-7562000D01*
X12340000Y-8469000D02*
X12380000Y-8509000D01*
X12380000Y-8469000D02*
X12340000Y-8509000D01*
X12351000Y-9304000D02*
X12391000Y-9344000D01*
X12391000Y-9304000D02*
X12351000Y-9344000D01*
X12480000Y-6580000D02*
X12520000Y-6620000D01*
X12520000Y-6580000D02*
X12480000Y-6620000D01*
X12480000Y-6655000D02*
X12520000Y-6695000D01*
X12520000Y-6655000D02*
X12480000Y-6695000D01*
X12480000Y-6730000D02*
X12520000Y-6770000D01*
X12520000Y-6730000D02*
X12480000Y-6770000D01*
X12508000Y-7987000D02*
X12548000Y-8027000D01*
X12548000Y-7987000D02*
X12508000Y-8027000D01*
X12537000Y-7138000D02*
X12577000Y-7178000D01*
X12577000Y-7138000D02*
X12537000Y-7178000D01*
X12555000Y-6580000D02*
X12595000Y-6620000D01*
X12595000Y-6580000D02*
X12555000Y-6620000D01*
X12555000Y-6655000D02*
X12595000Y-6695000D01*
X12595000Y-6655000D02*
X12555000Y-6695000D01*
X12555000Y-6730000D02*
X12595000Y-6770000D01*
X12595000Y-6730000D02*
X12555000Y-6770000D01*
X12555000Y-12005000D02*
X12595000Y-12045000D01*
X12595000Y-12005000D02*
X12555000Y-12045000D01*
X12580000Y-7055000D02*
X12620000Y-7095000D01*
X12620000Y-7055000D02*
X12580000Y-7095000D01*
X12580000Y-10630000D02*
X12620000Y-10670000D01*
X12620000Y-10630000D02*
X12580000Y-10670000D01*
X12628000Y-12070000D02*
X12668000Y-12110000D01*
X12668000Y-12070000D02*
X12628000Y-12110000D01*
X12630000Y-6580000D02*
X12670000Y-6620000D01*
X12670000Y-6580000D02*
X12630000Y-6620000D01*
X12630000Y-6655000D02*
X12670000Y-6695000D01*
X12670000Y-6655000D02*
X12630000Y-6695000D01*
X12630000Y-6730000D02*
X12670000Y-6770000D01*
X12670000Y-6730000D02*
X12630000Y-6770000D01*
X12638000Y-7988000D02*
X12678000Y-8028000D01*
X12678000Y-7988000D02*
X12638000Y-8028000D01*
X12679000Y-9592186D02*
X12719000Y-9632186D01*
X12719000Y-9592186D02*
X12679000Y-9632186D01*
X12805000Y-6755000D02*
X12845000Y-6795000D01*
X12845000Y-6755000D02*
X12805000Y-6795000D01*
X12825000Y-9592186D02*
X12865000Y-9632186D01*
X12865000Y-9592186D02*
X12825000Y-9632186D01*
X12853000Y-8163000D02*
X12893000Y-8203000D01*
X12893000Y-8163000D02*
X12853000Y-8203000D01*
X12898000Y-8854000D02*
X12938000Y-8894000D01*
X12938000Y-8854000D02*
X12898000Y-8894000D01*
X12955000Y-10880000D02*
X12995000Y-10920000D01*
X12995000Y-10880000D02*
X12955000Y-10920000D01*
X12963000Y-9573000D02*
X13003000Y-9613000D01*
X13003000Y-9573000D02*
X12963000Y-9613000D01*
X12985000Y-8166000D02*
X13025000Y-8206000D01*
X13025000Y-8166000D02*
X12985000Y-8206000D01*
X12988000Y-11512000D02*
X13028000Y-11552000D01*
X13028000Y-11512000D02*
X12988000Y-11552000D01*
X13005609Y-7468391D02*
X13045609Y-7508391D01*
X13045609Y-7468391D02*
X13005609Y-7508391D01*
X13055000Y-11005000D02*
X13095000Y-11045000D01*
X13095000Y-11005000D02*
X13055000Y-11045000D01*
X13088000Y-7011000D02*
X13128000Y-7051000D01*
X13128000Y-7011000D02*
X13088000Y-7051000D01*
X13155000Y-11105000D02*
X13195000Y-11145000D01*
X13195000Y-11105000D02*
X13155000Y-11145000D01*
X13205000Y-10480000D02*
X13245000Y-10520000D01*
X13245000Y-10480000D02*
X13205000Y-10520000D01*
X13230000Y-11180000D02*
X13270000Y-11220000D01*
X13270000Y-11180000D02*
X13230000Y-11220000D01*
X13236000Y-8666000D02*
X13276000Y-8706000D01*
X13276000Y-8666000D02*
X13236000Y-8706000D01*
X13255000Y-6130000D02*
X13295000Y-6170000D01*
X13295000Y-6130000D02*
X13255000Y-6170000D01*
X13255000Y-10580000D02*
X13295000Y-10620000D01*
X13295000Y-10580000D02*
X13255000Y-10620000D01*
X13284000Y-6295000D02*
X13324000Y-6335000D01*
X13324000Y-6295000D02*
X13284000Y-6335000D01*
X13286000Y-6210000D02*
X13326000Y-6250000D01*
X13326000Y-6210000D02*
X13286000Y-6250000D01*
X13286000Y-6692000D02*
X13326000Y-6732000D01*
X13326000Y-6692000D02*
X13286000Y-6732000D01*
X13286000Y-6793000D02*
X13326000Y-6833000D01*
X13326000Y-6793000D02*
X13286000Y-6833000D01*
X13333000Y-8172000D02*
X13373000Y-8212000D01*
X13373000Y-8172000D02*
X13333000Y-8212000D01*
X13351000Y-12535000D02*
X13391000Y-12575000D01*
X13391000Y-12535000D02*
X13351000Y-12575000D01*
X13366135Y-9592792D02*
X13406135Y-9632792D01*
X13406135Y-9592792D02*
X13366135Y-9632792D01*
X13379000Y-11775000D02*
X13419000Y-11815000D01*
X13419000Y-11775000D02*
X13379000Y-11815000D01*
X13384000Y-10700000D02*
X13424000Y-10740000D01*
X13424000Y-10700000D02*
X13384000Y-10740000D01*
X13401000Y-9150000D02*
X13441000Y-9190000D01*
X13441000Y-9150000D02*
X13401000Y-9190000D01*
X13430000Y-11355000D02*
X13470000Y-11395000D01*
X13470000Y-11355000D02*
X13430000Y-11395000D01*
X13480000Y-10305000D02*
X13520000Y-10345000D01*
X13520000Y-10305000D02*
X13480000Y-10345000D01*
X13487000Y-6840000D02*
X13527000Y-6880000D01*
X13527000Y-6840000D02*
X13487000Y-6880000D01*
X13505000Y-6130000D02*
X13545000Y-6170000D01*
X13545000Y-6130000D02*
X13505000Y-6170000D01*
X13505000Y-7605000D02*
X13545000Y-7645000D01*
X13545000Y-7605000D02*
X13505000Y-7645000D01*
X13505000Y-7705000D02*
X13545000Y-7745000D01*
X13545000Y-7705000D02*
X13505000Y-7745000D01*
X13505000Y-7805000D02*
X13545000Y-7845000D01*
X13545000Y-7805000D02*
X13505000Y-7845000D01*
X13505000Y-8643000D02*
X13545000Y-8683000D01*
X13545000Y-8643000D02*
X13505000Y-8683000D01*
X13505000Y-10830000D02*
X13545000Y-10870000D01*
X13545000Y-10830000D02*
X13505000Y-10870000D01*
X13508000Y-8742000D02*
X13548000Y-8782000D01*
X13548000Y-8742000D02*
X13508000Y-8782000D01*
X13580000Y-10705000D02*
X13620000Y-10745000D01*
X13620000Y-10705000D02*
X13580000Y-10745000D01*
X13580000Y-11505000D02*
X13620000Y-11545000D01*
X13620000Y-11505000D02*
X13580000Y-11545000D01*
X13605000Y-7605000D02*
X13645000Y-7645000D01*
X13645000Y-7605000D02*
X13605000Y-7645000D01*
X13605000Y-7705000D02*
X13645000Y-7745000D01*
X13645000Y-7705000D02*
X13605000Y-7745000D01*
X13605000Y-7805000D02*
X13645000Y-7845000D01*
X13645000Y-7805000D02*
X13605000Y-7845000D01*
X13605000Y-10430000D02*
X13645000Y-10470000D01*
X13645000Y-10430000D02*
X13605000Y-10470000D01*
X13633000Y-10950000D02*
X13673000Y-10990000D01*
X13673000Y-10950000D02*
X13633000Y-10990000D01*
X13655000Y-11580000D02*
X13695000Y-11620000D01*
X13695000Y-11580000D02*
X13655000Y-11620000D01*
X13694428Y-7209665D02*
X13734428Y-7249665D01*
X13734428Y-7209665D02*
X13694428Y-7249665D01*
X13705000Y-7605000D02*
X13745000Y-7645000D01*
X13745000Y-7605000D02*
X13705000Y-7645000D01*
X13705000Y-7705000D02*
X13745000Y-7745000D01*
X13745000Y-7705000D02*
X13705000Y-7745000D01*
X13705000Y-7805000D02*
X13745000Y-7845000D01*
X13745000Y-7805000D02*
X13705000Y-7845000D01*
X13730000Y-10805000D02*
X13770000Y-10845000D01*
X13770000Y-10805000D02*
X13730000Y-10845000D01*
X13730000Y-11655000D02*
X13770000Y-11695000D01*
X13770000Y-11655000D02*
X13730000Y-11695000D01*
X13759000Y-11075000D02*
X13799000Y-11115000D01*
X13799000Y-11075000D02*
X13759000Y-11115000D01*
X13780000Y-10005000D02*
X13820000Y-10045000D01*
X13820000Y-10005000D02*
X13780000Y-10045000D01*
X13824000Y-11135000D02*
X13864000Y-11175000D01*
X13864000Y-11135000D02*
X13824000Y-11175000D01*
X13832000Y-6451000D02*
X13872000Y-6491000D01*
X13872000Y-6451000D02*
X13832000Y-6491000D01*
X13855000Y-10680000D02*
X13895000Y-10720000D01*
X13895000Y-10680000D02*
X13855000Y-10720000D01*
X13860000Y-6248000D02*
X13900000Y-6288000D01*
X13900000Y-6248000D02*
X13860000Y-6288000D01*
X13869000Y-8213000D02*
X13909000Y-8253000D01*
X13909000Y-8213000D02*
X13869000Y-8253000D01*
X13879000Y-11202000D02*
X13919000Y-11242000D01*
X13919000Y-11202000D02*
X13879000Y-11242000D01*
X13905000Y-10130000D02*
X13945000Y-10170000D01*
X13945000Y-10130000D02*
X13905000Y-10170000D01*
X13955000Y-10405000D02*
X13995000Y-10445000D01*
X13995000Y-10405000D02*
X13955000Y-10445000D01*
X14005000Y-9755000D02*
X14045000Y-9795000D01*
X14045000Y-9755000D02*
X14005000Y-9795000D01*
X14005000Y-11330000D02*
X14045000Y-11370000D01*
X14045000Y-11330000D02*
X14005000Y-11370000D01*
X14007000Y-6546000D02*
X14047000Y-6586000D01*
X14047000Y-6546000D02*
X14007000Y-6586000D01*
X14024000Y-6815000D02*
X14064000Y-6855000D01*
X14064000Y-6815000D02*
X14024000Y-6855000D01*
X14028000Y-7806000D02*
X14068000Y-7846000D01*
X14068000Y-7806000D02*
X14028000Y-7846000D01*
X14030550Y-8582000D02*
X14070550Y-8622000D01*
X14070550Y-8582000D02*
X14030550Y-8622000D01*
X14057000Y-8236000D02*
X14097000Y-8276000D01*
X14097000Y-8236000D02*
X14057000Y-8276000D01*
X14077000Y-9663000D02*
X14117000Y-9703000D01*
X14117000Y-9663000D02*
X14077000Y-9703000D01*
X14080000Y-10530000D02*
X14120000Y-10570000D01*
X14120000Y-10530000D02*
X14080000Y-10570000D01*
X14130000Y-10655000D02*
X14170000Y-10695000D01*
X14170000Y-10655000D02*
X14130000Y-10695000D01*
X14149950Y-9743000D02*
X14189950Y-9783000D01*
X14189950Y-9743000D02*
X14149950Y-9783000D01*
X14155000Y-11230000D02*
X14195000Y-11270000D01*
X14195000Y-11230000D02*
X14155000Y-11270000D01*
X14190000Y-7385000D02*
X14230000Y-7425000D01*
X14230000Y-7385000D02*
X14190000Y-7425000D01*
X14255000Y-10530000D02*
X14295000Y-10570000D01*
X14295000Y-10530000D02*
X14255000Y-10570000D01*
X14255000Y-12680000D02*
X14295000Y-12720000D01*
X14295000Y-12680000D02*
X14255000Y-12720000D01*
X14256000Y-9746000D02*
X14296000Y-9786000D01*
X14296000Y-9746000D02*
X14256000Y-9786000D01*
X14280000Y-11105000D02*
X14320000Y-11145000D01*
X14320000Y-11105000D02*
X14280000Y-11145000D01*
X14283000Y-6248000D02*
X14323000Y-6288000D01*
X14323000Y-6248000D02*
X14283000Y-6288000D01*
X14306050Y-8207000D02*
X14346050Y-8247000D01*
X14346050Y-8207000D02*
X14306050Y-8247000D01*
X14430000Y-10955000D02*
X14470000Y-10995000D01*
X14470000Y-10955000D02*
X14430000Y-10995000D01*
X14448000Y-9430000D02*
X14488000Y-9470000D01*
X14488000Y-9430000D02*
X14448000Y-9470000D01*
X14494000Y-6655000D02*
X14534000Y-6695000D01*
X14534000Y-6655000D02*
X14494000Y-6695000D01*
X14520000Y-7020000D02*
X14560000Y-7060000D01*
X14560000Y-7020000D02*
X14520000Y-7060000D01*
X14520000Y-7100000D02*
X14560000Y-7140000D01*
X14560000Y-7100000D02*
X14520000Y-7140000D01*
X14520000Y-7180000D02*
X14560000Y-7220000D01*
X14560000Y-7180000D02*
X14520000Y-7220000D01*
X14555000Y-9430000D02*
X14595000Y-9470000D01*
X14595000Y-9430000D02*
X14555000Y-9470000D01*
X14580000Y-10805000D02*
X14620000Y-10845000D01*
X14620000Y-10805000D02*
X14580000Y-10845000D01*
X14600000Y-7020000D02*
X14640000Y-7060000D01*
X14640000Y-7020000D02*
X14600000Y-7060000D01*
X14600000Y-7100000D02*
X14640000Y-7140000D01*
X14640000Y-7100000D02*
X14600000Y-7140000D01*
X14600000Y-7180000D02*
X14640000Y-7220000D01*
X14640000Y-7180000D02*
X14600000Y-7220000D01*
X14680000Y-7020000D02*
X14720000Y-7060000D01*
X14720000Y-7020000D02*
X14680000Y-7060000D01*
X14680000Y-7100000D02*
X14720000Y-7140000D01*
X14720000Y-7100000D02*
X14680000Y-7140000D01*
X14680000Y-7180000D02*
X14720000Y-7220000D01*
X14720000Y-7180000D02*
X14680000Y-7220000D01*
X14699880Y-6654560D02*
X14739880Y-6694560D01*
X14739880Y-6654560D02*
X14699880Y-6694560D01*
X14795120Y-6654560D02*
X14835120Y-6694560D01*
X14835120Y-6654560D02*
X14795120Y-6694560D01*
X14963000Y-7062000D02*
X15003000Y-7102000D01*
X15003000Y-7062000D02*
X14963000Y-7102000D01*
X15005000Y-6680000D02*
X15045000Y-6720000D01*
X15045000Y-6680000D02*
X15005000Y-6720000D01*
X15005000Y-6755000D02*
X15045000Y-6795000D01*
X15045000Y-6755000D02*
X15005000Y-6795000D01*
X15080000Y-6680000D02*
X15120000Y-6720000D01*
X15120000Y-6680000D02*
X15080000Y-6720000D01*
X15080000Y-6755000D02*
X15120000Y-6795000D01*
X15120000Y-6755000D02*
X15080000Y-6795000D01*
X15140000Y-7060000D02*
X15180000Y-7100000D01*
X15180000Y-7060000D02*
X15140000Y-7100000D01*
X15155000Y-6680000D02*
X15195000Y-6720000D01*
X15195000Y-6680000D02*
X15155000Y-6720000D01*
X15155000Y-6755000D02*
X15195000Y-6795000D01*
X15195000Y-6755000D02*
X15155000Y-6795000D01*
X15310000Y-7063000D02*
X15350000Y-7103000D01*
X15350000Y-7063000D02*
X15310000Y-7103000D01*
D13*
X14475000Y-6290000D02*
G75*
G03*
X14475000Y-6290000I-25000J0D01*
G01*
D10*
X14425000Y-6257500D02*
X14425000Y-6322500D01*
X14475000Y-6257500D02*
X14475000Y-6322500D01*
X14425000Y-6322500D02*
G75*
G03*
X14475000Y-6322500I25000J0D01*
G01*
X14475000Y-6257500D02*
G75*
G03*
X14425000Y-6257500I-25000J0D01*
G01*
D13*
X15175000Y-6290000D02*
G75*
G03*
X15175000Y-6290000I-25000J0D01*
G01*
D10*
X15125000Y-6257500D02*
X15125000Y-6322500D01*
X15175000Y-6257500D02*
X15175000Y-6322500D01*
X15125000Y-6322500D02*
G75*
G03*
X15175000Y-6322500I25000J0D01*
G01*
X15175000Y-6257500D02*
G75*
G03*
X15125000Y-6257500I-25000J0D01*
G01*
D14*
X14550000Y-6532500D02*
X14550000Y-6587500D01*
X14522500Y-6560000D02*
X14577500Y-6560000D01*
D10*
X14522500Y-6545000D02*
X14522500Y-6575000D01*
X14577500Y-6545000D02*
X14577500Y-6575000D01*
X14522500Y-6575000D02*
G75*
G03*
X14577500Y-6575000I27500J0D01*
G01*
X14577500Y-6545000D02*
G75*
G03*
X14522500Y-6545000I-27500J0D01*
G01*
D14*
X15050000Y-6532500D02*
X15050000Y-6587500D01*
X15022500Y-6560000D02*
X15077500Y-6560000D01*
D10*
X15022500Y-6545000D02*
X15022500Y-6575000D01*
X15077500Y-6545000D02*
X15077500Y-6575000D01*
X15022500Y-6575000D02*
G75*
G03*
X15077500Y-6575000I27500J0D01*
G01*
X15077500Y-6545000D02*
G75*
G03*
X15022500Y-6545000I-27500J0D01*
G01*
D15*
X13997213Y-8785213D02*
X13997213Y-8742787D01*
X13954787Y-8742787D01*
X13954787Y-8785213D01*
X13997213Y-8785213D01*
X13999213Y-8370213D02*
X13999213Y-8327787D01*
X13956787Y-8327787D01*
X13956787Y-8370213D01*
X13999213Y-8370213D01*
X10252500Y-6630500D02*
X10282500Y-6600500D01*
X10252500Y-6570500D01*
X10222500Y-6600500D01*
X10252500Y-6630500D01*
X10252500Y-12630500D02*
X10282500Y-12600500D01*
X10252500Y-12570500D01*
X10222500Y-12600500D01*
X10252500Y-12630500D01*
X10346958Y-6402458D02*
X10376958Y-6372458D01*
X10346958Y-6342458D01*
X10316958Y-6372458D01*
X10346958Y-6402458D01*
X10346958Y-6858542D02*
X10376958Y-6828542D01*
X10346958Y-6798542D01*
X10316958Y-6828542D01*
X10346958Y-6858542D01*
X10346958Y-12402458D02*
X10376958Y-12372458D01*
X10346958Y-12342458D01*
X10316958Y-12372458D01*
X10346958Y-12402458D01*
X10346958Y-12858542D02*
X10376958Y-12828542D01*
X10346958Y-12798542D01*
X10316958Y-12828542D01*
X10346958Y-12858542D01*
X10575000Y-6308000D02*
X10605000Y-6278000D01*
X10575000Y-6248000D01*
X10545000Y-6278000D01*
X10575000Y-6308000D01*
X10575000Y-6953000D02*
X10605000Y-6923000D01*
X10575000Y-6893000D01*
X10545000Y-6923000D01*
X10575000Y-6953000D01*
X10575000Y-12308000D02*
X10605000Y-12278000D01*
X10575000Y-12248000D01*
X10545000Y-12278000D01*
X10575000Y-12308000D01*
X10575000Y-12953000D02*
X10605000Y-12923000D01*
X10575000Y-12893000D01*
X10545000Y-12923000D01*
X10575000Y-12953000D01*
X10803042Y-6402458D02*
X10833042Y-6372458D01*
X10803042Y-6342458D01*
X10773042Y-6372458D01*
X10803042Y-6402458D01*
X10803042Y-6858542D02*
X10833042Y-6828542D01*
X10803042Y-6798542D01*
X10773042Y-6828542D01*
X10803042Y-6858542D01*
X10803042Y-12402458D02*
X10833042Y-12372458D01*
X10803042Y-12342458D01*
X10773042Y-12372458D01*
X10803042Y-12402458D01*
X10803042Y-12858542D02*
X10833042Y-12828542D01*
X10803042Y-12798542D01*
X10773042Y-12828542D01*
X10803042Y-12858542D01*
X10897500Y-6630500D02*
X10927500Y-6600500D01*
X10897500Y-6570500D01*
X10867500Y-6600500D01*
X10897500Y-6630500D01*
X10897500Y-12630500D02*
X10927500Y-12600500D01*
X10897500Y-12570500D01*
X10867500Y-12600500D01*
X10897500Y-12630500D01*
X16252500Y-6630500D02*
X16282500Y-6600500D01*
X16252500Y-6570500D01*
X16222500Y-6600500D01*
X16252500Y-6630500D01*
X16252500Y-12630500D02*
X16282500Y-12600500D01*
X16252500Y-12570500D01*
X16222500Y-12600500D01*
X16252500Y-12630500D01*
X16346958Y-6402458D02*
X16376958Y-6372458D01*
X16346958Y-6342458D01*
X16316958Y-6372458D01*
X16346958Y-6402458D01*
X16346958Y-6858542D02*
X16376958Y-6828542D01*
X16346958Y-6798542D01*
X16316958Y-6828542D01*
X16346958Y-6858542D01*
X16346958Y-12402458D02*
X16376958Y-12372458D01*
X16346958Y-12342458D01*
X16316958Y-12372458D01*
X16346958Y-12402458D01*
X16346958Y-12858542D02*
X16376958Y-12828542D01*
X16346958Y-12798542D01*
X16316958Y-12828542D01*
X16346958Y-12858542D01*
X16575000Y-6308000D02*
X16605000Y-6278000D01*
X16575000Y-6248000D01*
X16545000Y-6278000D01*
X16575000Y-6308000D01*
X16575000Y-6953000D02*
X16605000Y-6923000D01*
X16575000Y-6893000D01*
X16545000Y-6923000D01*
X16575000Y-6953000D01*
X16575000Y-12308000D02*
X16605000Y-12278000D01*
X16575000Y-12248000D01*
X16545000Y-12278000D01*
X16575000Y-12308000D01*
X16575000Y-12953000D02*
X16605000Y-12923000D01*
X16575000Y-12893000D01*
X16545000Y-12923000D01*
X16575000Y-12953000D01*
X16803042Y-6402458D02*
X16833042Y-6372458D01*
X16803042Y-6342458D01*
X16773042Y-6372458D01*
X16803042Y-6402458D01*
X16803042Y-6858542D02*
X16833042Y-6828542D01*
X16803042Y-6798542D01*
X16773042Y-6828542D01*
X16803042Y-6858542D01*
X16803042Y-12402458D02*
X16833042Y-12372458D01*
X16803042Y-12342458D01*
X16773042Y-12372458D01*
X16803042Y-12402458D01*
X16803042Y-12858542D02*
X16833042Y-12828542D01*
X16803042Y-12798542D01*
X16773042Y-12828542D01*
X16803042Y-12858542D01*
X16897500Y-6630500D02*
X16927500Y-6600500D01*
X16897500Y-6570500D01*
X16867500Y-6600500D01*
X16897500Y-6630500D01*
X16897500Y-12630500D02*
X16927500Y-12600500D01*
X16897500Y-12570500D01*
X16867500Y-12600500D01*
X16897500Y-12630500D01*
D16*
X14121699Y-6752699D02*
X14191699Y-6822699D01*
X14191699Y-6752699D02*
X14121699Y-6822699D01*
X14191699Y-6787699D02*
G75*
G03*
X14191699Y-6787699I-35000J0D01*
G01*
X14558000Y-7496000D02*
X14628000Y-7566000D01*
X14628000Y-7496000D02*
X14558000Y-7566000D01*
X14628000Y-7531000D02*
G75*
G03*
X14628000Y-7531000I-35000J0D01*
G01*
X14862000Y-7494000D02*
X14932000Y-7564000D01*
X14932000Y-7494000D02*
X14862000Y-7564000D01*
X14932000Y-7529000D02*
G75*
G03*
X14932000Y-7529000I-35000J0D01*
G01*
X15437000Y-7353000D02*
X15507000Y-7423000D01*
X15507000Y-7353000D02*
X15437000Y-7423000D01*
X15507000Y-7388000D02*
G75*
G03*
X15507000Y-7388000I-35000J0D01*
G01*
D11*
X10972500Y-7135000D02*
X11072500Y-7235000D01*
X11072500Y-7135000D02*
X10972500Y-7235000D01*
X11022500Y-7135000D02*
X11022500Y-7235000D01*
X10972500Y-7185000D02*
X11072500Y-7185000D01*
X10972500Y-7389000D02*
X11072500Y-7489000D01*
X11072500Y-7389000D02*
X10972500Y-7489000D01*
X11022500Y-7389000D02*
X11022500Y-7489000D01*
X10972500Y-7439000D02*
X11072500Y-7439000D01*
X10972500Y-7643000D02*
X11072500Y-7743000D01*
X11072500Y-7643000D02*
X10972500Y-7743000D01*
X11022500Y-7643000D02*
X11022500Y-7743000D01*
X10972500Y-7693000D02*
X11072500Y-7693000D01*
X10972500Y-7897000D02*
X11072500Y-7997000D01*
X11072500Y-7897000D02*
X10972500Y-7997000D01*
X11022500Y-7897000D02*
X11022500Y-7997000D01*
X10972500Y-7947000D02*
X11072500Y-7947000D01*
X10972500Y-8151000D02*
X11072500Y-8251000D01*
X11072500Y-8151000D02*
X10972500Y-8251000D01*
X11022500Y-8151000D02*
X11022500Y-8251000D01*
X10972500Y-8201000D02*
X11072500Y-8201000D01*
X10972500Y-8405000D02*
X11072500Y-8505000D01*
X11072500Y-8405000D02*
X10972500Y-8505000D01*
X11022500Y-8405000D02*
X11022500Y-8505000D01*
X10972500Y-8455000D02*
X11072500Y-8455000D01*
X10972500Y-8659000D02*
X11072500Y-8759000D01*
X11072500Y-8659000D02*
X10972500Y-8759000D01*
X11022500Y-8659000D02*
X11022500Y-8759000D01*
X10972500Y-8709000D02*
X11072500Y-8709000D01*
X10972500Y-8913000D02*
X11072500Y-9013000D01*
X11072500Y-8913000D02*
X10972500Y-9013000D01*
X11022500Y-8913000D02*
X11022500Y-9013000D01*
X10972500Y-8963000D02*
X11072500Y-8963000D01*
X10972500Y-9167000D02*
X11072500Y-9267000D01*
X11072500Y-9167000D02*
X10972500Y-9267000D01*
X11022500Y-9167000D02*
X11022500Y-9267000D01*
X10972500Y-9217000D02*
X11072500Y-9217000D01*
X10972500Y-9421000D02*
X11072500Y-9521000D01*
X11072500Y-9421000D02*
X10972500Y-9521000D01*
X11022500Y-9421000D02*
X11022500Y-9521000D01*
X10972500Y-9471000D02*
X11072500Y-9471000D01*
X10972500Y-9675000D02*
X11072500Y-9775000D01*
X11072500Y-9675000D02*
X10972500Y-9775000D01*
X11022500Y-9675000D02*
X11022500Y-9775000D01*
X10972500Y-9725000D02*
X11072500Y-9725000D01*
X10972500Y-9929000D02*
X11072500Y-10029000D01*
X11072500Y-9929000D02*
X10972500Y-10029000D01*
X11022500Y-9929000D02*
X11022500Y-10029000D01*
X10972500Y-9979000D02*
X11072500Y-9979000D01*
X10972500Y-10183000D02*
X11072500Y-10283000D01*
X11072500Y-10183000D02*
X10972500Y-10283000D01*
X11022500Y-10183000D02*
X11022500Y-10283000D01*
X10972500Y-10233000D02*
X11072500Y-10233000D01*
X10972500Y-10437000D02*
X11072500Y-10537000D01*
X11072500Y-10437000D02*
X10972500Y-10537000D01*
X11022500Y-10437000D02*
X11022500Y-10537000D01*
X10972500Y-10487000D02*
X11072500Y-10487000D01*
X10972500Y-10691000D02*
X11072500Y-10791000D01*
X11072500Y-10691000D02*
X10972500Y-10791000D01*
X11022500Y-10691000D02*
X11022500Y-10791000D01*
X10972500Y-10741000D02*
X11072500Y-10741000D01*
X10972500Y-10945000D02*
X11072500Y-11045000D01*
X11072500Y-10945000D02*
X10972500Y-11045000D01*
X11022500Y-10945000D02*
X11022500Y-11045000D01*
X10972500Y-10995000D02*
X11072500Y-10995000D01*
X10972500Y-11199000D02*
X11072500Y-11299000D01*
X11072500Y-11199000D02*
X10972500Y-11299000D01*
X11022500Y-11199000D02*
X11022500Y-11299000D01*
X10972500Y-11249000D02*
X11072500Y-11249000D01*
X10972500Y-11453000D02*
X11072500Y-11553000D01*
X11072500Y-11453000D02*
X10972500Y-11553000D01*
X11022500Y-11453000D02*
X11022500Y-11553000D01*
X10972500Y-11503000D02*
X11072500Y-11503000D01*
X10972500Y-11707000D02*
X11072500Y-11807000D01*
X11072500Y-11707000D02*
X10972500Y-11807000D01*
X11022500Y-11707000D02*
X11022500Y-11807000D01*
X10972500Y-11757000D02*
X11072500Y-11757000D01*
X10972500Y-11961000D02*
X11072500Y-12061000D01*
X11072500Y-11961000D02*
X10972500Y-12061000D01*
X11022500Y-11961000D02*
X11022500Y-12061000D01*
X10972500Y-12011000D02*
X11072500Y-12011000D01*
X11226500Y-7135000D02*
X11326500Y-7235000D01*
X11326500Y-7135000D02*
X11226500Y-7235000D01*
X11276500Y-7135000D02*
X11276500Y-7235000D01*
X11226500Y-7185000D02*
X11326500Y-7185000D01*
X11226500Y-7389000D02*
X11326500Y-7489000D01*
X11326500Y-7389000D02*
X11226500Y-7489000D01*
X11276500Y-7389000D02*
X11276500Y-7489000D01*
X11226500Y-7439000D02*
X11326500Y-7439000D01*
X11226500Y-7643000D02*
X11326500Y-7743000D01*
X11326500Y-7643000D02*
X11226500Y-7743000D01*
X11276500Y-7643000D02*
X11276500Y-7743000D01*
X11226500Y-7693000D02*
X11326500Y-7693000D01*
X11226500Y-7897000D02*
X11326500Y-7997000D01*
X11326500Y-7897000D02*
X11226500Y-7997000D01*
X11276500Y-7897000D02*
X11276500Y-7997000D01*
X11226500Y-7947000D02*
X11326500Y-7947000D01*
X11226500Y-8151000D02*
X11326500Y-8251000D01*
X11326500Y-8151000D02*
X11226500Y-8251000D01*
X11276500Y-8151000D02*
X11276500Y-8251000D01*
X11226500Y-8201000D02*
X11326500Y-8201000D01*
X11226500Y-8405000D02*
X11326500Y-8505000D01*
X11326500Y-8405000D02*
X11226500Y-8505000D01*
X11276500Y-8405000D02*
X11276500Y-8505000D01*
X11226500Y-8455000D02*
X11326500Y-8455000D01*
X11226500Y-8659000D02*
X11326500Y-8759000D01*
X11326500Y-8659000D02*
X11226500Y-8759000D01*
X11276500Y-8659000D02*
X11276500Y-8759000D01*
X11226500Y-8709000D02*
X11326500Y-8709000D01*
X11226500Y-8913000D02*
X11326500Y-9013000D01*
X11326500Y-8913000D02*
X11226500Y-9013000D01*
X11276500Y-8913000D02*
X11276500Y-9013000D01*
X11226500Y-8963000D02*
X11326500Y-8963000D01*
X11226500Y-9167000D02*
X11326500Y-9267000D01*
X11326500Y-9167000D02*
X11226500Y-9267000D01*
X11276500Y-9167000D02*
X11276500Y-9267000D01*
X11226500Y-9217000D02*
X11326500Y-9217000D01*
X11226500Y-9421000D02*
X11326500Y-9521000D01*
X11326500Y-9421000D02*
X11226500Y-9521000D01*
X11276500Y-9421000D02*
X11276500Y-9521000D01*
X11226500Y-9471000D02*
X11326500Y-9471000D01*
X11226500Y-9675000D02*
X11326500Y-9775000D01*
X11326500Y-9675000D02*
X11226500Y-9775000D01*
X11276500Y-9675000D02*
X11276500Y-9775000D01*
X11226500Y-9725000D02*
X11326500Y-9725000D01*
X11226500Y-9929000D02*
X11326500Y-10029000D01*
X11326500Y-9929000D02*
X11226500Y-10029000D01*
X11276500Y-9929000D02*
X11276500Y-10029000D01*
X11226500Y-9979000D02*
X11326500Y-9979000D01*
X11226500Y-10183000D02*
X11326500Y-10283000D01*
X11326500Y-10183000D02*
X11226500Y-10283000D01*
X11276500Y-10183000D02*
X11276500Y-10283000D01*
X11226500Y-10233000D02*
X11326500Y-10233000D01*
X11226500Y-10437000D02*
X11326500Y-10537000D01*
X11326500Y-10437000D02*
X11226500Y-10537000D01*
X11276500Y-10437000D02*
X11276500Y-10537000D01*
X11226500Y-10487000D02*
X11326500Y-10487000D01*
X11226500Y-10691000D02*
X11326500Y-10791000D01*
X11326500Y-10691000D02*
X11226500Y-10791000D01*
X11276500Y-10691000D02*
X11276500Y-10791000D01*
X11226500Y-10741000D02*
X11326500Y-10741000D01*
X11226500Y-10945000D02*
X11326500Y-11045000D01*
X11326500Y-10945000D02*
X11226500Y-11045000D01*
X11276500Y-10945000D02*
X11276500Y-11045000D01*
X11226500Y-10995000D02*
X11326500Y-10995000D01*
X11226500Y-11199000D02*
X11326500Y-11299000D01*
X11326500Y-11199000D02*
X11226500Y-11299000D01*
X11276500Y-11199000D02*
X11276500Y-11299000D01*
X11226500Y-11249000D02*
X11326500Y-11249000D01*
X11226500Y-11453000D02*
X11326500Y-11553000D01*
X11326500Y-11453000D02*
X11226500Y-11553000D01*
X11276500Y-11453000D02*
X11276500Y-11553000D01*
X11226500Y-11503000D02*
X11326500Y-11503000D01*
X11226500Y-11707000D02*
X11326500Y-11807000D01*
X11326500Y-11707000D02*
X11226500Y-11807000D01*
X11276500Y-11707000D02*
X11276500Y-11807000D01*
X11226500Y-11757000D02*
X11326500Y-11757000D01*
X11226500Y-11961000D02*
X11326500Y-12061000D01*
X11326500Y-11961000D02*
X11226500Y-12061000D01*
X11276500Y-11961000D02*
X11276500Y-12061000D01*
X11226500Y-12011000D02*
X11326500Y-12011000D01*
X12025000Y-7767000D02*
X12125000Y-7867000D01*
X12125000Y-7767000D02*
X12025000Y-7867000D01*
X12075000Y-7767000D02*
X12075000Y-7867000D01*
X12025000Y-7817000D02*
X12125000Y-7817000D01*
X12025000Y-8021000D02*
X12125000Y-8121000D01*
X12125000Y-8021000D02*
X12025000Y-8121000D01*
X12075000Y-8021000D02*
X12075000Y-8121000D01*
X12025000Y-8071000D02*
X12125000Y-8071000D01*
X12025000Y-8275000D02*
X12125000Y-8375000D01*
X12125000Y-8275000D02*
X12025000Y-8375000D01*
X12075000Y-8275000D02*
X12075000Y-8375000D01*
X12025000Y-8325000D02*
X12125000Y-8325000D01*
X12025000Y-8529000D02*
X12125000Y-8629000D01*
X12125000Y-8529000D02*
X12025000Y-8629000D01*
X12075000Y-8529000D02*
X12075000Y-8629000D01*
X12025000Y-8579000D02*
X12125000Y-8579000D01*
X12865000Y-8975000D02*
X12965000Y-9075000D01*
X12965000Y-8975000D02*
X12865000Y-9075000D01*
X12915000Y-8975000D02*
X12915000Y-9075000D01*
X12865000Y-9025000D02*
X12965000Y-9025000D01*
X13119000Y-8975000D02*
X13219000Y-9075000D01*
X13219000Y-8975000D02*
X13119000Y-9075000D01*
X13169000Y-8975000D02*
X13169000Y-9075000D01*
X13119000Y-9025000D02*
X13219000Y-9025000D01*
X13373000Y-8975000D02*
X13473000Y-9075000D01*
X13473000Y-8975000D02*
X13373000Y-9075000D01*
X13423000Y-8975000D02*
X13423000Y-9075000D01*
X13373000Y-9025000D02*
X13473000Y-9025000D01*
X13627000Y-8975000D02*
X13727000Y-9075000D01*
X13727000Y-8975000D02*
X13627000Y-9075000D01*
X13677000Y-8975000D02*
X13677000Y-9075000D01*
X13627000Y-9025000D02*
X13727000Y-9025000D01*
X13881000Y-8975000D02*
X13981000Y-9075000D01*
X13981000Y-8975000D02*
X13881000Y-9075000D01*
X13931000Y-8975000D02*
X13931000Y-9075000D01*
X13881000Y-9025000D02*
X13981000Y-9025000D01*
X14135000Y-8975000D02*
X14235000Y-9075000D01*
X14235000Y-8975000D02*
X14135000Y-9075000D01*
X14185000Y-8975000D02*
X14185000Y-9075000D01*
X14135000Y-9025000D02*
X14235000Y-9025000D01*
X14556000Y-7698000D02*
X14656000Y-7798000D01*
X14656000Y-7698000D02*
X14556000Y-7798000D01*
X14606000Y-7698000D02*
X14606000Y-7798000D01*
X14556000Y-7748000D02*
X14656000Y-7748000D01*
X14556000Y-7952000D02*
X14656000Y-8052000D01*
X14656000Y-7952000D02*
X14556000Y-8052000D01*
X14606000Y-7952000D02*
X14606000Y-8052000D01*
X14556000Y-8002000D02*
X14656000Y-8002000D01*
X14556000Y-8206000D02*
X14656000Y-8306000D01*
X14656000Y-8206000D02*
X14556000Y-8306000D01*
X14606000Y-8206000D02*
X14606000Y-8306000D01*
X14556000Y-8256000D02*
X14656000Y-8256000D01*
X14930000Y-7698500D02*
X15030000Y-7798500D01*
X15030000Y-7698500D02*
X14930000Y-7798500D01*
X14980000Y-7698500D02*
X14980000Y-7798500D01*
X14930000Y-7748500D02*
X15030000Y-7748500D01*
X14930000Y-7952500D02*
X15030000Y-8052500D01*
X15030000Y-7952500D02*
X14930000Y-8052500D01*
X14980000Y-7952500D02*
X14980000Y-8052500D01*
X14930000Y-8002500D02*
X15030000Y-8002500D01*
X14930000Y-8206500D02*
X15030000Y-8306500D01*
X15030000Y-8206500D02*
X14930000Y-8306500D01*
X14980000Y-8206500D02*
X14980000Y-8306500D01*
X14930000Y-8256500D02*
X15030000Y-8256500D01*
X15481600Y-6376200D02*
X15581600Y-6476200D01*
X15581600Y-6376200D02*
X15481600Y-6476200D01*
X15531600Y-6376200D02*
X15531600Y-6476200D01*
X15481600Y-6426200D02*
X15581600Y-6426200D01*
X15735600Y-6376200D02*
X15835600Y-6476200D01*
X15835600Y-6376200D02*
X15735600Y-6476200D01*
X15785600Y-6376200D02*
X15785600Y-6476200D01*
X15735600Y-6426200D02*
X15835600Y-6426200D01*
X15822500Y-7135000D02*
X15922500Y-7235000D01*
X15922500Y-7135000D02*
X15822500Y-7235000D01*
X15872500Y-7135000D02*
X15872500Y-7235000D01*
X15822500Y-7185000D02*
X15922500Y-7185000D01*
X15822500Y-7389000D02*
X15922500Y-7489000D01*
X15922500Y-7389000D02*
X15822500Y-7489000D01*
X15872500Y-7389000D02*
X15872500Y-7489000D01*
X15822500Y-7439000D02*
X15922500Y-7439000D01*
X15822500Y-7643000D02*
X15922500Y-7743000D01*
X15922500Y-7643000D02*
X15822500Y-7743000D01*
X15872500Y-7643000D02*
X15872500Y-7743000D01*
X15822500Y-7693000D02*
X15922500Y-7693000D01*
X15822500Y-7897000D02*
X15922500Y-7997000D01*
X15922500Y-7897000D02*
X15822500Y-7997000D01*
X15872500Y-7897000D02*
X15872500Y-7997000D01*
X15822500Y-7947000D02*
X15922500Y-7947000D01*
X15822500Y-8151000D02*
X15922500Y-8251000D01*
X15922500Y-8151000D02*
X15822500Y-8251000D01*
X15872500Y-8151000D02*
X15872500Y-8251000D01*
X15822500Y-8201000D02*
X15922500Y-8201000D01*
X15822500Y-8405000D02*
X15922500Y-8505000D01*
X15922500Y-8405000D02*
X15822500Y-8505000D01*
X15872500Y-8405000D02*
X15872500Y-8505000D01*
X15822500Y-8455000D02*
X15922500Y-8455000D01*
X15822500Y-8659000D02*
X15922500Y-8759000D01*
X15922500Y-8659000D02*
X15822500Y-8759000D01*
X15872500Y-8659000D02*
X15872500Y-8759000D01*
X15822500Y-8709000D02*
X15922500Y-8709000D01*
X15822500Y-8913000D02*
X15922500Y-9013000D01*
X15922500Y-8913000D02*
X15822500Y-9013000D01*
X15872500Y-8913000D02*
X15872500Y-9013000D01*
X15822500Y-8963000D02*
X15922500Y-8963000D01*
X15822500Y-9167000D02*
X15922500Y-9267000D01*
X15922500Y-9167000D02*
X15822500Y-9267000D01*
X15872500Y-9167000D02*
X15872500Y-9267000D01*
X15822500Y-9217000D02*
X15922500Y-9217000D01*
X15822500Y-9421000D02*
X15922500Y-9521000D01*
X15922500Y-9421000D02*
X15822500Y-9521000D01*
X15872500Y-9421000D02*
X15872500Y-9521000D01*
X15822500Y-9471000D02*
X15922500Y-9471000D01*
X15822500Y-9675000D02*
X15922500Y-9775000D01*
X15922500Y-9675000D02*
X15822500Y-9775000D01*
X15872500Y-9675000D02*
X15872500Y-9775000D01*
X15822500Y-9725000D02*
X15922500Y-9725000D01*
X15822500Y-9929000D02*
X15922500Y-10029000D01*
X15922500Y-9929000D02*
X15822500Y-10029000D01*
X15872500Y-9929000D02*
X15872500Y-10029000D01*
X15822500Y-9979000D02*
X15922500Y-9979000D01*
X15822500Y-10183000D02*
X15922500Y-10283000D01*
X15922500Y-10183000D02*
X15822500Y-10283000D01*
X15872500Y-10183000D02*
X15872500Y-10283000D01*
X15822500Y-10233000D02*
X15922500Y-10233000D01*
X15822500Y-10437000D02*
X15922500Y-10537000D01*
X15922500Y-10437000D02*
X15822500Y-10537000D01*
X15872500Y-10437000D02*
X15872500Y-10537000D01*
X15822500Y-10487000D02*
X15922500Y-10487000D01*
X15822500Y-10691000D02*
X15922500Y-10791000D01*
X15922500Y-10691000D02*
X15822500Y-10791000D01*
X15872500Y-10691000D02*
X15872500Y-10791000D01*
X15822500Y-10741000D02*
X15922500Y-10741000D01*
X15822500Y-10945000D02*
X15922500Y-11045000D01*
X15922500Y-10945000D02*
X15822500Y-11045000D01*
X15872500Y-10945000D02*
X15872500Y-11045000D01*
X15822500Y-10995000D02*
X15922500Y-10995000D01*
X15822500Y-11199000D02*
X15922500Y-11299000D01*
X15922500Y-11199000D02*
X15822500Y-11299000D01*
X15872500Y-11199000D02*
X15872500Y-11299000D01*
X15822500Y-11249000D02*
X15922500Y-11249000D01*
X15822500Y-11453000D02*
X15922500Y-11553000D01*
X15922500Y-11453000D02*
X15822500Y-11553000D01*
X15872500Y-11453000D02*
X15872500Y-11553000D01*
X15822500Y-11503000D02*
X15922500Y-11503000D01*
X15822500Y-11707000D02*
X15922500Y-11807000D01*
X15922500Y-11707000D02*
X15822500Y-11807000D01*
X15872500Y-11707000D02*
X15872500Y-11807000D01*
X15822500Y-11757000D02*
X15922500Y-11757000D01*
X15822500Y-11961000D02*
X15922500Y-12061000D01*
X15922500Y-11961000D02*
X15822500Y-12061000D01*
X15872500Y-11961000D02*
X15872500Y-12061000D01*
X15822500Y-12011000D02*
X15922500Y-12011000D01*
X16076500Y-7135000D02*
X16176500Y-7235000D01*
X16176500Y-7135000D02*
X16076500Y-7235000D01*
X16126500Y-7135000D02*
X16126500Y-7235000D01*
X16076500Y-7185000D02*
X16176500Y-7185000D01*
X16076500Y-7389000D02*
X16176500Y-7489000D01*
X16176500Y-7389000D02*
X16076500Y-7489000D01*
X16126500Y-7389000D02*
X16126500Y-7489000D01*
X16076500Y-7439000D02*
X16176500Y-7439000D01*
X16076500Y-7643000D02*
X16176500Y-7743000D01*
X16176500Y-7643000D02*
X16076500Y-7743000D01*
X16126500Y-7643000D02*
X16126500Y-7743000D01*
X16076500Y-7693000D02*
X16176500Y-7693000D01*
X16076500Y-7897000D02*
X16176500Y-7997000D01*
X16176500Y-7897000D02*
X16076500Y-7997000D01*
X16126500Y-7897000D02*
X16126500Y-7997000D01*
X16076500Y-7947000D02*
X16176500Y-7947000D01*
X16076500Y-8151000D02*
X16176500Y-8251000D01*
X16176500Y-8151000D02*
X16076500Y-8251000D01*
X16126500Y-8151000D02*
X16126500Y-8251000D01*
X16076500Y-8201000D02*
X16176500Y-8201000D01*
X16076500Y-8405000D02*
X16176500Y-8505000D01*
X16176500Y-8405000D02*
X16076500Y-8505000D01*
X16126500Y-8405000D02*
X16126500Y-8505000D01*
X16076500Y-8455000D02*
X16176500Y-8455000D01*
X16076500Y-8659000D02*
X16176500Y-8759000D01*
X16176500Y-8659000D02*
X16076500Y-8759000D01*
X16126500Y-8659000D02*
X16126500Y-8759000D01*
X16076500Y-8709000D02*
X16176500Y-8709000D01*
X16076500Y-8913000D02*
X16176500Y-9013000D01*
X16176500Y-8913000D02*
X16076500Y-9013000D01*
X16126500Y-8913000D02*
X16126500Y-9013000D01*
X16076500Y-8963000D02*
X16176500Y-8963000D01*
X16076500Y-9167000D02*
X16176500Y-9267000D01*
X16176500Y-9167000D02*
X16076500Y-9267000D01*
X16126500Y-9167000D02*
X16126500Y-9267000D01*
X16076500Y-9217000D02*
X16176500Y-9217000D01*
X16076500Y-9421000D02*
X16176500Y-9521000D01*
X16176500Y-9421000D02*
X16076500Y-9521000D01*
X16126500Y-9421000D02*
X16126500Y-9521000D01*
X16076500Y-9471000D02*
X16176500Y-9471000D01*
X16076500Y-9675000D02*
X16176500Y-9775000D01*
X16176500Y-9675000D02*
X16076500Y-9775000D01*
X16126500Y-9675000D02*
X16126500Y-9775000D01*
X16076500Y-9725000D02*
X16176500Y-9725000D01*
X16076500Y-9929000D02*
X16176500Y-10029000D01*
X16176500Y-9929000D02*
X16076500Y-10029000D01*
X16126500Y-9929000D02*
X16126500Y-10029000D01*
X16076500Y-9979000D02*
X16176500Y-9979000D01*
X16076500Y-10183000D02*
X16176500Y-10283000D01*
X16176500Y-10183000D02*
X16076500Y-10283000D01*
X16126500Y-10183000D02*
X16126500Y-10283000D01*
X16076500Y-10233000D02*
X16176500Y-10233000D01*
X16076500Y-10437000D02*
X16176500Y-10537000D01*
X16176500Y-10437000D02*
X16076500Y-10537000D01*
X16126500Y-10437000D02*
X16126500Y-10537000D01*
X16076500Y-10487000D02*
X16176500Y-10487000D01*
X16076500Y-10691000D02*
X16176500Y-10791000D01*
X16176500Y-10691000D02*
X16076500Y-10791000D01*
X16126500Y-10691000D02*
X16126500Y-10791000D01*
X16076500Y-10741000D02*
X16176500Y-10741000D01*
X16076500Y-10945000D02*
X16176500Y-11045000D01*
X16176500Y-10945000D02*
X16076500Y-11045000D01*
X16126500Y-10945000D02*
X16126500Y-11045000D01*
X16076500Y-10995000D02*
X16176500Y-10995000D01*
X16076500Y-11199000D02*
X16176500Y-11299000D01*
X16176500Y-11199000D02*
X16076500Y-11299000D01*
X16126500Y-11199000D02*
X16126500Y-11299000D01*
X16076500Y-11249000D02*
X16176500Y-11249000D01*
X16076500Y-11453000D02*
X16176500Y-11553000D01*
X16176500Y-11453000D02*
X16076500Y-11553000D01*
X16126500Y-11453000D02*
X16126500Y-11553000D01*
X16076500Y-11503000D02*
X16176500Y-11503000D01*
X16076500Y-11707000D02*
X16176500Y-11807000D01*
X16176500Y-11707000D02*
X16076500Y-11807000D01*
X16126500Y-11707000D02*
X16126500Y-11807000D01*
X16076500Y-11757000D02*
X16176500Y-11757000D01*
X16076500Y-11961000D02*
X16176500Y-12061000D01*
X16176500Y-11961000D02*
X16076500Y-12061000D01*
X16126500Y-11961000D02*
X16126500Y-12061000D01*
X16076500Y-12011000D02*
X16176500Y-12011000D01*
D17*
X10360000Y-6385500D02*
X10790000Y-6815500D01*
X10790000Y-6385500D02*
X10360000Y-6815500D01*
X10727029Y-6752529D02*
X10727029Y-6448471D01*
X10422971Y-6448471D01*
X10422971Y-6752529D01*
X10727029Y-6752529D01*
X10360000Y-12385500D02*
X10790000Y-12815500D01*
X10790000Y-12385500D02*
X10360000Y-12815500D01*
X10727029Y-12752529D02*
X10727029Y-12448471D01*
X10422971Y-12448471D01*
X10422971Y-12752529D01*
X10727029Y-12752529D01*
X16360000Y-6385500D02*
X16790000Y-6815500D01*
X16790000Y-6385500D02*
X16360000Y-6815500D01*
X16727029Y-6752529D02*
X16727029Y-6448471D01*
X16422971Y-6448471D01*
X16422971Y-6752529D01*
X16727029Y-6752529D01*
X16360000Y-12385500D02*
X16790000Y-12815500D01*
X16790000Y-12385500D02*
X16360000Y-12815500D01*
X16727029Y-12752529D02*
X16727029Y-12448471D01*
X16422971Y-12448471D01*
X16422971Y-12752529D01*
X16727029Y-12752529D01*
D10*
X10322118Y-13421557D02*
X10322118Y-13221557D01*
X10369737Y-13221557D01*
X10398309Y-13231081D01*
X10417356Y-13250128D01*
X10426880Y-13269176D01*
X10436404Y-13307271D01*
X10436404Y-13335843D01*
X10426880Y-13373938D01*
X10417356Y-13392985D01*
X10398309Y-13412033D01*
X10369737Y-13421557D01*
X10322118Y-13421557D01*
X10522118Y-13421557D02*
X10522118Y-13288224D01*
X10522118Y-13326319D02*
X10531642Y-13307271D01*
X10541166Y-13297747D01*
X10560213Y-13288224D01*
X10579261Y-13288224D01*
X10645928Y-13421557D02*
X10645928Y-13288224D01*
X10645928Y-13221557D02*
X10636404Y-13231081D01*
X10645928Y-13240605D01*
X10655452Y-13231081D01*
X10645928Y-13221557D01*
X10645928Y-13240605D01*
X10769737Y-13421557D02*
X10750690Y-13412033D01*
X10741166Y-13392985D01*
X10741166Y-13221557D01*
X10874499Y-13421557D02*
X10855452Y-13412033D01*
X10845928Y-13392985D01*
X10845928Y-13221557D01*
X11103071Y-13421557D02*
X11103071Y-13221557D01*
X11169737Y-13364414D01*
X11236404Y-13221557D01*
X11236404Y-13421557D01*
X11417356Y-13421557D02*
X11417356Y-13316795D01*
X11407832Y-13297747D01*
X11388785Y-13288224D01*
X11350690Y-13288224D01*
X11331642Y-13297747D01*
X11417356Y-13412033D02*
X11398309Y-13421557D01*
X11350690Y-13421557D01*
X11331642Y-13412033D01*
X11322118Y-13392985D01*
X11322118Y-13373938D01*
X11331642Y-13354890D01*
X11350690Y-13345366D01*
X11398309Y-13345366D01*
X11417356Y-13335843D01*
X11512594Y-13288224D02*
X11512594Y-13488224D01*
X11512594Y-13297747D02*
X11531642Y-13288224D01*
X11569737Y-13288224D01*
X11588785Y-13297747D01*
X11598309Y-13307271D01*
X11607832Y-13326319D01*
X11607832Y-13383462D01*
X11598309Y-13402509D01*
X11588785Y-13412033D01*
X11569737Y-13421557D01*
X11531642Y-13421557D01*
X11512594Y-13412033D01*
X11693547Y-13402509D02*
X11703071Y-13412033D01*
X11693547Y-13421557D01*
X11684023Y-13412033D01*
X11693547Y-13402509D01*
X11693547Y-13421557D01*
X11693547Y-13297747D02*
X11703071Y-13307271D01*
X11693547Y-13316795D01*
X11684023Y-13307271D01*
X11693547Y-13297747D01*
X11693547Y-13316795D01*
D12*
X10024499Y-13731081D02*
X10064499Y-13771081D01*
X10064499Y-13731081D02*
X10024499Y-13771081D01*
D10*
X10360213Y-13641557D02*
X10379261Y-13641557D01*
X10398309Y-13651081D01*
X10407833Y-13660605D01*
X10417356Y-13679652D01*
X10426880Y-13717747D01*
X10426880Y-13765366D01*
X10417356Y-13803462D01*
X10407833Y-13822509D01*
X10398309Y-13832033D01*
X10379261Y-13841557D01*
X10360213Y-13841557D01*
X10341166Y-13832033D01*
X10331642Y-13822509D01*
X10322118Y-13803462D01*
X10312594Y-13765366D01*
X10312594Y-13717747D01*
X10322118Y-13679652D01*
X10331642Y-13660605D01*
X10341166Y-13651081D01*
X10360213Y-13641557D01*
X10512594Y-13822509D02*
X10522118Y-13832033D01*
X10512594Y-13841557D01*
X10503071Y-13832033D01*
X10512594Y-13822509D01*
X10512594Y-13841557D01*
X10693547Y-13708224D02*
X10693547Y-13841557D01*
X10645928Y-13632033D02*
X10598309Y-13774890D01*
X10722118Y-13774890D01*
X10836404Y-13641557D02*
X10855452Y-13641557D01*
X10874499Y-13651081D01*
X10884023Y-13660605D01*
X10893547Y-13679652D01*
X10903071Y-13717747D01*
X10903071Y-13765366D01*
X10893547Y-13803462D01*
X10884023Y-13822509D01*
X10874499Y-13832033D01*
X10855452Y-13841557D01*
X10836404Y-13841557D01*
X10817356Y-13832033D01*
X10807833Y-13822509D01*
X10798309Y-13803462D01*
X10788785Y-13765366D01*
X10788785Y-13717747D01*
X10798309Y-13679652D01*
X10807833Y-13660605D01*
X10817356Y-13651081D01*
X10836404Y-13641557D01*
X11026880Y-13641557D02*
X11045928Y-13641557D01*
X11064975Y-13651081D01*
X11074499Y-13660605D01*
X11084023Y-13679652D01*
X11093547Y-13717747D01*
X11093547Y-13765366D01*
X11084023Y-13803462D01*
X11074499Y-13822509D01*
X11064975Y-13832033D01*
X11045928Y-13841557D01*
X11026880Y-13841557D01*
X11007833Y-13832033D01*
X10998309Y-13822509D01*
X10988785Y-13803462D01*
X10979261Y-13765366D01*
X10979261Y-13717747D01*
X10988785Y-13679652D01*
X10998309Y-13660605D01*
X11007833Y-13651081D01*
X11026880Y-13641557D01*
X11179261Y-13841557D02*
X11179261Y-13708224D01*
X11179261Y-13727271D02*
X11188785Y-13717747D01*
X11207832Y-13708224D01*
X11236404Y-13708224D01*
X11255451Y-13717747D01*
X11264975Y-13736795D01*
X11264975Y-13841557D01*
X11264975Y-13736795D02*
X11274499Y-13717747D01*
X11293547Y-13708224D01*
X11322118Y-13708224D01*
X11341166Y-13717747D01*
X11350690Y-13736795D01*
X11350690Y-13841557D01*
X11445928Y-13841557D02*
X11445928Y-13708224D01*
X11445928Y-13727271D02*
X11455451Y-13717747D01*
X11474499Y-13708224D01*
X11503071Y-13708224D01*
X11522118Y-13717747D01*
X11531642Y-13736795D01*
X11531642Y-13841557D01*
X11531642Y-13736795D02*
X11541166Y-13717747D01*
X11560213Y-13708224D01*
X11588785Y-13708224D01*
X11607832Y-13717747D01*
X11617356Y-13736795D01*
X11617356Y-13841557D01*
X12007832Y-13632033D02*
X11836404Y-13889176D01*
X12264975Y-13641557D02*
X12284023Y-13641557D01*
X12303071Y-13651081D01*
X12312594Y-13660605D01*
X12322118Y-13679652D01*
X12331642Y-13717747D01*
X12331642Y-13765366D01*
X12322118Y-13803462D01*
X12312594Y-13822509D01*
X12303071Y-13832033D01*
X12284023Y-13841557D01*
X12264975Y-13841557D01*
X12245928Y-13832033D01*
X12236404Y-13822509D01*
X12226880Y-13803462D01*
X12217356Y-13765366D01*
X12217356Y-13717747D01*
X12226880Y-13679652D01*
X12236404Y-13660605D01*
X12245928Y-13651081D01*
X12264975Y-13641557D01*
X12417356Y-13822509D02*
X12426880Y-13832033D01*
X12417356Y-13841557D01*
X12407832Y-13832033D01*
X12417356Y-13822509D01*
X12417356Y-13841557D01*
X12550690Y-13641557D02*
X12569737Y-13641557D01*
X12588785Y-13651081D01*
X12598309Y-13660605D01*
X12607832Y-13679652D01*
X12617356Y-13717747D01*
X12617356Y-13765366D01*
X12607832Y-13803462D01*
X12598309Y-13822509D01*
X12588785Y-13832033D01*
X12569737Y-13841557D01*
X12550690Y-13841557D01*
X12531642Y-13832033D01*
X12522118Y-13822509D01*
X12512594Y-13803462D01*
X12503071Y-13765366D01*
X12503071Y-13717747D01*
X12512594Y-13679652D01*
X12522118Y-13660605D01*
X12531642Y-13651081D01*
X12550690Y-13641557D01*
X12807832Y-13841557D02*
X12693547Y-13841557D01*
X12750690Y-13841557D02*
X12750690Y-13641557D01*
X12731642Y-13670128D01*
X12712594Y-13689176D01*
X12693547Y-13698700D01*
X12988785Y-13641557D02*
X12893547Y-13641557D01*
X12884023Y-13736795D01*
X12893547Y-13727271D01*
X12912594Y-13717747D01*
X12960213Y-13717747D01*
X12979261Y-13727271D01*
X12988785Y-13736795D01*
X12998309Y-13755843D01*
X12998309Y-13803462D01*
X12988785Y-13822509D01*
X12979261Y-13832033D01*
X12960213Y-13841557D01*
X12912594Y-13841557D01*
X12893547Y-13832033D01*
X12884023Y-13822509D01*
X13064975Y-13641557D02*
X13198309Y-13641557D01*
X13112594Y-13841557D01*
X13264975Y-13641557D02*
X13264975Y-13679652D01*
X13341166Y-13641557D02*
X13341166Y-13679652D01*
X13636404Y-13917747D02*
X13626880Y-13908224D01*
X13607832Y-13879652D01*
X13598309Y-13860605D01*
X13588785Y-13832033D01*
X13579261Y-13784414D01*
X13579261Y-13746319D01*
X13588785Y-13698700D01*
X13598309Y-13670128D01*
X13607832Y-13651081D01*
X13626880Y-13622509D01*
X13636404Y-13612985D01*
X13817356Y-13841557D02*
X13703071Y-13841557D01*
X13760213Y-13841557D02*
X13760213Y-13641557D01*
X13741166Y-13670128D01*
X13722118Y-13689176D01*
X13703071Y-13698700D01*
X13998309Y-13641557D02*
X13903071Y-13641557D01*
X13893547Y-13736795D01*
X13903071Y-13727271D01*
X13922118Y-13717747D01*
X13969737Y-13717747D01*
X13988785Y-13727271D01*
X13998309Y-13736795D01*
X14007832Y-13755843D01*
X14007832Y-13803462D01*
X13998309Y-13822509D01*
X13988785Y-13832033D01*
X13969737Y-13841557D01*
X13922118Y-13841557D01*
X13903071Y-13832033D01*
X13893547Y-13822509D01*
X14084023Y-13660605D02*
X14093547Y-13651081D01*
X14112594Y-13641557D01*
X14160213Y-13641557D01*
X14179261Y-13651081D01*
X14188785Y-13660605D01*
X14198309Y-13679652D01*
X14198309Y-13698700D01*
X14188785Y-13727271D01*
X14074499Y-13841557D01*
X14198309Y-13841557D01*
X14436404Y-13841557D02*
X14436404Y-13641557D01*
X14522118Y-13841557D02*
X14522118Y-13736795D01*
X14512594Y-13717747D01*
X14493547Y-13708224D01*
X14464975Y-13708224D01*
X14445928Y-13717747D01*
X14436404Y-13727271D01*
X14645928Y-13841557D02*
X14626880Y-13832033D01*
X14617356Y-13822509D01*
X14607832Y-13803462D01*
X14607832Y-13746319D01*
X14617356Y-13727271D01*
X14626880Y-13717747D01*
X14645928Y-13708224D01*
X14674499Y-13708224D01*
X14693547Y-13717747D01*
X14703071Y-13727271D01*
X14712594Y-13746319D01*
X14712594Y-13803462D01*
X14703071Y-13822509D01*
X14693547Y-13832033D01*
X14674499Y-13841557D01*
X14645928Y-13841557D01*
X14826880Y-13841557D02*
X14807832Y-13832033D01*
X14798309Y-13812985D01*
X14798309Y-13641557D01*
X14979261Y-13832033D02*
X14960213Y-13841557D01*
X14922118Y-13841557D01*
X14903071Y-13832033D01*
X14893547Y-13812985D01*
X14893547Y-13736795D01*
X14903071Y-13717747D01*
X14922118Y-13708224D01*
X14960213Y-13708224D01*
X14979261Y-13717747D01*
X14988785Y-13736795D01*
X14988785Y-13755843D01*
X14893547Y-13774890D01*
X15064975Y-13832033D02*
X15084023Y-13841557D01*
X15122118Y-13841557D01*
X15141166Y-13832033D01*
X15150690Y-13812985D01*
X15150690Y-13803462D01*
X15141166Y-13784414D01*
X15122118Y-13774890D01*
X15093547Y-13774890D01*
X15074499Y-13765366D01*
X15064975Y-13746319D01*
X15064975Y-13736795D01*
X15074499Y-13717747D01*
X15093547Y-13708224D01*
X15122118Y-13708224D01*
X15141166Y-13717747D01*
X15217356Y-13917747D02*
X15226880Y-13908224D01*
X15245928Y-13879652D01*
X15255451Y-13860605D01*
X15264975Y-13832033D01*
X15274499Y-13784414D01*
X15274499Y-13746319D01*
X15264975Y-13698700D01*
X15255451Y-13670128D01*
X15245928Y-13651081D01*
X15226880Y-13622509D01*
X15217356Y-13612985D01*
D13*
X10064499Y-14015081D02*
G75*
G03*
X10064499Y-14015081I-25000J0D01*
G01*
D10*
X10360213Y-13905557D02*
X10379261Y-13905557D01*
X10398309Y-13915081D01*
X10407833Y-13924605D01*
X10417356Y-13943652D01*
X10426880Y-13981747D01*
X10426880Y-14029366D01*
X10417356Y-14067462D01*
X10407833Y-14086509D01*
X10398309Y-14096033D01*
X10379261Y-14105557D01*
X10360213Y-14105557D01*
X10341166Y-14096033D01*
X10331642Y-14086509D01*
X10322118Y-14067462D01*
X10312594Y-14029366D01*
X10312594Y-13981747D01*
X10322118Y-13943652D01*
X10331642Y-13924605D01*
X10341166Y-13915081D01*
X10360213Y-13905557D01*
X10512594Y-14086509D02*
X10522118Y-14096033D01*
X10512594Y-14105557D01*
X10503071Y-14096033D01*
X10512594Y-14086509D01*
X10512594Y-14105557D01*
X10703071Y-13905557D02*
X10607833Y-13905557D01*
X10598309Y-14000795D01*
X10607833Y-13991271D01*
X10626880Y-13981747D01*
X10674499Y-13981747D01*
X10693547Y-13991271D01*
X10703071Y-14000795D01*
X10712594Y-14019843D01*
X10712594Y-14067462D01*
X10703071Y-14086509D01*
X10693547Y-14096033D01*
X10674499Y-14105557D01*
X10626880Y-14105557D01*
X10607833Y-14096033D01*
X10598309Y-14086509D01*
X10836404Y-13905557D02*
X10855452Y-13905557D01*
X10874499Y-13915081D01*
X10884023Y-13924605D01*
X10893547Y-13943652D01*
X10903071Y-13981747D01*
X10903071Y-14029366D01*
X10893547Y-14067462D01*
X10884023Y-14086509D01*
X10874499Y-14096033D01*
X10855452Y-14105557D01*
X10836404Y-14105557D01*
X10817356Y-14096033D01*
X10807833Y-14086509D01*
X10798309Y-14067462D01*
X10788785Y-14029366D01*
X10788785Y-13981747D01*
X10798309Y-13943652D01*
X10807833Y-13924605D01*
X10817356Y-13915081D01*
X10836404Y-13905557D01*
X11026880Y-13905557D02*
X11045928Y-13905557D01*
X11064975Y-13915081D01*
X11074499Y-13924605D01*
X11084023Y-13943652D01*
X11093547Y-13981747D01*
X11093547Y-14029366D01*
X11084023Y-14067462D01*
X11074499Y-14086509D01*
X11064975Y-14096033D01*
X11045928Y-14105557D01*
X11026880Y-14105557D01*
X11007833Y-14096033D01*
X10998309Y-14086509D01*
X10988785Y-14067462D01*
X10979261Y-14029366D01*
X10979261Y-13981747D01*
X10988785Y-13943652D01*
X10998309Y-13924605D01*
X11007833Y-13915081D01*
X11026880Y-13905557D01*
X11179261Y-14105557D02*
X11179261Y-13972224D01*
X11179261Y-13991271D02*
X11188785Y-13981747D01*
X11207832Y-13972224D01*
X11236404Y-13972224D01*
X11255451Y-13981747D01*
X11264975Y-14000795D01*
X11264975Y-14105557D01*
X11264975Y-14000795D02*
X11274499Y-13981747D01*
X11293547Y-13972224D01*
X11322118Y-13972224D01*
X11341166Y-13981747D01*
X11350690Y-14000795D01*
X11350690Y-14105557D01*
X11445928Y-14105557D02*
X11445928Y-13972224D01*
X11445928Y-13991271D02*
X11455451Y-13981747D01*
X11474499Y-13972224D01*
X11503071Y-13972224D01*
X11522118Y-13981747D01*
X11531642Y-14000795D01*
X11531642Y-14105557D01*
X11531642Y-14000795D02*
X11541166Y-13981747D01*
X11560213Y-13972224D01*
X11588785Y-13972224D01*
X11607832Y-13981747D01*
X11617356Y-14000795D01*
X11617356Y-14105557D01*
X12007832Y-13896033D02*
X11836404Y-14153176D01*
X12264975Y-13905557D02*
X12284023Y-13905557D01*
X12303071Y-13915081D01*
X12312594Y-13924605D01*
X12322118Y-13943652D01*
X12331642Y-13981747D01*
X12331642Y-14029366D01*
X12322118Y-14067462D01*
X12312594Y-14086509D01*
X12303071Y-14096033D01*
X12284023Y-14105557D01*
X12264975Y-14105557D01*
X12245928Y-14096033D01*
X12236404Y-14086509D01*
X12226880Y-14067462D01*
X12217356Y-14029366D01*
X12217356Y-13981747D01*
X12226880Y-13943652D01*
X12236404Y-13924605D01*
X12245928Y-13915081D01*
X12264975Y-13905557D01*
X12417356Y-14086509D02*
X12426880Y-14096033D01*
X12417356Y-14105557D01*
X12407832Y-14096033D01*
X12417356Y-14086509D01*
X12417356Y-14105557D01*
X12550690Y-13905557D02*
X12569737Y-13905557D01*
X12588785Y-13915081D01*
X12598309Y-13924605D01*
X12607832Y-13943652D01*
X12617356Y-13981747D01*
X12617356Y-14029366D01*
X12607832Y-14067462D01*
X12598309Y-14086509D01*
X12588785Y-14096033D01*
X12569737Y-14105557D01*
X12550690Y-14105557D01*
X12531642Y-14096033D01*
X12522118Y-14086509D01*
X12512594Y-14067462D01*
X12503071Y-14029366D01*
X12503071Y-13981747D01*
X12512594Y-13943652D01*
X12522118Y-13924605D01*
X12531642Y-13915081D01*
X12550690Y-13905557D01*
X12807832Y-14105557D02*
X12693547Y-14105557D01*
X12750690Y-14105557D02*
X12750690Y-13905557D01*
X12731642Y-13934128D01*
X12712594Y-13953176D01*
X12693547Y-13962700D01*
X12903071Y-14105557D02*
X12941166Y-14105557D01*
X12960213Y-14096033D01*
X12969737Y-14086509D01*
X12988785Y-14057938D01*
X12998309Y-14019843D01*
X12998309Y-13943652D01*
X12988785Y-13924605D01*
X12979261Y-13915081D01*
X12960213Y-13905557D01*
X12922118Y-13905557D01*
X12903071Y-13915081D01*
X12893547Y-13924605D01*
X12884023Y-13943652D01*
X12884023Y-13991271D01*
X12893547Y-14010319D01*
X12903071Y-14019843D01*
X12922118Y-14029366D01*
X12960213Y-14029366D01*
X12979261Y-14019843D01*
X12988785Y-14010319D01*
X12998309Y-13991271D01*
X13064975Y-13905557D02*
X13198309Y-13905557D01*
X13112594Y-14105557D01*
X13264975Y-13905557D02*
X13264975Y-13943652D01*
X13341166Y-13905557D02*
X13341166Y-13943652D01*
X13636404Y-14181747D02*
X13626880Y-14172224D01*
X13607832Y-14143652D01*
X13598309Y-14124605D01*
X13588785Y-14096033D01*
X13579261Y-14048414D01*
X13579261Y-14010319D01*
X13588785Y-13962700D01*
X13598309Y-13934128D01*
X13607832Y-13915081D01*
X13626880Y-13886509D01*
X13636404Y-13876985D01*
X13750690Y-13905557D02*
X13769737Y-13905557D01*
X13788785Y-13915081D01*
X13798309Y-13924605D01*
X13807832Y-13943652D01*
X13817356Y-13981747D01*
X13817356Y-14029366D01*
X13807832Y-14067462D01*
X13798309Y-14086509D01*
X13788785Y-14096033D01*
X13769737Y-14105557D01*
X13750690Y-14105557D01*
X13731642Y-14096033D01*
X13722118Y-14086509D01*
X13712594Y-14067462D01*
X13703071Y-14029366D01*
X13703071Y-13981747D01*
X13712594Y-13943652D01*
X13722118Y-13924605D01*
X13731642Y-13915081D01*
X13750690Y-13905557D01*
X14055451Y-14105557D02*
X14055451Y-13905557D01*
X14141166Y-14105557D02*
X14141166Y-14000795D01*
X14131642Y-13981747D01*
X14112594Y-13972224D01*
X14084023Y-13972224D01*
X14064975Y-13981747D01*
X14055451Y-13991271D01*
X14264975Y-14105557D02*
X14245928Y-14096033D01*
X14236404Y-14086509D01*
X14226880Y-14067462D01*
X14226880Y-14010319D01*
X14236404Y-13991271D01*
X14245928Y-13981747D01*
X14264975Y-13972224D01*
X14293547Y-13972224D01*
X14312594Y-13981747D01*
X14322118Y-13991271D01*
X14331642Y-14010319D01*
X14331642Y-14067462D01*
X14322118Y-14086509D01*
X14312594Y-14096033D01*
X14293547Y-14105557D01*
X14264975Y-14105557D01*
X14445928Y-14105557D02*
X14426880Y-14096033D01*
X14417356Y-14076985D01*
X14417356Y-13905557D01*
X14598309Y-14096033D02*
X14579261Y-14105557D01*
X14541166Y-14105557D01*
X14522118Y-14096033D01*
X14512594Y-14076985D01*
X14512594Y-14000795D01*
X14522118Y-13981747D01*
X14541166Y-13972224D01*
X14579261Y-13972224D01*
X14598309Y-13981747D01*
X14607832Y-14000795D01*
X14607832Y-14019843D01*
X14512594Y-14038890D01*
X14684023Y-14096033D02*
X14703071Y-14105557D01*
X14741166Y-14105557D01*
X14760213Y-14096033D01*
X14769737Y-14076985D01*
X14769737Y-14067462D01*
X14760213Y-14048414D01*
X14741166Y-14038890D01*
X14712594Y-14038890D01*
X14693547Y-14029366D01*
X14684023Y-14010319D01*
X14684023Y-14000795D01*
X14693547Y-13981747D01*
X14712594Y-13972224D01*
X14741166Y-13972224D01*
X14760213Y-13981747D01*
X15007832Y-14029366D02*
X15160213Y-14029366D01*
X15084023Y-14105557D02*
X15084023Y-13953176D01*
X15398309Y-13924605D02*
X15407832Y-13915081D01*
X15426880Y-13905557D01*
X15474499Y-13905557D01*
X15493547Y-13915081D01*
X15503071Y-13924605D01*
X15512594Y-13943652D01*
X15512594Y-13962700D01*
X15503071Y-13991271D01*
X15388785Y-14105557D01*
X15512594Y-14105557D01*
X15741166Y-14096033D02*
X15760213Y-14105557D01*
X15798309Y-14105557D01*
X15817356Y-14096033D01*
X15826880Y-14076985D01*
X15826880Y-14067462D01*
X15817356Y-14048414D01*
X15798309Y-14038890D01*
X15769737Y-14038890D01*
X15750690Y-14029366D01*
X15741166Y-14010319D01*
X15741166Y-14000795D01*
X15750690Y-13981747D01*
X15769737Y-13972224D01*
X15798309Y-13972224D01*
X15817356Y-13981747D01*
X15941166Y-14105557D02*
X15922118Y-14096033D01*
X15912594Y-14076985D01*
X15912594Y-13905557D01*
X16045928Y-14105557D02*
X16026880Y-14096033D01*
X16017356Y-14086509D01*
X16007832Y-14067462D01*
X16007832Y-14010319D01*
X16017356Y-13991271D01*
X16026880Y-13981747D01*
X16045928Y-13972224D01*
X16074499Y-13972224D01*
X16093547Y-13981747D01*
X16103071Y-13991271D01*
X16112594Y-14010319D01*
X16112594Y-14067462D01*
X16103071Y-14086509D01*
X16093547Y-14096033D01*
X16074499Y-14105557D01*
X16045928Y-14105557D01*
X16169737Y-13972224D02*
X16245928Y-13972224D01*
X16198309Y-13905557D02*
X16198309Y-14076985D01*
X16207832Y-14096033D01*
X16226880Y-14105557D01*
X16245928Y-14105557D01*
X16303071Y-14096033D02*
X16322118Y-14105557D01*
X16360213Y-14105557D01*
X16379261Y-14096033D01*
X16388785Y-14076985D01*
X16388785Y-14067462D01*
X16379261Y-14048414D01*
X16360213Y-14038890D01*
X16331642Y-14038890D01*
X16312594Y-14029366D01*
X16303071Y-14010319D01*
X16303071Y-14000795D01*
X16312594Y-13981747D01*
X16331642Y-13972224D01*
X16360213Y-13972224D01*
X16379261Y-13981747D01*
X16455451Y-14181747D02*
X16464975Y-14172224D01*
X16484023Y-14143652D01*
X16493547Y-14124605D01*
X16503071Y-14096033D01*
X16512594Y-14048414D01*
X16512594Y-14010319D01*
X16503071Y-13962700D01*
X16493547Y-13934128D01*
X16484023Y-13915081D01*
X16464975Y-13886509D01*
X16455451Y-13876985D01*
D14*
X10036999Y-14251581D02*
X10036999Y-14306581D01*
X10009499Y-14279081D02*
X10064499Y-14279081D01*
D10*
X10360213Y-14169557D02*
X10379261Y-14169557D01*
X10398309Y-14179081D01*
X10407833Y-14188605D01*
X10417356Y-14207652D01*
X10426880Y-14245747D01*
X10426880Y-14293366D01*
X10417356Y-14331462D01*
X10407833Y-14350509D01*
X10398309Y-14360033D01*
X10379261Y-14369557D01*
X10360213Y-14369557D01*
X10341166Y-14360033D01*
X10331642Y-14350509D01*
X10322118Y-14331462D01*
X10312594Y-14293366D01*
X10312594Y-14245747D01*
X10322118Y-14207652D01*
X10331642Y-14188605D01*
X10341166Y-14179081D01*
X10360213Y-14169557D01*
X10512594Y-14350509D02*
X10522118Y-14360033D01*
X10512594Y-14369557D01*
X10503071Y-14360033D01*
X10512594Y-14350509D01*
X10512594Y-14369557D01*
X10703071Y-14169557D02*
X10607833Y-14169557D01*
X10598309Y-14264795D01*
X10607833Y-14255271D01*
X10626880Y-14245747D01*
X10674499Y-14245747D01*
X10693547Y-14255271D01*
X10703071Y-14264795D01*
X10712594Y-14283843D01*
X10712594Y-14331462D01*
X10703071Y-14350509D01*
X10693547Y-14360033D01*
X10674499Y-14369557D01*
X10626880Y-14369557D01*
X10607833Y-14360033D01*
X10598309Y-14350509D01*
X10893547Y-14169557D02*
X10798309Y-14169557D01*
X10788785Y-14264795D01*
X10798309Y-14255271D01*
X10817356Y-14245747D01*
X10864975Y-14245747D01*
X10884023Y-14255271D01*
X10893547Y-14264795D01*
X10903071Y-14283843D01*
X10903071Y-14331462D01*
X10893547Y-14350509D01*
X10884023Y-14360033D01*
X10864975Y-14369557D01*
X10817356Y-14369557D01*
X10798309Y-14360033D01*
X10788785Y-14350509D01*
X11026880Y-14169557D02*
X11045928Y-14169557D01*
X11064975Y-14179081D01*
X11074499Y-14188605D01*
X11084023Y-14207652D01*
X11093547Y-14245747D01*
X11093547Y-14293366D01*
X11084023Y-14331462D01*
X11074499Y-14350509D01*
X11064975Y-14360033D01*
X11045928Y-14369557D01*
X11026880Y-14369557D01*
X11007833Y-14360033D01*
X10998309Y-14350509D01*
X10988785Y-14331462D01*
X10979261Y-14293366D01*
X10979261Y-14245747D01*
X10988785Y-14207652D01*
X10998309Y-14188605D01*
X11007833Y-14179081D01*
X11026880Y-14169557D01*
X11179261Y-14369557D02*
X11179261Y-14236224D01*
X11179261Y-14255271D02*
X11188785Y-14245747D01*
X11207832Y-14236224D01*
X11236404Y-14236224D01*
X11255451Y-14245747D01*
X11264975Y-14264795D01*
X11264975Y-14369557D01*
X11264975Y-14264795D02*
X11274499Y-14245747D01*
X11293547Y-14236224D01*
X11322118Y-14236224D01*
X11341166Y-14245747D01*
X11350690Y-14264795D01*
X11350690Y-14369557D01*
X11445928Y-14369557D02*
X11445928Y-14236224D01*
X11445928Y-14255271D02*
X11455451Y-14245747D01*
X11474499Y-14236224D01*
X11503071Y-14236224D01*
X11522118Y-14245747D01*
X11531642Y-14264795D01*
X11531642Y-14369557D01*
X11531642Y-14264795D02*
X11541166Y-14245747D01*
X11560213Y-14236224D01*
X11588785Y-14236224D01*
X11607832Y-14245747D01*
X11617356Y-14264795D01*
X11617356Y-14369557D01*
X12007832Y-14160033D02*
X11836404Y-14417176D01*
X12264975Y-14169557D02*
X12284023Y-14169557D01*
X12303071Y-14179081D01*
X12312594Y-14188605D01*
X12322118Y-14207652D01*
X12331642Y-14245747D01*
X12331642Y-14293366D01*
X12322118Y-14331462D01*
X12312594Y-14350509D01*
X12303071Y-14360033D01*
X12284023Y-14369557D01*
X12264975Y-14369557D01*
X12245928Y-14360033D01*
X12236404Y-14350509D01*
X12226880Y-14331462D01*
X12217356Y-14293366D01*
X12217356Y-14245747D01*
X12226880Y-14207652D01*
X12236404Y-14188605D01*
X12245928Y-14179081D01*
X12264975Y-14169557D01*
X12417356Y-14350509D02*
X12426880Y-14360033D01*
X12417356Y-14369557D01*
X12407832Y-14360033D01*
X12417356Y-14350509D01*
X12417356Y-14369557D01*
X12550690Y-14169557D02*
X12569737Y-14169557D01*
X12588785Y-14179081D01*
X12598309Y-14188605D01*
X12607832Y-14207652D01*
X12617356Y-14245747D01*
X12617356Y-14293366D01*
X12607832Y-14331462D01*
X12598309Y-14350509D01*
X12588785Y-14360033D01*
X12569737Y-14369557D01*
X12550690Y-14369557D01*
X12531642Y-14360033D01*
X12522118Y-14350509D01*
X12512594Y-14331462D01*
X12503071Y-14293366D01*
X12503071Y-14245747D01*
X12512594Y-14207652D01*
X12522118Y-14188605D01*
X12531642Y-14179081D01*
X12550690Y-14169557D01*
X12693547Y-14188605D02*
X12703071Y-14179081D01*
X12722118Y-14169557D01*
X12769737Y-14169557D01*
X12788785Y-14179081D01*
X12798309Y-14188605D01*
X12807832Y-14207652D01*
X12807832Y-14226700D01*
X12798309Y-14255271D01*
X12684023Y-14369557D01*
X12807832Y-14369557D01*
X12998309Y-14369557D02*
X12884023Y-14369557D01*
X12941166Y-14369557D02*
X12941166Y-14169557D01*
X12922118Y-14198128D01*
X12903071Y-14217176D01*
X12884023Y-14226700D01*
X13064975Y-14169557D02*
X13198309Y-14169557D01*
X13112594Y-14369557D01*
X13264975Y-14169557D02*
X13264975Y-14207652D01*
X13341166Y-14169557D02*
X13341166Y-14207652D01*
X13636404Y-14445747D02*
X13626880Y-14436224D01*
X13607832Y-14407652D01*
X13598309Y-14388605D01*
X13588785Y-14360033D01*
X13579261Y-14312414D01*
X13579261Y-14274319D01*
X13588785Y-14226700D01*
X13598309Y-14198128D01*
X13607832Y-14179081D01*
X13626880Y-14150509D01*
X13636404Y-14140985D01*
X13750690Y-14169557D02*
X13769737Y-14169557D01*
X13788785Y-14179081D01*
X13798309Y-14188605D01*
X13807832Y-14207652D01*
X13817356Y-14245747D01*
X13817356Y-14293366D01*
X13807832Y-14331462D01*
X13798309Y-14350509D01*
X13788785Y-14360033D01*
X13769737Y-14369557D01*
X13750690Y-14369557D01*
X13731642Y-14360033D01*
X13722118Y-14350509D01*
X13712594Y-14331462D01*
X13703071Y-14293366D01*
X13703071Y-14245747D01*
X13712594Y-14207652D01*
X13722118Y-14188605D01*
X13731642Y-14179081D01*
X13750690Y-14169557D01*
X14055451Y-14369557D02*
X14055451Y-14169557D01*
X14141166Y-14369557D02*
X14141166Y-14264795D01*
X14131642Y-14245747D01*
X14112594Y-14236224D01*
X14084023Y-14236224D01*
X14064975Y-14245747D01*
X14055451Y-14255271D01*
X14264975Y-14369557D02*
X14245928Y-14360033D01*
X14236404Y-14350509D01*
X14226880Y-14331462D01*
X14226880Y-14274319D01*
X14236404Y-14255271D01*
X14245928Y-14245747D01*
X14264975Y-14236224D01*
X14293547Y-14236224D01*
X14312594Y-14245747D01*
X14322118Y-14255271D01*
X14331642Y-14274319D01*
X14331642Y-14331462D01*
X14322118Y-14350509D01*
X14312594Y-14360033D01*
X14293547Y-14369557D01*
X14264975Y-14369557D01*
X14445928Y-14369557D02*
X14426880Y-14360033D01*
X14417356Y-14340985D01*
X14417356Y-14169557D01*
X14598309Y-14360033D02*
X14579261Y-14369557D01*
X14541166Y-14369557D01*
X14522118Y-14360033D01*
X14512594Y-14340985D01*
X14512594Y-14264795D01*
X14522118Y-14245747D01*
X14541166Y-14236224D01*
X14579261Y-14236224D01*
X14598309Y-14245747D01*
X14607832Y-14264795D01*
X14607832Y-14283843D01*
X14512594Y-14302890D01*
X14684023Y-14360033D02*
X14703071Y-14369557D01*
X14741166Y-14369557D01*
X14760213Y-14360033D01*
X14769737Y-14340985D01*
X14769737Y-14331462D01*
X14760213Y-14312414D01*
X14741166Y-14302890D01*
X14712594Y-14302890D01*
X14693547Y-14293366D01*
X14684023Y-14274319D01*
X14684023Y-14264795D01*
X14693547Y-14245747D01*
X14712594Y-14236224D01*
X14741166Y-14236224D01*
X14760213Y-14245747D01*
X15007832Y-14293366D02*
X15160213Y-14293366D01*
X15084023Y-14369557D02*
X15084023Y-14217176D01*
X15398309Y-14188605D02*
X15407832Y-14179081D01*
X15426880Y-14169557D01*
X15474499Y-14169557D01*
X15493547Y-14179081D01*
X15503071Y-14188605D01*
X15512594Y-14207652D01*
X15512594Y-14226700D01*
X15503071Y-14255271D01*
X15388785Y-14369557D01*
X15512594Y-14369557D01*
X15741166Y-14360033D02*
X15760213Y-14369557D01*
X15798309Y-14369557D01*
X15817356Y-14360033D01*
X15826880Y-14340985D01*
X15826880Y-14331462D01*
X15817356Y-14312414D01*
X15798309Y-14302890D01*
X15769737Y-14302890D01*
X15750690Y-14293366D01*
X15741166Y-14274319D01*
X15741166Y-14264795D01*
X15750690Y-14245747D01*
X15769737Y-14236224D01*
X15798309Y-14236224D01*
X15817356Y-14245747D01*
X15941166Y-14369557D02*
X15922118Y-14360033D01*
X15912594Y-14340985D01*
X15912594Y-14169557D01*
X16045928Y-14369557D02*
X16026880Y-14360033D01*
X16017356Y-14350509D01*
X16007832Y-14331462D01*
X16007832Y-14274319D01*
X16017356Y-14255271D01*
X16026880Y-14245747D01*
X16045928Y-14236224D01*
X16074499Y-14236224D01*
X16093547Y-14245747D01*
X16103071Y-14255271D01*
X16112594Y-14274319D01*
X16112594Y-14331462D01*
X16103071Y-14350509D01*
X16093547Y-14360033D01*
X16074499Y-14369557D01*
X16045928Y-14369557D01*
X16169737Y-14236224D02*
X16245928Y-14236224D01*
X16198309Y-14169557D02*
X16198309Y-14340985D01*
X16207832Y-14360033D01*
X16226880Y-14369557D01*
X16245928Y-14369557D01*
X16303071Y-14360033D02*
X16322118Y-14369557D01*
X16360213Y-14369557D01*
X16379261Y-14360033D01*
X16388785Y-14340985D01*
X16388785Y-14331462D01*
X16379261Y-14312414D01*
X16360213Y-14302890D01*
X16331642Y-14302890D01*
X16312594Y-14293366D01*
X16303071Y-14274319D01*
X16303071Y-14264795D01*
X16312594Y-14245747D01*
X16331642Y-14236224D01*
X16360213Y-14236224D01*
X16379261Y-14245747D01*
X16455451Y-14445747D02*
X16464975Y-14436224D01*
X16484023Y-14407652D01*
X16493547Y-14388605D01*
X16503071Y-14360033D01*
X16512594Y-14312414D01*
X16512594Y-14274319D01*
X16503071Y-14226700D01*
X16493547Y-14198128D01*
X16484023Y-14179081D01*
X16464975Y-14150509D01*
X16455451Y-14140985D01*
D15*
X10055713Y-14564294D02*
X10055713Y-14521867D01*
X10013286Y-14521867D01*
X10013286Y-14564294D01*
X10055713Y-14564294D01*
D10*
X10360213Y-14433557D02*
X10379261Y-14433557D01*
X10398309Y-14443081D01*
X10407833Y-14452605D01*
X10417356Y-14471652D01*
X10426880Y-14509747D01*
X10426880Y-14557366D01*
X10417356Y-14595462D01*
X10407833Y-14614509D01*
X10398309Y-14624033D01*
X10379261Y-14633557D01*
X10360213Y-14633557D01*
X10341166Y-14624033D01*
X10331642Y-14614509D01*
X10322118Y-14595462D01*
X10312594Y-14557366D01*
X10312594Y-14509747D01*
X10322118Y-14471652D01*
X10331642Y-14452605D01*
X10341166Y-14443081D01*
X10360213Y-14433557D01*
X10512594Y-14614509D02*
X10522118Y-14624033D01*
X10512594Y-14633557D01*
X10503071Y-14624033D01*
X10512594Y-14614509D01*
X10512594Y-14633557D01*
X10693547Y-14433557D02*
X10655452Y-14433557D01*
X10636404Y-14443081D01*
X10626880Y-14452605D01*
X10607833Y-14481176D01*
X10598309Y-14519271D01*
X10598309Y-14595462D01*
X10607833Y-14614509D01*
X10617356Y-14624033D01*
X10636404Y-14633557D01*
X10674499Y-14633557D01*
X10693547Y-14624033D01*
X10703071Y-14614509D01*
X10712594Y-14595462D01*
X10712594Y-14547843D01*
X10703071Y-14528795D01*
X10693547Y-14519271D01*
X10674499Y-14509747D01*
X10636404Y-14509747D01*
X10617356Y-14519271D01*
X10607833Y-14528795D01*
X10598309Y-14547843D01*
X10836404Y-14433557D02*
X10855452Y-14433557D01*
X10874499Y-14443081D01*
X10884023Y-14452605D01*
X10893547Y-14471652D01*
X10903071Y-14509747D01*
X10903071Y-14557366D01*
X10893547Y-14595462D01*
X10884023Y-14614509D01*
X10874499Y-14624033D01*
X10855452Y-14633557D01*
X10836404Y-14633557D01*
X10817356Y-14624033D01*
X10807833Y-14614509D01*
X10798309Y-14595462D01*
X10788785Y-14557366D01*
X10788785Y-14509747D01*
X10798309Y-14471652D01*
X10807833Y-14452605D01*
X10817356Y-14443081D01*
X10836404Y-14433557D01*
X11026880Y-14433557D02*
X11045928Y-14433557D01*
X11064975Y-14443081D01*
X11074499Y-14452605D01*
X11084023Y-14471652D01*
X11093547Y-14509747D01*
X11093547Y-14557366D01*
X11084023Y-14595462D01*
X11074499Y-14614509D01*
X11064975Y-14624033D01*
X11045928Y-14633557D01*
X11026880Y-14633557D01*
X11007833Y-14624033D01*
X10998309Y-14614509D01*
X10988785Y-14595462D01*
X10979261Y-14557366D01*
X10979261Y-14509747D01*
X10988785Y-14471652D01*
X10998309Y-14452605D01*
X11007833Y-14443081D01*
X11026880Y-14433557D01*
X11179261Y-14633557D02*
X11179261Y-14500224D01*
X11179261Y-14519271D02*
X11188785Y-14509747D01*
X11207832Y-14500224D01*
X11236404Y-14500224D01*
X11255451Y-14509747D01*
X11264975Y-14528795D01*
X11264975Y-14633557D01*
X11264975Y-14528795D02*
X11274499Y-14509747D01*
X11293547Y-14500224D01*
X11322118Y-14500224D01*
X11341166Y-14509747D01*
X11350690Y-14528795D01*
X11350690Y-14633557D01*
X11445928Y-14633557D02*
X11445928Y-14500224D01*
X11445928Y-14519271D02*
X11455451Y-14509747D01*
X11474499Y-14500224D01*
X11503071Y-14500224D01*
X11522118Y-14509747D01*
X11531642Y-14528795D01*
X11531642Y-14633557D01*
X11531642Y-14528795D02*
X11541166Y-14509747D01*
X11560213Y-14500224D01*
X11588785Y-14500224D01*
X11607832Y-14509747D01*
X11617356Y-14528795D01*
X11617356Y-14633557D01*
X12007832Y-14424033D02*
X11836404Y-14681176D01*
X12264975Y-14433557D02*
X12284023Y-14433557D01*
X12303071Y-14443081D01*
X12312594Y-14452605D01*
X12322118Y-14471652D01*
X12331642Y-14509747D01*
X12331642Y-14557366D01*
X12322118Y-14595462D01*
X12312594Y-14614509D01*
X12303071Y-14624033D01*
X12284023Y-14633557D01*
X12264975Y-14633557D01*
X12245928Y-14624033D01*
X12236404Y-14614509D01*
X12226880Y-14595462D01*
X12217356Y-14557366D01*
X12217356Y-14509747D01*
X12226880Y-14471652D01*
X12236404Y-14452605D01*
X12245928Y-14443081D01*
X12264975Y-14433557D01*
X12417356Y-14614509D02*
X12426880Y-14624033D01*
X12417356Y-14633557D01*
X12407832Y-14624033D01*
X12417356Y-14614509D01*
X12417356Y-14633557D01*
X12550690Y-14433557D02*
X12569737Y-14433557D01*
X12588785Y-14443081D01*
X12598309Y-14452605D01*
X12607832Y-14471652D01*
X12617356Y-14509747D01*
X12617356Y-14557366D01*
X12607832Y-14595462D01*
X12598309Y-14614509D01*
X12588785Y-14624033D01*
X12569737Y-14633557D01*
X12550690Y-14633557D01*
X12531642Y-14624033D01*
X12522118Y-14614509D01*
X12512594Y-14595462D01*
X12503071Y-14557366D01*
X12503071Y-14509747D01*
X12512594Y-14471652D01*
X12522118Y-14452605D01*
X12531642Y-14443081D01*
X12550690Y-14433557D01*
X12693547Y-14452605D02*
X12703071Y-14443081D01*
X12722118Y-14433557D01*
X12769737Y-14433557D01*
X12788785Y-14443081D01*
X12798309Y-14452605D01*
X12807832Y-14471652D01*
X12807832Y-14490700D01*
X12798309Y-14519271D01*
X12684023Y-14633557D01*
X12807832Y-14633557D01*
X12874499Y-14433557D02*
X12998309Y-14433557D01*
X12931642Y-14509747D01*
X12960213Y-14509747D01*
X12979261Y-14519271D01*
X12988785Y-14528795D01*
X12998309Y-14547843D01*
X12998309Y-14595462D01*
X12988785Y-14614509D01*
X12979261Y-14624033D01*
X12960213Y-14633557D01*
X12903071Y-14633557D01*
X12884023Y-14624033D01*
X12874499Y-14614509D01*
X13169737Y-14433557D02*
X13131642Y-14433557D01*
X13112594Y-14443081D01*
X13103071Y-14452605D01*
X13084023Y-14481176D01*
X13074499Y-14519271D01*
X13074499Y-14595462D01*
X13084023Y-14614509D01*
X13093547Y-14624033D01*
X13112594Y-14633557D01*
X13150690Y-14633557D01*
X13169737Y-14624033D01*
X13179261Y-14614509D01*
X13188785Y-14595462D01*
X13188785Y-14547843D01*
X13179261Y-14528795D01*
X13169737Y-14519271D01*
X13150690Y-14509747D01*
X13112594Y-14509747D01*
X13093547Y-14519271D01*
X13084023Y-14528795D01*
X13074499Y-14547843D01*
X13264975Y-14433557D02*
X13264975Y-14471652D01*
X13341166Y-14433557D02*
X13341166Y-14471652D01*
X13636404Y-14709747D02*
X13626880Y-14700224D01*
X13607832Y-14671652D01*
X13598309Y-14652605D01*
X13588785Y-14624033D01*
X13579261Y-14576414D01*
X13579261Y-14538319D01*
X13588785Y-14490700D01*
X13598309Y-14462128D01*
X13607832Y-14443081D01*
X13626880Y-14414509D01*
X13636404Y-14404985D01*
X13703071Y-14452605D02*
X13712594Y-14443081D01*
X13731642Y-14433557D01*
X13779261Y-14433557D01*
X13798309Y-14443081D01*
X13807832Y-14452605D01*
X13817356Y-14471652D01*
X13817356Y-14490700D01*
X13807832Y-14519271D01*
X13693547Y-14633557D01*
X13817356Y-14633557D01*
X14055451Y-14633557D02*
X14055451Y-14433557D01*
X14141166Y-14633557D02*
X14141166Y-14528795D01*
X14131642Y-14509747D01*
X14112594Y-14500224D01*
X14084023Y-14500224D01*
X14064975Y-14509747D01*
X14055451Y-14519271D01*
X14264975Y-14633557D02*
X14245928Y-14624033D01*
X14236404Y-14614509D01*
X14226880Y-14595462D01*
X14226880Y-14538319D01*
X14236404Y-14519271D01*
X14245928Y-14509747D01*
X14264975Y-14500224D01*
X14293547Y-14500224D01*
X14312594Y-14509747D01*
X14322118Y-14519271D01*
X14331642Y-14538319D01*
X14331642Y-14595462D01*
X14322118Y-14614509D01*
X14312594Y-14624033D01*
X14293547Y-14633557D01*
X14264975Y-14633557D01*
X14445928Y-14633557D02*
X14426880Y-14624033D01*
X14417356Y-14604985D01*
X14417356Y-14433557D01*
X14598309Y-14624033D02*
X14579261Y-14633557D01*
X14541166Y-14633557D01*
X14522118Y-14624033D01*
X14512594Y-14604985D01*
X14512594Y-14528795D01*
X14522118Y-14509747D01*
X14541166Y-14500224D01*
X14579261Y-14500224D01*
X14598309Y-14509747D01*
X14607832Y-14528795D01*
X14607832Y-14547843D01*
X14512594Y-14566890D01*
X14684023Y-14624033D02*
X14703071Y-14633557D01*
X14741166Y-14633557D01*
X14760213Y-14624033D01*
X14769737Y-14604985D01*
X14769737Y-14595462D01*
X14760213Y-14576414D01*
X14741166Y-14566890D01*
X14712594Y-14566890D01*
X14693547Y-14557366D01*
X14684023Y-14538319D01*
X14684023Y-14528795D01*
X14693547Y-14509747D01*
X14712594Y-14500224D01*
X14741166Y-14500224D01*
X14760213Y-14509747D01*
X14836404Y-14709747D02*
X14845928Y-14700224D01*
X14864975Y-14671652D01*
X14874499Y-14652605D01*
X14884023Y-14624033D01*
X14893547Y-14576414D01*
X14893547Y-14538319D01*
X14884023Y-14490700D01*
X14874499Y-14462128D01*
X14864975Y-14443081D01*
X14845928Y-14414509D01*
X14836404Y-14404985D01*
D15*
X10034499Y-14837081D02*
X10064499Y-14807081D01*
X10034499Y-14777081D01*
X10004499Y-14807081D01*
X10034499Y-14837081D01*
D10*
X10360213Y-14697557D02*
X10379261Y-14697557D01*
X10398309Y-14707081D01*
X10407833Y-14716605D01*
X10417356Y-14735652D01*
X10426880Y-14773747D01*
X10426880Y-14821366D01*
X10417356Y-14859462D01*
X10407833Y-14878509D01*
X10398309Y-14888033D01*
X10379261Y-14897557D01*
X10360213Y-14897557D01*
X10341166Y-14888033D01*
X10331642Y-14878509D01*
X10322118Y-14859462D01*
X10312594Y-14821366D01*
X10312594Y-14773747D01*
X10322118Y-14735652D01*
X10331642Y-14716605D01*
X10341166Y-14707081D01*
X10360213Y-14697557D01*
X10512594Y-14878509D02*
X10522118Y-14888033D01*
X10512594Y-14897557D01*
X10503071Y-14888033D01*
X10512594Y-14878509D01*
X10512594Y-14897557D01*
X10693547Y-14697557D02*
X10655452Y-14697557D01*
X10636404Y-14707081D01*
X10626880Y-14716605D01*
X10607833Y-14745176D01*
X10598309Y-14783271D01*
X10598309Y-14859462D01*
X10607833Y-14878509D01*
X10617356Y-14888033D01*
X10636404Y-14897557D01*
X10674499Y-14897557D01*
X10693547Y-14888033D01*
X10703071Y-14878509D01*
X10712594Y-14859462D01*
X10712594Y-14811843D01*
X10703071Y-14792795D01*
X10693547Y-14783271D01*
X10674499Y-14773747D01*
X10636404Y-14773747D01*
X10617356Y-14783271D01*
X10607833Y-14792795D01*
X10598309Y-14811843D01*
X10836404Y-14697557D02*
X10855452Y-14697557D01*
X10874499Y-14707081D01*
X10884023Y-14716605D01*
X10893547Y-14735652D01*
X10903071Y-14773747D01*
X10903071Y-14821366D01*
X10893547Y-14859462D01*
X10884023Y-14878509D01*
X10874499Y-14888033D01*
X10855452Y-14897557D01*
X10836404Y-14897557D01*
X10817356Y-14888033D01*
X10807833Y-14878509D01*
X10798309Y-14859462D01*
X10788785Y-14821366D01*
X10788785Y-14773747D01*
X10798309Y-14735652D01*
X10807833Y-14716605D01*
X10817356Y-14707081D01*
X10836404Y-14697557D01*
X11026880Y-14697557D02*
X11045928Y-14697557D01*
X11064975Y-14707081D01*
X11074499Y-14716605D01*
X11084023Y-14735652D01*
X11093547Y-14773747D01*
X11093547Y-14821366D01*
X11084023Y-14859462D01*
X11074499Y-14878509D01*
X11064975Y-14888033D01*
X11045928Y-14897557D01*
X11026880Y-14897557D01*
X11007833Y-14888033D01*
X10998309Y-14878509D01*
X10988785Y-14859462D01*
X10979261Y-14821366D01*
X10979261Y-14773747D01*
X10988785Y-14735652D01*
X10998309Y-14716605D01*
X11007833Y-14707081D01*
X11026880Y-14697557D01*
X11179261Y-14897557D02*
X11179261Y-14764224D01*
X11179261Y-14783271D02*
X11188785Y-14773747D01*
X11207832Y-14764224D01*
X11236404Y-14764224D01*
X11255451Y-14773747D01*
X11264975Y-14792795D01*
X11264975Y-14897557D01*
X11264975Y-14792795D02*
X11274499Y-14773747D01*
X11293547Y-14764224D01*
X11322118Y-14764224D01*
X11341166Y-14773747D01*
X11350690Y-14792795D01*
X11350690Y-14897557D01*
X11445928Y-14897557D02*
X11445928Y-14764224D01*
X11445928Y-14783271D02*
X11455451Y-14773747D01*
X11474499Y-14764224D01*
X11503071Y-14764224D01*
X11522118Y-14773747D01*
X11531642Y-14792795D01*
X11531642Y-14897557D01*
X11531642Y-14792795D02*
X11541166Y-14773747D01*
X11560213Y-14764224D01*
X11588785Y-14764224D01*
X11607832Y-14773747D01*
X11617356Y-14792795D01*
X11617356Y-14897557D01*
X12007832Y-14688033D02*
X11836404Y-14945176D01*
X12264975Y-14697557D02*
X12284023Y-14697557D01*
X12303071Y-14707081D01*
X12312594Y-14716605D01*
X12322118Y-14735652D01*
X12331642Y-14773747D01*
X12331642Y-14821366D01*
X12322118Y-14859462D01*
X12312594Y-14878509D01*
X12303071Y-14888033D01*
X12284023Y-14897557D01*
X12264975Y-14897557D01*
X12245928Y-14888033D01*
X12236404Y-14878509D01*
X12226880Y-14859462D01*
X12217356Y-14821366D01*
X12217356Y-14773747D01*
X12226880Y-14735652D01*
X12236404Y-14716605D01*
X12245928Y-14707081D01*
X12264975Y-14697557D01*
X12417356Y-14878509D02*
X12426880Y-14888033D01*
X12417356Y-14897557D01*
X12407832Y-14888033D01*
X12417356Y-14878509D01*
X12417356Y-14897557D01*
X12550690Y-14697557D02*
X12569737Y-14697557D01*
X12588785Y-14707081D01*
X12598309Y-14716605D01*
X12607832Y-14735652D01*
X12617356Y-14773747D01*
X12617356Y-14821366D01*
X12607832Y-14859462D01*
X12598309Y-14878509D01*
X12588785Y-14888033D01*
X12569737Y-14897557D01*
X12550690Y-14897557D01*
X12531642Y-14888033D01*
X12522118Y-14878509D01*
X12512594Y-14859462D01*
X12503071Y-14821366D01*
X12503071Y-14773747D01*
X12512594Y-14735652D01*
X12522118Y-14716605D01*
X12531642Y-14707081D01*
X12550690Y-14697557D01*
X12693547Y-14716605D02*
X12703071Y-14707081D01*
X12722118Y-14697557D01*
X12769737Y-14697557D01*
X12788785Y-14707081D01*
X12798309Y-14716605D01*
X12807832Y-14735652D01*
X12807832Y-14754700D01*
X12798309Y-14783271D01*
X12684023Y-14897557D01*
X12807832Y-14897557D01*
X12874499Y-14697557D02*
X12998309Y-14697557D01*
X12931642Y-14773747D01*
X12960213Y-14773747D01*
X12979261Y-14783271D01*
X12988785Y-14792795D01*
X12998309Y-14811843D01*
X12998309Y-14859462D01*
X12988785Y-14878509D01*
X12979261Y-14888033D01*
X12960213Y-14897557D01*
X12903071Y-14897557D01*
X12884023Y-14888033D01*
X12874499Y-14878509D01*
X13169737Y-14697557D02*
X13131642Y-14697557D01*
X13112594Y-14707081D01*
X13103071Y-14716605D01*
X13084023Y-14745176D01*
X13074499Y-14783271D01*
X13074499Y-14859462D01*
X13084023Y-14878509D01*
X13093547Y-14888033D01*
X13112594Y-14897557D01*
X13150690Y-14897557D01*
X13169737Y-14888033D01*
X13179261Y-14878509D01*
X13188785Y-14859462D01*
X13188785Y-14811843D01*
X13179261Y-14792795D01*
X13169737Y-14783271D01*
X13150690Y-14773747D01*
X13112594Y-14773747D01*
X13093547Y-14783271D01*
X13084023Y-14792795D01*
X13074499Y-14811843D01*
X13264975Y-14697557D02*
X13264975Y-14735652D01*
X13341166Y-14697557D02*
X13341166Y-14735652D01*
X13636404Y-14973747D02*
X13626880Y-14964224D01*
X13607832Y-14935652D01*
X13598309Y-14916605D01*
X13588785Y-14888033D01*
X13579261Y-14840414D01*
X13579261Y-14802319D01*
X13588785Y-14754700D01*
X13598309Y-14726128D01*
X13607832Y-14707081D01*
X13626880Y-14678509D01*
X13636404Y-14668985D01*
X13693547Y-14697557D02*
X13817356Y-14697557D01*
X13750690Y-14773747D01*
X13779261Y-14773747D01*
X13798309Y-14783271D01*
X13807832Y-14792795D01*
X13817356Y-14811843D01*
X13817356Y-14859462D01*
X13807832Y-14878509D01*
X13798309Y-14888033D01*
X13779261Y-14897557D01*
X13722118Y-14897557D01*
X13703071Y-14888033D01*
X13693547Y-14878509D01*
X13893547Y-14716605D02*
X13903071Y-14707081D01*
X13922118Y-14697557D01*
X13969737Y-14697557D01*
X13988785Y-14707081D01*
X13998309Y-14716605D01*
X14007832Y-14735652D01*
X14007832Y-14754700D01*
X13998309Y-14783271D01*
X13884023Y-14897557D01*
X14007832Y-14897557D01*
X14245928Y-14897557D02*
X14245928Y-14697557D01*
X14331642Y-14897557D02*
X14331642Y-14792795D01*
X14322118Y-14773747D01*
X14303071Y-14764224D01*
X14274499Y-14764224D01*
X14255451Y-14773747D01*
X14245928Y-14783271D01*
X14455451Y-14897557D02*
X14436404Y-14888033D01*
X14426880Y-14878509D01*
X14417356Y-14859462D01*
X14417356Y-14802319D01*
X14426880Y-14783271D01*
X14436404Y-14773747D01*
X14455451Y-14764224D01*
X14484023Y-14764224D01*
X14503071Y-14773747D01*
X14512594Y-14783271D01*
X14522118Y-14802319D01*
X14522118Y-14859462D01*
X14512594Y-14878509D01*
X14503071Y-14888033D01*
X14484023Y-14897557D01*
X14455451Y-14897557D01*
X14636404Y-14897557D02*
X14617356Y-14888033D01*
X14607832Y-14868985D01*
X14607832Y-14697557D01*
X14788785Y-14888033D02*
X14769737Y-14897557D01*
X14731642Y-14897557D01*
X14712594Y-14888033D01*
X14703071Y-14868985D01*
X14703071Y-14792795D01*
X14712594Y-14773747D01*
X14731642Y-14764224D01*
X14769737Y-14764224D01*
X14788785Y-14773747D01*
X14798309Y-14792795D01*
X14798309Y-14811843D01*
X14703071Y-14830890D01*
X14874499Y-14888033D02*
X14893547Y-14897557D01*
X14931642Y-14897557D01*
X14950690Y-14888033D01*
X14960213Y-14868985D01*
X14960213Y-14859462D01*
X14950690Y-14840414D01*
X14931642Y-14830890D01*
X14903071Y-14830890D01*
X14884023Y-14821366D01*
X14874499Y-14802319D01*
X14874499Y-14792795D01*
X14884023Y-14773747D01*
X14903071Y-14764224D01*
X14931642Y-14764224D01*
X14950690Y-14773747D01*
X15026880Y-14973747D02*
X15036404Y-14964224D01*
X15055451Y-14935652D01*
X15064975Y-14916605D01*
X15074499Y-14888033D01*
X15084023Y-14840414D01*
X15084023Y-14802319D01*
X15074499Y-14754700D01*
X15064975Y-14726128D01*
X15055451Y-14707081D01*
X15036404Y-14678509D01*
X15026880Y-14668985D01*
D16*
X9994499Y-15036081D02*
X10064499Y-15106081D01*
X10064499Y-15036081D02*
X9994499Y-15106081D01*
X10064499Y-15071081D02*
G75*
G03*
X10064499Y-15071081I-35000J0D01*
G01*
D10*
X10360213Y-14961557D02*
X10379261Y-14961557D01*
X10398309Y-14971081D01*
X10407833Y-14980605D01*
X10417356Y-14999652D01*
X10426880Y-15037747D01*
X10426880Y-15085366D01*
X10417356Y-15123462D01*
X10407833Y-15142509D01*
X10398309Y-15152033D01*
X10379261Y-15161557D01*
X10360213Y-15161557D01*
X10341166Y-15152033D01*
X10331642Y-15142509D01*
X10322118Y-15123462D01*
X10312594Y-15085366D01*
X10312594Y-15037747D01*
X10322118Y-14999652D01*
X10331642Y-14980605D01*
X10341166Y-14971081D01*
X10360213Y-14961557D01*
X10512594Y-15142509D02*
X10522118Y-15152033D01*
X10512594Y-15161557D01*
X10503071Y-15152033D01*
X10512594Y-15142509D01*
X10512594Y-15161557D01*
X10588785Y-14961557D02*
X10722118Y-14961557D01*
X10636404Y-15161557D01*
X10836404Y-14961557D02*
X10855452Y-14961557D01*
X10874499Y-14971081D01*
X10884023Y-14980605D01*
X10893547Y-14999652D01*
X10903071Y-15037747D01*
X10903071Y-15085366D01*
X10893547Y-15123462D01*
X10884023Y-15142509D01*
X10874499Y-15152033D01*
X10855452Y-15161557D01*
X10836404Y-15161557D01*
X10817356Y-15152033D01*
X10807833Y-15142509D01*
X10798309Y-15123462D01*
X10788785Y-15085366D01*
X10788785Y-15037747D01*
X10798309Y-14999652D01*
X10807833Y-14980605D01*
X10817356Y-14971081D01*
X10836404Y-14961557D01*
X11026880Y-14961557D02*
X11045928Y-14961557D01*
X11064975Y-14971081D01*
X11074499Y-14980605D01*
X11084023Y-14999652D01*
X11093547Y-15037747D01*
X11093547Y-15085366D01*
X11084023Y-15123462D01*
X11074499Y-15142509D01*
X11064975Y-15152033D01*
X11045928Y-15161557D01*
X11026880Y-15161557D01*
X11007833Y-15152033D01*
X10998309Y-15142509D01*
X10988785Y-15123462D01*
X10979261Y-15085366D01*
X10979261Y-15037747D01*
X10988785Y-14999652D01*
X10998309Y-14980605D01*
X11007833Y-14971081D01*
X11026880Y-14961557D01*
X11179261Y-15161557D02*
X11179261Y-15028224D01*
X11179261Y-15047271D02*
X11188785Y-15037747D01*
X11207832Y-15028224D01*
X11236404Y-15028224D01*
X11255451Y-15037747D01*
X11264975Y-15056795D01*
X11264975Y-15161557D01*
X11264975Y-15056795D02*
X11274499Y-15037747D01*
X11293547Y-15028224D01*
X11322118Y-15028224D01*
X11341166Y-15037747D01*
X11350690Y-15056795D01*
X11350690Y-15161557D01*
X11445928Y-15161557D02*
X11445928Y-15028224D01*
X11445928Y-15047271D02*
X11455451Y-15037747D01*
X11474499Y-15028224D01*
X11503071Y-15028224D01*
X11522118Y-15037747D01*
X11531642Y-15056795D01*
X11531642Y-15161557D01*
X11531642Y-15056795D02*
X11541166Y-15037747D01*
X11560213Y-15028224D01*
X11588785Y-15028224D01*
X11607832Y-15037747D01*
X11617356Y-15056795D01*
X11617356Y-15161557D01*
X12007832Y-14952033D02*
X11836404Y-15209176D01*
X12264975Y-14961557D02*
X12284023Y-14961557D01*
X12303071Y-14971081D01*
X12312594Y-14980605D01*
X12322118Y-14999652D01*
X12331642Y-15037747D01*
X12331642Y-15085366D01*
X12322118Y-15123462D01*
X12312594Y-15142509D01*
X12303071Y-15152033D01*
X12284023Y-15161557D01*
X12264975Y-15161557D01*
X12245928Y-15152033D01*
X12236404Y-15142509D01*
X12226880Y-15123462D01*
X12217356Y-15085366D01*
X12217356Y-15037747D01*
X12226880Y-14999652D01*
X12236404Y-14980605D01*
X12245928Y-14971081D01*
X12264975Y-14961557D01*
X12417356Y-15142509D02*
X12426880Y-15152033D01*
X12417356Y-15161557D01*
X12407832Y-15152033D01*
X12417356Y-15142509D01*
X12417356Y-15161557D01*
X12550690Y-14961557D02*
X12569737Y-14961557D01*
X12588785Y-14971081D01*
X12598309Y-14980605D01*
X12607832Y-14999652D01*
X12617356Y-15037747D01*
X12617356Y-15085366D01*
X12607832Y-15123462D01*
X12598309Y-15142509D01*
X12588785Y-15152033D01*
X12569737Y-15161557D01*
X12550690Y-15161557D01*
X12531642Y-15152033D01*
X12522118Y-15142509D01*
X12512594Y-15123462D01*
X12503071Y-15085366D01*
X12503071Y-15037747D01*
X12512594Y-14999652D01*
X12522118Y-14980605D01*
X12531642Y-14971081D01*
X12550690Y-14961557D01*
X12693547Y-14980605D02*
X12703071Y-14971081D01*
X12722118Y-14961557D01*
X12769737Y-14961557D01*
X12788785Y-14971081D01*
X12798309Y-14980605D01*
X12807832Y-14999652D01*
X12807832Y-15018700D01*
X12798309Y-15047271D01*
X12684023Y-15161557D01*
X12807832Y-15161557D01*
X12874499Y-14961557D02*
X13007832Y-14961557D01*
X12922118Y-15161557D01*
X13169737Y-14961557D02*
X13131642Y-14961557D01*
X13112594Y-14971081D01*
X13103071Y-14980605D01*
X13084023Y-15009176D01*
X13074499Y-15047271D01*
X13074499Y-15123462D01*
X13084023Y-15142509D01*
X13093547Y-15152033D01*
X13112594Y-15161557D01*
X13150690Y-15161557D01*
X13169737Y-15152033D01*
X13179261Y-15142509D01*
X13188785Y-15123462D01*
X13188785Y-15075843D01*
X13179261Y-15056795D01*
X13169737Y-15047271D01*
X13150690Y-15037747D01*
X13112594Y-15037747D01*
X13093547Y-15047271D01*
X13084023Y-15056795D01*
X13074499Y-15075843D01*
X13264975Y-14961557D02*
X13264975Y-14999652D01*
X13341166Y-14961557D02*
X13341166Y-14999652D01*
X13636404Y-15237747D02*
X13626880Y-15228224D01*
X13607832Y-15199652D01*
X13598309Y-15180605D01*
X13588785Y-15152033D01*
X13579261Y-15104414D01*
X13579261Y-15066319D01*
X13588785Y-15018700D01*
X13598309Y-14990128D01*
X13607832Y-14971081D01*
X13626880Y-14942509D01*
X13636404Y-14932985D01*
X13798309Y-15028224D02*
X13798309Y-15161557D01*
X13750690Y-14952033D02*
X13703071Y-15094890D01*
X13826880Y-15094890D01*
X14055451Y-15161557D02*
X14055451Y-14961557D01*
X14141166Y-15161557D02*
X14141166Y-15056795D01*
X14131642Y-15037747D01*
X14112594Y-15028224D01*
X14084023Y-15028224D01*
X14064975Y-15037747D01*
X14055451Y-15047271D01*
X14264975Y-15161557D02*
X14245928Y-15152033D01*
X14236404Y-15142509D01*
X14226880Y-15123462D01*
X14226880Y-15066319D01*
X14236404Y-15047271D01*
X14245928Y-15037747D01*
X14264975Y-15028224D01*
X14293547Y-15028224D01*
X14312594Y-15037747D01*
X14322118Y-15047271D01*
X14331642Y-15066319D01*
X14331642Y-15123462D01*
X14322118Y-15142509D01*
X14312594Y-15152033D01*
X14293547Y-15161557D01*
X14264975Y-15161557D01*
X14445928Y-15161557D02*
X14426880Y-15152033D01*
X14417356Y-15132985D01*
X14417356Y-14961557D01*
X14598309Y-15152033D02*
X14579261Y-15161557D01*
X14541166Y-15161557D01*
X14522118Y-15152033D01*
X14512594Y-15132985D01*
X14512594Y-15056795D01*
X14522118Y-15037747D01*
X14541166Y-15028224D01*
X14579261Y-15028224D01*
X14598309Y-15037747D01*
X14607832Y-15056795D01*
X14607832Y-15075843D01*
X14512594Y-15094890D01*
X14684023Y-15152033D02*
X14703071Y-15161557D01*
X14741166Y-15161557D01*
X14760213Y-15152033D01*
X14769737Y-15132985D01*
X14769737Y-15123462D01*
X14760213Y-15104414D01*
X14741166Y-15094890D01*
X14712594Y-15094890D01*
X14693547Y-15085366D01*
X14684023Y-15066319D01*
X14684023Y-15056795D01*
X14693547Y-15037747D01*
X14712594Y-15028224D01*
X14741166Y-15028224D01*
X14760213Y-15037747D01*
X14836404Y-15237747D02*
X14845928Y-15228224D01*
X14864975Y-15199652D01*
X14874499Y-15180605D01*
X14884023Y-15152033D01*
X14893547Y-15104414D01*
X14893547Y-15066319D01*
X14884023Y-15018700D01*
X14874499Y-14990128D01*
X14864975Y-14971081D01*
X14845928Y-14942509D01*
X14836404Y-14932985D01*
D11*
X9964499Y-15285081D02*
X10064499Y-15385081D01*
X10064499Y-15285081D02*
X9964499Y-15385081D01*
X10014499Y-15285081D02*
X10014499Y-15385081D01*
X9964499Y-15335081D02*
X10064499Y-15335081D01*
D10*
X10426880Y-15425557D02*
X10312594Y-15425557D01*
X10369737Y-15425557D02*
X10369737Y-15225557D01*
X10350690Y-15254128D01*
X10331642Y-15273176D01*
X10312594Y-15282700D01*
X10512594Y-15406509D02*
X10522118Y-15416033D01*
X10512594Y-15425557D01*
X10503071Y-15416033D01*
X10512594Y-15406509D01*
X10512594Y-15425557D01*
X10645928Y-15225557D02*
X10664975Y-15225557D01*
X10684023Y-15235081D01*
X10693547Y-15244605D01*
X10703071Y-15263652D01*
X10712594Y-15301747D01*
X10712594Y-15349366D01*
X10703071Y-15387462D01*
X10693547Y-15406509D01*
X10684023Y-15416033D01*
X10664975Y-15425557D01*
X10645928Y-15425557D01*
X10626880Y-15416033D01*
X10617356Y-15406509D01*
X10607833Y-15387462D01*
X10598309Y-15349366D01*
X10598309Y-15301747D01*
X10607833Y-15263652D01*
X10617356Y-15244605D01*
X10626880Y-15235081D01*
X10645928Y-15225557D01*
X10836404Y-15225557D02*
X10855452Y-15225557D01*
X10874499Y-15235081D01*
X10884023Y-15244605D01*
X10893547Y-15263652D01*
X10903071Y-15301747D01*
X10903071Y-15349366D01*
X10893547Y-15387462D01*
X10884023Y-15406509D01*
X10874499Y-15416033D01*
X10855452Y-15425557D01*
X10836404Y-15425557D01*
X10817356Y-15416033D01*
X10807833Y-15406509D01*
X10798309Y-15387462D01*
X10788785Y-15349366D01*
X10788785Y-15301747D01*
X10798309Y-15263652D01*
X10807833Y-15244605D01*
X10817356Y-15235081D01*
X10836404Y-15225557D01*
X11026880Y-15225557D02*
X11045928Y-15225557D01*
X11064975Y-15235081D01*
X11074499Y-15244605D01*
X11084023Y-15263652D01*
X11093547Y-15301747D01*
X11093547Y-15349366D01*
X11084023Y-15387462D01*
X11074499Y-15406509D01*
X11064975Y-15416033D01*
X11045928Y-15425557D01*
X11026880Y-15425557D01*
X11007833Y-15416033D01*
X10998309Y-15406509D01*
X10988785Y-15387462D01*
X10979261Y-15349366D01*
X10979261Y-15301747D01*
X10988785Y-15263652D01*
X10998309Y-15244605D01*
X11007833Y-15235081D01*
X11026880Y-15225557D01*
X11179261Y-15425557D02*
X11179261Y-15292224D01*
X11179261Y-15311271D02*
X11188785Y-15301747D01*
X11207832Y-15292224D01*
X11236404Y-15292224D01*
X11255451Y-15301747D01*
X11264975Y-15320795D01*
X11264975Y-15425557D01*
X11264975Y-15320795D02*
X11274499Y-15301747D01*
X11293547Y-15292224D01*
X11322118Y-15292224D01*
X11341166Y-15301747D01*
X11350690Y-15320795D01*
X11350690Y-15425557D01*
X11445928Y-15425557D02*
X11445928Y-15292224D01*
X11445928Y-15311271D02*
X11455451Y-15301747D01*
X11474499Y-15292224D01*
X11503071Y-15292224D01*
X11522118Y-15301747D01*
X11531642Y-15320795D01*
X11531642Y-15425557D01*
X11531642Y-15320795D02*
X11541166Y-15301747D01*
X11560213Y-15292224D01*
X11588785Y-15292224D01*
X11607832Y-15301747D01*
X11617356Y-15320795D01*
X11617356Y-15425557D01*
X12007832Y-15216033D02*
X11836404Y-15473176D01*
X12264975Y-15225557D02*
X12284023Y-15225557D01*
X12303071Y-15235081D01*
X12312594Y-15244605D01*
X12322118Y-15263652D01*
X12331642Y-15301747D01*
X12331642Y-15349366D01*
X12322118Y-15387462D01*
X12312594Y-15406509D01*
X12303071Y-15416033D01*
X12284023Y-15425557D01*
X12264975Y-15425557D01*
X12245928Y-15416033D01*
X12236404Y-15406509D01*
X12226880Y-15387462D01*
X12217356Y-15349366D01*
X12217356Y-15301747D01*
X12226880Y-15263652D01*
X12236404Y-15244605D01*
X12245928Y-15235081D01*
X12264975Y-15225557D01*
X12417356Y-15406509D02*
X12426880Y-15416033D01*
X12417356Y-15425557D01*
X12407832Y-15416033D01*
X12417356Y-15406509D01*
X12417356Y-15425557D01*
X12550690Y-15225557D02*
X12569737Y-15225557D01*
X12588785Y-15235081D01*
X12598309Y-15244605D01*
X12607832Y-15263652D01*
X12617356Y-15301747D01*
X12617356Y-15349366D01*
X12607832Y-15387462D01*
X12598309Y-15406509D01*
X12588785Y-15416033D01*
X12569737Y-15425557D01*
X12550690Y-15425557D01*
X12531642Y-15416033D01*
X12522118Y-15406509D01*
X12512594Y-15387462D01*
X12503071Y-15349366D01*
X12503071Y-15301747D01*
X12512594Y-15263652D01*
X12522118Y-15244605D01*
X12531642Y-15235081D01*
X12550690Y-15225557D01*
X12684023Y-15225557D02*
X12807832Y-15225557D01*
X12741166Y-15301747D01*
X12769737Y-15301747D01*
X12788785Y-15311271D01*
X12798309Y-15320795D01*
X12807832Y-15339843D01*
X12807832Y-15387462D01*
X12798309Y-15406509D01*
X12788785Y-15416033D01*
X12769737Y-15425557D01*
X12712594Y-15425557D01*
X12693547Y-15416033D01*
X12684023Y-15406509D01*
X12903071Y-15425557D02*
X12941166Y-15425557D01*
X12960213Y-15416033D01*
X12969737Y-15406509D01*
X12988785Y-15377938D01*
X12998309Y-15339843D01*
X12998309Y-15263652D01*
X12988785Y-15244605D01*
X12979261Y-15235081D01*
X12960213Y-15225557D01*
X12922118Y-15225557D01*
X12903071Y-15235081D01*
X12893547Y-15244605D01*
X12884023Y-15263652D01*
X12884023Y-15311271D01*
X12893547Y-15330319D01*
X12903071Y-15339843D01*
X12922118Y-15349366D01*
X12960213Y-15349366D01*
X12979261Y-15339843D01*
X12988785Y-15330319D01*
X12998309Y-15311271D01*
X13169737Y-15292224D02*
X13169737Y-15425557D01*
X13122118Y-15216033D02*
X13074499Y-15358890D01*
X13198309Y-15358890D01*
X13264975Y-15225557D02*
X13264975Y-15263652D01*
X13341166Y-15225557D02*
X13341166Y-15263652D01*
X13636404Y-15501747D02*
X13626880Y-15492224D01*
X13607832Y-15463652D01*
X13598309Y-15444605D01*
X13588785Y-15416033D01*
X13579261Y-15368414D01*
X13579261Y-15330319D01*
X13588785Y-15282700D01*
X13598309Y-15254128D01*
X13607832Y-15235081D01*
X13626880Y-15206509D01*
X13636404Y-15196985D01*
X13722118Y-15425557D02*
X13760213Y-15425557D01*
X13779261Y-15416033D01*
X13788785Y-15406509D01*
X13807832Y-15377938D01*
X13817356Y-15339843D01*
X13817356Y-15263652D01*
X13807832Y-15244605D01*
X13798309Y-15235081D01*
X13779261Y-15225557D01*
X13741166Y-15225557D01*
X13722118Y-15235081D01*
X13712594Y-15244605D01*
X13703071Y-15263652D01*
X13703071Y-15311271D01*
X13712594Y-15330319D01*
X13722118Y-15339843D01*
X13741166Y-15349366D01*
X13779261Y-15349366D01*
X13798309Y-15339843D01*
X13807832Y-15330319D01*
X13817356Y-15311271D01*
X13931642Y-15311271D02*
X13912594Y-15301747D01*
X13903071Y-15292224D01*
X13893547Y-15273176D01*
X13893547Y-15263652D01*
X13903071Y-15244605D01*
X13912594Y-15235081D01*
X13931642Y-15225557D01*
X13969737Y-15225557D01*
X13988785Y-15235081D01*
X13998309Y-15244605D01*
X14007832Y-15263652D01*
X14007832Y-15273176D01*
X13998309Y-15292224D01*
X13988785Y-15301747D01*
X13969737Y-15311271D01*
X13931642Y-15311271D01*
X13912594Y-15320795D01*
X13903071Y-15330319D01*
X13893547Y-15349366D01*
X13893547Y-15387462D01*
X13903071Y-15406509D01*
X13912594Y-15416033D01*
X13931642Y-15425557D01*
X13969737Y-15425557D01*
X13988785Y-15416033D01*
X13998309Y-15406509D01*
X14007832Y-15387462D01*
X14007832Y-15349366D01*
X13998309Y-15330319D01*
X13988785Y-15320795D01*
X13969737Y-15311271D01*
X14245928Y-15425557D02*
X14245928Y-15225557D01*
X14331642Y-15425557D02*
X14331642Y-15320795D01*
X14322118Y-15301747D01*
X14303071Y-15292224D01*
X14274499Y-15292224D01*
X14255451Y-15301747D01*
X14245928Y-15311271D01*
X14455451Y-15425557D02*
X14436404Y-15416033D01*
X14426880Y-15406509D01*
X14417356Y-15387462D01*
X14417356Y-15330319D01*
X14426880Y-15311271D01*
X14436404Y-15301747D01*
X14455451Y-15292224D01*
X14484023Y-15292224D01*
X14503071Y-15301747D01*
X14512594Y-15311271D01*
X14522118Y-15330319D01*
X14522118Y-15387462D01*
X14512594Y-15406509D01*
X14503071Y-15416033D01*
X14484023Y-15425557D01*
X14455451Y-15425557D01*
X14636404Y-15425557D02*
X14617356Y-15416033D01*
X14607832Y-15396985D01*
X14607832Y-15225557D01*
X14788785Y-15416033D02*
X14769737Y-15425557D01*
X14731642Y-15425557D01*
X14712594Y-15416033D01*
X14703071Y-15396985D01*
X14703071Y-15320795D01*
X14712594Y-15301747D01*
X14731642Y-15292224D01*
X14769737Y-15292224D01*
X14788785Y-15301747D01*
X14798309Y-15320795D01*
X14798309Y-15339843D01*
X14703071Y-15358890D01*
X14874499Y-15416033D02*
X14893547Y-15425557D01*
X14931642Y-15425557D01*
X14950690Y-15416033D01*
X14960213Y-15396985D01*
X14960213Y-15387462D01*
X14950690Y-15368414D01*
X14931642Y-15358890D01*
X14903071Y-15358890D01*
X14884023Y-15349366D01*
X14874499Y-15330319D01*
X14874499Y-15320795D01*
X14884023Y-15301747D01*
X14903071Y-15292224D01*
X14931642Y-15292224D01*
X14950690Y-15301747D01*
X15026880Y-15501747D02*
X15036404Y-15492224D01*
X15055451Y-15463652D01*
X15064975Y-15444605D01*
X15074499Y-15416033D01*
X15084023Y-15368414D01*
X15084023Y-15330319D01*
X15074499Y-15282700D01*
X15064975Y-15254128D01*
X15055451Y-15235081D01*
X15036404Y-15206509D01*
X15026880Y-15196985D01*
X9864499Y-15499081D02*
X10064499Y-15699081D01*
X10064499Y-15499081D02*
X9864499Y-15699081D01*
X10035211Y-15669792D02*
X10035211Y-15528369D01*
X9893788Y-15528369D01*
X9893788Y-15669792D01*
X10035211Y-15669792D01*
X10407833Y-15556224D02*
X10407833Y-15689557D01*
X10360213Y-15480033D02*
X10312594Y-15622890D01*
X10436404Y-15622890D01*
X10512594Y-15670509D02*
X10522118Y-15680033D01*
X10512594Y-15689557D01*
X10503071Y-15680033D01*
X10512594Y-15670509D01*
X10512594Y-15689557D01*
X10588785Y-15489557D02*
X10712594Y-15489557D01*
X10645928Y-15565747D01*
X10674499Y-15565747D01*
X10693547Y-15575271D01*
X10703071Y-15584795D01*
X10712594Y-15603843D01*
X10712594Y-15651462D01*
X10703071Y-15670509D01*
X10693547Y-15680033D01*
X10674499Y-15689557D01*
X10617356Y-15689557D01*
X10598309Y-15680033D01*
X10588785Y-15670509D01*
X10836404Y-15489557D02*
X10855452Y-15489557D01*
X10874499Y-15499081D01*
X10884023Y-15508605D01*
X10893547Y-15527652D01*
X10903071Y-15565747D01*
X10903071Y-15613366D01*
X10893547Y-15651462D01*
X10884023Y-15670509D01*
X10874499Y-15680033D01*
X10855452Y-15689557D01*
X10836404Y-15689557D01*
X10817356Y-15680033D01*
X10807833Y-15670509D01*
X10798309Y-15651462D01*
X10788785Y-15613366D01*
X10788785Y-15565747D01*
X10798309Y-15527652D01*
X10807833Y-15508605D01*
X10817356Y-15499081D01*
X10836404Y-15489557D01*
X11026880Y-15489557D02*
X11045928Y-15489557D01*
X11064975Y-15499081D01*
X11074499Y-15508605D01*
X11084023Y-15527652D01*
X11093547Y-15565747D01*
X11093547Y-15613366D01*
X11084023Y-15651462D01*
X11074499Y-15670509D01*
X11064975Y-15680033D01*
X11045928Y-15689557D01*
X11026880Y-15689557D01*
X11007833Y-15680033D01*
X10998309Y-15670509D01*
X10988785Y-15651462D01*
X10979261Y-15613366D01*
X10979261Y-15565747D01*
X10988785Y-15527652D01*
X10998309Y-15508605D01*
X11007833Y-15499081D01*
X11026880Y-15489557D01*
X11179261Y-15689557D02*
X11179261Y-15556224D01*
X11179261Y-15575271D02*
X11188785Y-15565747D01*
X11207832Y-15556224D01*
X11236404Y-15556224D01*
X11255451Y-15565747D01*
X11264975Y-15584795D01*
X11264975Y-15689557D01*
X11264975Y-15584795D02*
X11274499Y-15565747D01*
X11293547Y-15556224D01*
X11322118Y-15556224D01*
X11341166Y-15565747D01*
X11350690Y-15584795D01*
X11350690Y-15689557D01*
X11445928Y-15689557D02*
X11445928Y-15556224D01*
X11445928Y-15575271D02*
X11455451Y-15565747D01*
X11474499Y-15556224D01*
X11503071Y-15556224D01*
X11522118Y-15565747D01*
X11531642Y-15584795D01*
X11531642Y-15689557D01*
X11531642Y-15584795D02*
X11541166Y-15565747D01*
X11560213Y-15556224D01*
X11588785Y-15556224D01*
X11607832Y-15565747D01*
X11617356Y-15584795D01*
X11617356Y-15689557D01*
X12007832Y-15480033D02*
X11836404Y-15737176D01*
X12264975Y-15489557D02*
X12284023Y-15489557D01*
X12303071Y-15499081D01*
X12312594Y-15508605D01*
X12322118Y-15527652D01*
X12331642Y-15565747D01*
X12331642Y-15613366D01*
X12322118Y-15651462D01*
X12312594Y-15670509D01*
X12303071Y-15680033D01*
X12284023Y-15689557D01*
X12264975Y-15689557D01*
X12245928Y-15680033D01*
X12236404Y-15670509D01*
X12226880Y-15651462D01*
X12217356Y-15613366D01*
X12217356Y-15565747D01*
X12226880Y-15527652D01*
X12236404Y-15508605D01*
X12245928Y-15499081D01*
X12264975Y-15489557D01*
X12417356Y-15670509D02*
X12426880Y-15680033D01*
X12417356Y-15689557D01*
X12407832Y-15680033D01*
X12417356Y-15670509D01*
X12417356Y-15689557D01*
X12617356Y-15689557D02*
X12503071Y-15689557D01*
X12560213Y-15689557D02*
X12560213Y-15489557D01*
X12541166Y-15518128D01*
X12522118Y-15537176D01*
X12503071Y-15546700D01*
X12788785Y-15489557D02*
X12750690Y-15489557D01*
X12731642Y-15499081D01*
X12722118Y-15508605D01*
X12703071Y-15537176D01*
X12693547Y-15575271D01*
X12693547Y-15651462D01*
X12703071Y-15670509D01*
X12712594Y-15680033D01*
X12731642Y-15689557D01*
X12769737Y-15689557D01*
X12788785Y-15680033D01*
X12798309Y-15670509D01*
X12807832Y-15651462D01*
X12807832Y-15603843D01*
X12798309Y-15584795D01*
X12788785Y-15575271D01*
X12769737Y-15565747D01*
X12731642Y-15565747D01*
X12712594Y-15575271D01*
X12703071Y-15584795D01*
X12693547Y-15603843D01*
X12903071Y-15689557D02*
X12941166Y-15689557D01*
X12960213Y-15680033D01*
X12969737Y-15670509D01*
X12988785Y-15641938D01*
X12998309Y-15603843D01*
X12998309Y-15527652D01*
X12988785Y-15508605D01*
X12979261Y-15499081D01*
X12960213Y-15489557D01*
X12922118Y-15489557D01*
X12903071Y-15499081D01*
X12893547Y-15508605D01*
X12884023Y-15527652D01*
X12884023Y-15575271D01*
X12893547Y-15594319D01*
X12903071Y-15603843D01*
X12922118Y-15613366D01*
X12960213Y-15613366D01*
X12979261Y-15603843D01*
X12988785Y-15594319D01*
X12998309Y-15575271D01*
X13064975Y-15489557D02*
X13188785Y-15489557D01*
X13122118Y-15565747D01*
X13150690Y-15565747D01*
X13169737Y-15575271D01*
X13179261Y-15584795D01*
X13188785Y-15603843D01*
X13188785Y-15651462D01*
X13179261Y-15670509D01*
X13169737Y-15680033D01*
X13150690Y-15689557D01*
X13093547Y-15689557D01*
X13074499Y-15680033D01*
X13064975Y-15670509D01*
X13264975Y-15489557D02*
X13264975Y-15527652D01*
X13341166Y-15489557D02*
X13341166Y-15527652D01*
X13636404Y-15765747D02*
X13626880Y-15756224D01*
X13607832Y-15727652D01*
X13598309Y-15708605D01*
X13588785Y-15680033D01*
X13579261Y-15632414D01*
X13579261Y-15594319D01*
X13588785Y-15546700D01*
X13598309Y-15518128D01*
X13607832Y-15499081D01*
X13626880Y-15470509D01*
X13636404Y-15460985D01*
X13798309Y-15556224D02*
X13798309Y-15689557D01*
X13750690Y-15480033D02*
X13703071Y-15622890D01*
X13826880Y-15622890D01*
X14055451Y-15689557D02*
X14055451Y-15489557D01*
X14141166Y-15689557D02*
X14141166Y-15584795D01*
X14131642Y-15565747D01*
X14112594Y-15556224D01*
X14084023Y-15556224D01*
X14064975Y-15565747D01*
X14055451Y-15575271D01*
X14264975Y-15689557D02*
X14245928Y-15680033D01*
X14236404Y-15670509D01*
X14226880Y-15651462D01*
X14226880Y-15594319D01*
X14236404Y-15575271D01*
X14245928Y-15565747D01*
X14264975Y-15556224D01*
X14293547Y-15556224D01*
X14312594Y-15565747D01*
X14322118Y-15575271D01*
X14331642Y-15594319D01*
X14331642Y-15651462D01*
X14322118Y-15670509D01*
X14312594Y-15680033D01*
X14293547Y-15689557D01*
X14264975Y-15689557D01*
X14445928Y-15689557D02*
X14426880Y-15680033D01*
X14417356Y-15660985D01*
X14417356Y-15489557D01*
X14598309Y-15680033D02*
X14579261Y-15689557D01*
X14541166Y-15689557D01*
X14522118Y-15680033D01*
X14512594Y-15660985D01*
X14512594Y-15584795D01*
X14522118Y-15565747D01*
X14541166Y-15556224D01*
X14579261Y-15556224D01*
X14598309Y-15565747D01*
X14607832Y-15584795D01*
X14607832Y-15603843D01*
X14512594Y-15622890D01*
X14684023Y-15680033D02*
X14703071Y-15689557D01*
X14741166Y-15689557D01*
X14760213Y-15680033D01*
X14769737Y-15660985D01*
X14769737Y-15651462D01*
X14760213Y-15632414D01*
X14741166Y-15622890D01*
X14712594Y-15622890D01*
X14693547Y-15613366D01*
X14684023Y-15594319D01*
X14684023Y-15584795D01*
X14693547Y-15565747D01*
X14712594Y-15556224D01*
X14741166Y-15556224D01*
X14760213Y-15565747D01*
X14836404Y-15765747D02*
X14845928Y-15756224D01*
X14864975Y-15727652D01*
X14874499Y-15708605D01*
X14884023Y-15680033D01*
X14893547Y-15632414D01*
X14893547Y-15594319D01*
X14884023Y-15546700D01*
X14874499Y-15518128D01*
X14864975Y-15499081D01*
X14845928Y-15470509D01*
X14836404Y-15460985D01*
M02*
