%TF.GenerationSoftware,KiCad,Pcbnew,(6.0.9)*%
%TF.CreationDate,2023-01-04T16:14:09+08:00*%
%TF.ProjectId,CAWController,43415743-6f6e-4747-926f-6c6c65722e6b,rev?*%
%TF.SameCoordinates,Original*%
%TF.FileFunction,Drillmap*%
%TF.FilePolarity,Positive*%
%FSLAX45Y45*%
G04 Gerber Fmt 4.5, Leading zero omitted, Abs format (unit mm)*
G04 Created by KiCad (PCBNEW (6.0.9)) date 2023-01-04 16:14:09*
%MOMM*%
%LPD*%
G01*
G04 APERTURE LIST*
%ADD10C,0.200000*%
%ADD11C,0.100000*%
G04 APERTURE END LIST*
D10*
X16575000Y-13101081D02*
G75*
G03*
X16746000Y-12129000I0J501081D01*
G01*
D11*
X11020000Y-6100000D02*
X13200000Y-6100000D01*
D10*
X10404115Y-12130155D02*
G75*
G03*
X10575000Y-13101081I170885J-470425D01*
G01*
X10575000Y-6100500D02*
G75*
G03*
X10404000Y-7070581I0J-500112D01*
G01*
X13775000Y-6100000D02*
X16575000Y-6100500D01*
X11025000Y-5650000D02*
X13325000Y-5650000D01*
X13775000Y-6100000D02*
X13325000Y-5650000D01*
D11*
X13200000Y-6300000D02*
X11020000Y-6300000D01*
D10*
X10575000Y-13101081D02*
X16575000Y-13101081D01*
X11025000Y-5650000D02*
X10575000Y-6100500D01*
X10404115Y-12130157D02*
X10404000Y-7070581D01*
X16745779Y-7069398D02*
G75*
G03*
X16575000Y-6100500I-170779J469398D01*
G01*
D11*
X11020000Y-6300000D02*
X11020000Y-6100000D01*
D10*
X16745779Y-7069398D02*
X16746000Y-12129000D01*
D11*
X13200000Y-6100000D02*
X13200000Y-6300000D01*
D10*
X10322118Y-13421557D02*
X10322118Y-13221557D01*
X10369737Y-13221557D01*
X10398309Y-13231081D01*
X10417356Y-13250128D01*
X10426880Y-13269176D01*
X10436404Y-13307271D01*
X10436404Y-13335843D01*
X10426880Y-13373938D01*
X10417356Y-13392985D01*
X10398309Y-13412033D01*
X10369737Y-13421557D01*
X10322118Y-13421557D01*
X10522118Y-13421557D02*
X10522118Y-13288224D01*
X10522118Y-13326319D02*
X10531642Y-13307271D01*
X10541166Y-13297747D01*
X10560213Y-13288224D01*
X10579261Y-13288224D01*
X10645928Y-13421557D02*
X10645928Y-13288224D01*
X10645928Y-13221557D02*
X10636404Y-13231081D01*
X10645928Y-13240605D01*
X10655452Y-13231081D01*
X10645928Y-13221557D01*
X10645928Y-13240605D01*
X10769737Y-13421557D02*
X10750690Y-13412033D01*
X10741166Y-13392985D01*
X10741166Y-13221557D01*
X10874499Y-13421557D02*
X10855452Y-13412033D01*
X10845928Y-13392985D01*
X10845928Y-13221557D01*
X11103071Y-13421557D02*
X11103071Y-13221557D01*
X11169737Y-13364414D01*
X11236404Y-13221557D01*
X11236404Y-13421557D01*
X11417356Y-13421557D02*
X11417356Y-13316795D01*
X11407832Y-13297747D01*
X11388785Y-13288224D01*
X11350690Y-13288224D01*
X11331642Y-13297747D01*
X11417356Y-13412033D02*
X11398309Y-13421557D01*
X11350690Y-13421557D01*
X11331642Y-13412033D01*
X11322118Y-13392985D01*
X11322118Y-13373938D01*
X11331642Y-13354890D01*
X11350690Y-13345366D01*
X11398309Y-13345366D01*
X11417356Y-13335843D01*
X11512594Y-13288224D02*
X11512594Y-13488224D01*
X11512594Y-13297747D02*
X11531642Y-13288224D01*
X11569737Y-13288224D01*
X11588785Y-13297747D01*
X11598309Y-13307271D01*
X11607832Y-13326319D01*
X11607832Y-13383462D01*
X11598309Y-13402509D01*
X11588785Y-13412033D01*
X11569737Y-13421557D01*
X11531642Y-13421557D01*
X11512594Y-13412033D01*
X11693547Y-13402509D02*
X11703071Y-13412033D01*
X11693547Y-13421557D01*
X11684023Y-13412033D01*
X11693547Y-13402509D01*
X11693547Y-13421557D01*
X11693547Y-13297747D02*
X11703071Y-13307271D01*
X11693547Y-13316795D01*
X11684023Y-13307271D01*
X11693547Y-13297747D01*
X11693547Y-13316795D01*
M02*
