%TF.GenerationSoftware,KiCad,Pcbnew,(6.0.9)*%
%TF.CreationDate,2023-01-04T16:14:01+08:00*%
%TF.ProjectId,CAWController,43415743-6f6e-4747-926f-6c6c65722e6b,rev?*%
%TF.SameCoordinates,Original*%
%TF.FileFunction,Paste,Top*%
%TF.FilePolarity,Positive*%
%FSLAX46Y46*%
G04 Gerber Fmt 4.6, Leading zero omitted, Abs format (unit mm)*
G04 Created by KiCad (PCBNEW (6.0.9)) date 2023-01-04 16:14:01*
%MOMM*%
%LPD*%
G01*
G04 APERTURE LIST*
G04 Aperture macros list*
%AMRoundRect*
0 Rectangle with rounded corners*
0 $1 Rounding radius*
0 $2 $3 $4 $5 $6 $7 $8 $9 X,Y pos of 4 corners*
0 Add a 4 corners polygon primitive as box body*
4,1,4,$2,$3,$4,$5,$6,$7,$8,$9,$2,$3,0*
0 Add four circle primitives for the rounded corners*
1,1,$1+$1,$2,$3*
1,1,$1+$1,$4,$5*
1,1,$1+$1,$6,$7*
1,1,$1+$1,$8,$9*
0 Add four rect primitives between the rounded corners*
20,1,$1+$1,$2,$3,$4,$5,0*
20,1,$1+$1,$4,$5,$6,$7,0*
20,1,$1+$1,$6,$7,$8,$9,0*
20,1,$1+$1,$8,$9,$2,$3,0*%
%AMRotRect*
0 Rectangle, with rotation*
0 The origin of the aperture is its center*
0 $1 length*
0 $2 width*
0 $3 Rotation angle, in degrees counterclockwise*
0 Add horizontal line*
21,1,$1,$2,0,0,$3*%
G04 Aperture macros list end*
%ADD10RoundRect,0.237500X-0.237500X0.300000X-0.237500X-0.300000X0.237500X-0.300000X0.237500X0.300000X0*%
%ADD11RoundRect,0.237500X-0.237500X0.250000X-0.237500X-0.250000X0.237500X-0.250000X0.237500X0.250000X0*%
%ADD12RoundRect,0.237500X-0.237500X0.287500X-0.237500X-0.287500X0.237500X-0.287500X0.237500X0.287500X0*%
%ADD13RoundRect,0.237500X0.344715X-0.008839X-0.008839X0.344715X-0.344715X0.008839X0.008839X-0.344715X0*%
%ADD14RoundRect,0.237500X-0.250000X-0.237500X0.250000X-0.237500X0.250000X0.237500X-0.250000X0.237500X0*%
%ADD15R,1.400000X1.500000*%
%ADD16RoundRect,0.237500X0.237500X-0.287500X0.237500X0.287500X-0.237500X0.287500X-0.237500X-0.287500X0*%
%ADD17R,1.620000X1.785000*%
%ADD18RoundRect,0.237500X0.237500X-0.300000X0.237500X0.300000X-0.237500X0.300000X-0.237500X-0.300000X0*%
%ADD19RoundRect,0.237500X0.300000X0.237500X-0.300000X0.237500X-0.300000X-0.237500X0.300000X-0.237500X0*%
%ADD20RotRect,1.400000X1.200000X315.000000*%
%ADD21RoundRect,0.075000X-0.459619X-0.565685X0.565685X0.459619X0.459619X0.565685X-0.565685X-0.459619X0*%
%ADD22RoundRect,0.075000X0.459619X-0.565685X0.565685X-0.459619X-0.459619X0.565685X-0.565685X0.459619X0*%
%ADD23RoundRect,0.237500X0.237500X-0.250000X0.237500X0.250000X-0.237500X0.250000X-0.237500X-0.250000X0*%
%ADD24R,3.600000X2.340000*%
%ADD25R,1.100000X2.500000*%
%ADD26R,0.700000X1.250000*%
%ADD27RoundRect,0.050800X0.300000X0.750000X-0.300000X0.750000X-0.300000X-0.750000X0.300000X-0.750000X0*%
%ADD28RoundRect,0.050800X-1.400000X-1.200000X1.400000X-1.200000X1.400000X1.200000X-1.400000X1.200000X0*%
%ADD29RoundRect,0.237500X0.250000X0.237500X-0.250000X0.237500X-0.250000X-0.237500X0.250000X-0.237500X0*%
%ADD30RoundRect,0.237500X-0.044194X-0.380070X0.380070X0.044194X0.044194X0.380070X-0.380070X-0.044194X0*%
%ADD31RoundRect,0.237500X0.044194X0.380070X-0.380070X-0.044194X-0.044194X-0.380070X0.380070X0.044194X0*%
%ADD32O,1.250000X0.950000*%
%ADD33O,1.000000X1.550000*%
G04 APERTURE END LIST*
%TO.C,D2*%
G36*
X125195000Y-92799000D02*
G01*
X125195000Y-93251000D01*
X125295000Y-93351000D01*
X125645000Y-93351000D01*
X125745000Y-93251000D01*
X125745000Y-92799000D01*
X125845000Y-92699000D01*
X126180000Y-92699000D01*
X126280000Y-92799000D01*
X126280000Y-94429000D01*
X126180000Y-94529000D01*
X124760000Y-94529000D01*
X124660000Y-94429000D01*
X124660000Y-92799000D01*
X124760000Y-92699000D01*
X125095000Y-92699000D01*
X125195000Y-92799000D01*
G37*
G36*
X126280000Y-90159000D02*
G01*
X126280000Y-91789000D01*
X126180000Y-91889000D01*
X125845000Y-91889000D01*
X125745000Y-91789000D01*
X125745000Y-91337000D01*
X125645000Y-91237000D01*
X125295000Y-91237000D01*
X125195000Y-91337000D01*
X125195000Y-91789000D01*
X125095000Y-91889000D01*
X124760000Y-91889000D01*
X124660000Y-91789000D01*
X124660000Y-90159000D01*
X124760000Y-90059000D01*
X126180000Y-90059000D01*
X126280000Y-90159000D01*
G37*
%TD*%
D10*
%TO.C,C13*%
X149840000Y-72107500D03*
X149840000Y-73832500D03*
%TD*%
D11*
%TO.C,R8*%
X119700000Y-73555000D03*
X119700000Y-75380000D03*
%TD*%
%TO.C,R15*%
X142970000Y-85377500D03*
X142970000Y-87202500D03*
%TD*%
D12*
%TO.C,D3*%
X135460000Y-62667500D03*
X135460000Y-64417500D03*
%TD*%
D13*
%TO.C,R10*%
X128895235Y-116145235D03*
X127604765Y-114854765D03*
%TD*%
D14*
%TO.C,R5*%
X127787500Y-80470000D03*
X129612500Y-80470000D03*
%TD*%
D11*
%TO.C,R16*%
X137160000Y-62630000D03*
X137160000Y-64455000D03*
%TD*%
D15*
%TO.C,SW1*%
X141300000Y-127000000D03*
X133700000Y-127000000D03*
%TD*%
D16*
%TO.C,D1*%
X141780000Y-64422500D03*
X141780000Y-62672500D03*
%TD*%
D17*
%TO.C,D2*%
X125470000Y-90951000D03*
X125470000Y-93637000D03*
%TD*%
D18*
%TO.C,C3*%
X138230000Y-67792500D03*
X138230000Y-66067500D03*
%TD*%
D15*
%TO.C,SW3*%
X131260000Y-86250000D03*
X123660000Y-86250000D03*
%TD*%
D19*
%TO.C,C4*%
X134682500Y-73220000D03*
X132957500Y-73220000D03*
%TD*%
D20*
%TO.C,Y2*%
X125853464Y-118340901D03*
X127409099Y-119896536D03*
X128646536Y-118659099D03*
X127090901Y-117103464D03*
%TD*%
D21*
%TO.C,U1*%
X127830315Y-109434404D03*
X128183868Y-109787957D03*
X128537422Y-110141511D03*
X128890975Y-110495064D03*
X129244528Y-110848617D03*
X129598082Y-111202171D03*
X129951635Y-111555724D03*
X130305189Y-111909278D03*
X130658742Y-112262831D03*
X131012295Y-112616384D03*
X131365849Y-112969938D03*
X131719402Y-113323491D03*
X132072955Y-113677045D03*
X132426509Y-114030598D03*
X132780062Y-114384151D03*
X133133616Y-114737705D03*
X133487169Y-115091258D03*
X133840722Y-115444811D03*
X134194276Y-115798365D03*
X134547829Y-116151918D03*
X134901383Y-116505472D03*
X135254936Y-116859025D03*
X135608489Y-117212578D03*
X135962043Y-117566132D03*
X136315596Y-117919685D03*
D22*
X138684404Y-117919685D03*
X139037957Y-117566132D03*
X139391511Y-117212578D03*
X139745064Y-116859025D03*
X140098617Y-116505472D03*
X140452171Y-116151918D03*
X140805724Y-115798365D03*
X141159278Y-115444811D03*
X141512831Y-115091258D03*
X141866384Y-114737705D03*
X142219938Y-114384151D03*
X142573491Y-114030598D03*
X142927045Y-113677045D03*
X143280598Y-113323491D03*
X143634151Y-112969938D03*
X143987705Y-112616384D03*
X144341258Y-112262831D03*
X144694811Y-111909278D03*
X145048365Y-111555724D03*
X145401918Y-111202171D03*
X145755472Y-110848617D03*
X146109025Y-110495064D03*
X146462578Y-110141511D03*
X146816132Y-109787957D03*
X147169685Y-109434404D03*
D21*
X147169685Y-107065596D03*
X146816132Y-106712043D03*
X146462578Y-106358489D03*
X146109025Y-106004936D03*
X145755472Y-105651383D03*
X145401918Y-105297829D03*
X145048365Y-104944276D03*
X144694811Y-104590722D03*
X144341258Y-104237169D03*
X143987705Y-103883616D03*
X143634151Y-103530062D03*
X143280598Y-103176509D03*
X142927045Y-102822955D03*
X142573491Y-102469402D03*
X142219938Y-102115849D03*
X141866384Y-101762295D03*
X141512831Y-101408742D03*
X141159278Y-101055189D03*
X140805724Y-100701635D03*
X140452171Y-100348082D03*
X140098617Y-99994528D03*
X139745064Y-99640975D03*
X139391511Y-99287422D03*
X139037957Y-98933868D03*
X138684404Y-98580315D03*
D22*
X136315596Y-98580315D03*
X135962043Y-98933868D03*
X135608489Y-99287422D03*
X135254936Y-99640975D03*
X134901383Y-99994528D03*
X134547829Y-100348082D03*
X134194276Y-100701635D03*
X133840722Y-101055189D03*
X133487169Y-101408742D03*
X133133616Y-101762295D03*
X132780062Y-102115849D03*
X132426509Y-102469402D03*
X132072955Y-102822955D03*
X131719402Y-103176509D03*
X131365849Y-103530062D03*
X131012295Y-103883616D03*
X130658742Y-104237169D03*
X130305189Y-104590722D03*
X129951635Y-104944276D03*
X129598082Y-105297829D03*
X129244528Y-105651383D03*
X128890975Y-106004936D03*
X128537422Y-106358489D03*
X128183868Y-106712043D03*
X127830315Y-107065596D03*
%TD*%
D13*
%TO.C,R11*%
X131395235Y-118645235D03*
X130104765Y-117354765D03*
%TD*%
D10*
%TO.C,C10*%
X151570000Y-72107500D03*
X151570000Y-73832500D03*
%TD*%
D23*
%TO.C,R6*%
X127000000Y-76912500D03*
X127000000Y-75087500D03*
%TD*%
%TO.C,R2*%
X140046250Y-64455000D03*
X140046250Y-62630000D03*
%TD*%
D24*
%TO.C,U2*%
X132420000Y-64890000D03*
D25*
X130120000Y-70830000D03*
X132420000Y-70830000D03*
X134720000Y-70830000D03*
%TD*%
D23*
%TO.C,R7*%
X121840000Y-75372500D03*
X121840000Y-73547500D03*
%TD*%
D10*
%TO.C,C9*%
X153260000Y-72107500D03*
X153260000Y-73832500D03*
%TD*%
D26*
%TO.C,Q2*%
X128680000Y-78860000D03*
X130580000Y-78860000D03*
X129630000Y-76860000D03*
%TD*%
D27*
%TO.C,U3*%
X148170000Y-68340100D03*
X147170000Y-68340100D03*
X146170000Y-68340100D03*
X145170000Y-68340100D03*
X144170000Y-68340100D03*
X144170000Y-73839900D03*
X145170000Y-73839900D03*
X146170000Y-73839900D03*
X147170000Y-73839900D03*
X148170000Y-73839900D03*
D28*
X146170000Y-71089900D03*
%TD*%
D14*
%TO.C,R4*%
X128817500Y-83340000D03*
X130642500Y-83340000D03*
%TD*%
D29*
%TO.C,R3*%
X129392500Y-94030000D03*
X127567500Y-94030000D03*
%TD*%
D30*
%TO.C,C19*%
X124640120Y-116859880D03*
X125859880Y-115640120D03*
%TD*%
D26*
%TO.C,Q1*%
X126310000Y-81307500D03*
X124410000Y-81307500D03*
X125360000Y-83307500D03*
%TD*%
D31*
%TO.C,C22*%
X130109880Y-119890120D03*
X128890120Y-121109880D03*
%TD*%
D32*
%TO.C,J5*%
X150500000Y-65600000D03*
D33*
X144500000Y-62900000D03*
D32*
X145500000Y-65600000D03*
D33*
X151500000Y-62900000D03*
%TD*%
M02*
