%TF.GenerationSoftware,KiCad,Pcbnew,(6.0.9)*%
%TF.CreationDate,2023-01-04T16:14:01+08:00*%
%TF.ProjectId,CAWController,43415743-6f6e-4747-926f-6c6c65722e6b,rev?*%
%TF.SameCoordinates,Original*%
%TF.FileFunction,Legend,Bot*%
%TF.FilePolarity,Positive*%
%FSLAX46Y46*%
G04 Gerber Fmt 4.6, Leading zero omitted, Abs format (unit mm)*
G04 Created by KiCad (PCBNEW (6.0.9)) date 2023-01-04 16:14:01*
%MOMM*%
%LPD*%
G01*
G04 APERTURE LIST*
%ADD10C,0.150000*%
%ADD11C,0.120000*%
%ADD12C,0.254000*%
%ADD13C,0.152000*%
%ADD14C,0.076000*%
%ADD15C,0.152400*%
G04 APERTURE END LIST*
D10*
X123723808Y-85452000D02*
X123799999Y-85413904D01*
X123914285Y-85413904D01*
X124028570Y-85452000D01*
X124104761Y-85528190D01*
X124142856Y-85604380D01*
X124180951Y-85756761D01*
X124180951Y-85871047D01*
X124142856Y-86023428D01*
X124104761Y-86099619D01*
X124028570Y-86175809D01*
X123914285Y-86213904D01*
X123838094Y-86213904D01*
X123723808Y-86175809D01*
X123685713Y-86137714D01*
X123685713Y-85871047D01*
X123838094Y-85871047D01*
X123342856Y-86213904D02*
X123342856Y-85413904D01*
X122885713Y-86213904D01*
X122885713Y-85413904D01*
X122504761Y-86213904D02*
X122504761Y-85413904D01*
X122314285Y-85413904D01*
X122199999Y-85452000D01*
X122123808Y-85528190D01*
X122085713Y-85604380D01*
X122047618Y-85756761D01*
X122047618Y-85871047D01*
X122085713Y-86023428D01*
X122123808Y-86099619D01*
X122199999Y-86175809D01*
X122314285Y-86213904D01*
X122504761Y-86213904D01*
X125666666Y-83635809D02*
X125552381Y-83673904D01*
X125361904Y-83673904D01*
X125285714Y-83635809D01*
X125247619Y-83597714D01*
X125209523Y-83521523D01*
X125209523Y-83445333D01*
X125247619Y-83369142D01*
X125285714Y-83331047D01*
X125361904Y-83292952D01*
X125514285Y-83254857D01*
X125590476Y-83216761D01*
X125628571Y-83178666D01*
X125666666Y-83102476D01*
X125666666Y-83026285D01*
X125628571Y-82950095D01*
X125590476Y-82912000D01*
X125514285Y-82873904D01*
X125323809Y-82873904D01*
X125209523Y-82912000D01*
X124942857Y-82873904D02*
X124752381Y-83673904D01*
X124600000Y-83102476D01*
X124447619Y-83673904D01*
X124257143Y-82873904D01*
X123495238Y-83597714D02*
X123533333Y-83635809D01*
X123647619Y-83673904D01*
X123723809Y-83673904D01*
X123838095Y-83635809D01*
X123914285Y-83559619D01*
X123952381Y-83483428D01*
X123990476Y-83331047D01*
X123990476Y-83216761D01*
X123952381Y-83064380D01*
X123914285Y-82988190D01*
X123838095Y-82912000D01*
X123723809Y-82873904D01*
X123647619Y-82873904D01*
X123533333Y-82912000D01*
X123495238Y-82950095D01*
X122771428Y-83673904D02*
X123152381Y-83673904D01*
X123152381Y-82873904D01*
X122504762Y-83673904D02*
X122504762Y-82873904D01*
X122047619Y-83673904D02*
X122390476Y-83216761D01*
X122047619Y-82873904D02*
X122504762Y-83331047D01*
X125438095Y-81095809D02*
X125323809Y-81133904D01*
X125133333Y-81133904D01*
X125057142Y-81095809D01*
X125019047Y-81057714D01*
X124980952Y-80981523D01*
X124980952Y-80905333D01*
X125019047Y-80829142D01*
X125057142Y-80791047D01*
X125133333Y-80752952D01*
X125285714Y-80714857D01*
X125361904Y-80676761D01*
X125399999Y-80638666D01*
X125438095Y-80562476D01*
X125438095Y-80486285D01*
X125399999Y-80410095D01*
X125361904Y-80372000D01*
X125285714Y-80333904D01*
X125095237Y-80333904D01*
X124980952Y-80372000D01*
X124714285Y-80333904D02*
X124523809Y-81133904D01*
X124371428Y-80562476D01*
X124219047Y-81133904D01*
X124028571Y-80333904D01*
X123723809Y-81133904D02*
X123723809Y-80333904D01*
X123533333Y-80333904D01*
X123419047Y-80372000D01*
X123342857Y-80448190D01*
X123304761Y-80524380D01*
X123266666Y-80676761D01*
X123266666Y-80791047D01*
X123304761Y-80943428D01*
X123342857Y-81019619D01*
X123419047Y-81095809D01*
X123533333Y-81133904D01*
X123723809Y-81133904D01*
X122923809Y-81133904D02*
X122923809Y-80333904D01*
X122390476Y-80333904D02*
X122238095Y-80333904D01*
X122161904Y-80372000D01*
X122085714Y-80448190D01*
X122047618Y-80600571D01*
X122047618Y-80867238D01*
X122085714Y-81019619D01*
X122161904Y-81095809D01*
X122238095Y-81133904D01*
X122390476Y-81133904D01*
X122466666Y-81095809D01*
X122542857Y-81019619D01*
X122580952Y-80867238D01*
X122580952Y-80600571D01*
X122542857Y-80448190D01*
X122466666Y-80372000D01*
X122390476Y-80333904D01*
X123990476Y-77793904D02*
X123495238Y-77793904D01*
X123761904Y-78098666D01*
X123647619Y-78098666D01*
X123571428Y-78136761D01*
X123533333Y-78174857D01*
X123495238Y-78251047D01*
X123495238Y-78441523D01*
X123533333Y-78517714D01*
X123571428Y-78555809D01*
X123647619Y-78593904D01*
X123876190Y-78593904D01*
X123952380Y-78555809D01*
X123990476Y-78517714D01*
X123266666Y-77793904D02*
X123000000Y-78593904D01*
X122733333Y-77793904D01*
X122542857Y-77793904D02*
X122047619Y-77793904D01*
X122314285Y-78098666D01*
X122200000Y-78098666D01*
X122123809Y-78136761D01*
X122085714Y-78174857D01*
X122047619Y-78251047D01*
X122047619Y-78441523D01*
X122085714Y-78517714D01*
X122123809Y-78555809D01*
X122200000Y-78593904D01*
X122428571Y-78593904D01*
X122504761Y-78555809D01*
X122542857Y-78517714D01*
%TO.C,kibuzzard-639AC91A*%
G36*
X125116075Y-126974625D02*
G01*
X125319275Y-127333400D01*
X124519175Y-127333400D01*
X124277875Y-127130200D01*
X124389000Y-126895250D01*
X124706500Y-126806350D01*
X125116075Y-126974625D01*
G37*
G36*
X133142475Y-127073050D02*
G01*
X133290112Y-127269106D01*
X133339325Y-127539775D01*
X133288525Y-127809650D01*
X133136125Y-128003325D01*
X132723375Y-128158900D01*
X132304275Y-128000150D01*
X132147112Y-127803300D01*
X132094725Y-127530250D01*
X132143937Y-127258787D01*
X132291575Y-127066700D01*
X132717025Y-126914300D01*
X133142475Y-127073050D01*
G37*
G36*
X146553675Y-127073050D02*
G01*
X146701312Y-127269106D01*
X146750525Y-127539775D01*
X146699725Y-127809650D01*
X146547325Y-128003325D01*
X146134575Y-128158900D01*
X145715475Y-128000150D01*
X145558312Y-127803300D01*
X145505925Y-127530250D01*
X145555137Y-127258787D01*
X145702775Y-127066700D01*
X146128225Y-126914300D01*
X146553675Y-127073050D01*
G37*
G36*
X118516061Y-130606399D02*
G01*
X118144774Y-130551324D01*
X117780673Y-130460121D01*
X117427264Y-130333670D01*
X117087952Y-130173187D01*
X116766004Y-129980219D01*
X116464520Y-129756623D01*
X116186405Y-129504554D01*
X115934335Y-129226438D01*
X115710740Y-128924954D01*
X115517771Y-128603006D01*
X115357288Y-128263694D01*
X115230837Y-127910286D01*
X115139634Y-127546185D01*
X115084559Y-127174898D01*
X115066142Y-126800000D01*
X115084559Y-126425102D01*
X115097709Y-126336450D01*
X120213875Y-126336450D01*
X120334525Y-126780950D01*
X120683775Y-127022250D01*
X120902850Y-126971450D01*
X121179075Y-126920650D01*
X121499750Y-127041300D01*
X121648975Y-127333400D01*
X121648975Y-128666900D01*
X121658500Y-128885975D01*
X121718825Y-129054250D01*
X121890275Y-129178075D01*
X122214125Y-129219350D01*
X122652275Y-129111400D01*
X122766575Y-128838350D01*
X122766575Y-127146075D01*
X123179325Y-127146075D01*
X123227744Y-127485800D01*
X123373000Y-127723925D01*
X123801625Y-127911250D01*
X125306575Y-127911250D01*
X125097025Y-128209700D01*
X124677925Y-128330350D01*
X124349312Y-128311300D01*
X124100075Y-128254150D01*
X124030225Y-128228750D01*
X123776225Y-128158900D01*
X123426975Y-128444650D01*
X123344425Y-128736750D01*
X123428959Y-128984003D01*
X123682562Y-129160613D01*
X124105234Y-129266578D01*
X124696975Y-129301900D01*
X125140681Y-129261419D01*
X125532000Y-129139975D01*
X125856644Y-128951856D01*
X126100325Y-128711350D01*
X126128051Y-128666900D01*
X126754375Y-128666900D01*
X126786125Y-128989162D01*
X126881375Y-129155850D01*
X127160775Y-129222525D01*
X127668775Y-129193950D01*
X128072000Y-129081238D01*
X128303775Y-128870100D01*
X128370975Y-128666900D01*
X128830825Y-128666900D01*
X128862575Y-128989162D01*
X128957825Y-129155850D01*
X129237225Y-129222525D01*
X129745225Y-129193950D01*
X130148450Y-129081238D01*
X130380225Y-128870100D01*
X130513575Y-128466875D01*
X130558025Y-127879500D01*
X130558025Y-127542950D01*
X130970775Y-127542950D01*
X131039037Y-128040631D01*
X131243825Y-128479575D01*
X131546244Y-128835175D01*
X131907400Y-129082825D01*
X132305069Y-129228081D01*
X132717025Y-129276500D01*
X133129775Y-129224906D01*
X133529825Y-129070125D01*
X133892569Y-128814537D01*
X134193400Y-128460525D01*
X134395806Y-128031106D01*
X134463275Y-127549300D01*
X134404008Y-127070933D01*
X134226208Y-126651833D01*
X133966481Y-126336450D01*
X134717275Y-126336450D01*
X134837925Y-126780950D01*
X135187175Y-127022250D01*
X135406250Y-126971450D01*
X135682475Y-126920650D01*
X136003150Y-127041300D01*
X136152375Y-127333400D01*
X136152375Y-128666900D01*
X136161900Y-128885975D01*
X136222225Y-129054250D01*
X136393675Y-129178075D01*
X136717525Y-129219350D01*
X137155675Y-129111400D01*
X137269975Y-128838350D01*
X137269975Y-126444400D01*
X137619225Y-126444400D01*
X137662087Y-126766663D01*
X137790675Y-126933350D01*
X137958950Y-126987325D01*
X138178025Y-126996850D01*
X138590775Y-126971450D01*
X138590775Y-127847750D01*
X138536800Y-128095400D01*
X138333600Y-128171600D01*
X138105000Y-128181125D01*
X137936725Y-128241450D01*
X137790675Y-128666900D01*
X137835125Y-128989162D01*
X137968475Y-129155850D01*
X138136750Y-129209825D01*
X138349475Y-129219350D01*
X138754464Y-129186189D01*
X139088897Y-129086706D01*
X139352775Y-128920900D01*
X139543275Y-128676072D01*
X139548547Y-128660550D01*
X140629125Y-128660550D01*
X140638650Y-128879625D01*
X140692625Y-129041550D01*
X140860900Y-129170138D01*
X141187925Y-129213000D01*
X141543525Y-129154262D01*
X141708625Y-128978050D01*
X141746725Y-128654200D01*
X141746725Y-127536600D01*
X141895950Y-127130200D01*
X142296000Y-126984150D01*
X142702400Y-127136550D01*
X142857975Y-127536600D01*
X142857975Y-128660550D01*
X142867500Y-128879625D01*
X142927825Y-129041550D01*
X143091337Y-129170138D01*
X143416775Y-129213000D01*
X143739037Y-129170138D01*
X143905725Y-129041550D01*
X143959700Y-128873275D01*
X143969225Y-128654200D01*
X143969225Y-127542950D01*
X144381975Y-127542950D01*
X144450237Y-128040631D01*
X144655025Y-128479575D01*
X144957444Y-128835175D01*
X145318600Y-129082825D01*
X145716269Y-129228081D01*
X146128225Y-129276500D01*
X146540975Y-129224906D01*
X146941025Y-129070125D01*
X147303769Y-128814537D01*
X147604600Y-128460525D01*
X147807006Y-128031106D01*
X147874475Y-127549300D01*
X147815208Y-127070933D01*
X147637408Y-126651833D01*
X147341075Y-126292000D01*
X146968542Y-126016833D01*
X146562142Y-125851733D01*
X146121875Y-125796700D01*
X145682314Y-125851381D01*
X145278031Y-126015422D01*
X144909025Y-126288825D01*
X144616219Y-126646894D01*
X144440536Y-127064936D01*
X144381975Y-127542950D01*
X143969225Y-127542950D01*
X143969225Y-126406300D01*
X143959700Y-126193575D01*
X143899375Y-126031650D01*
X143732687Y-125912588D01*
X143410425Y-125872900D01*
X143097687Y-125909412D01*
X142934175Y-126018950D01*
X142870675Y-126279300D01*
X142756375Y-126152300D01*
X142584925Y-126018950D01*
X142108675Y-125872900D01*
X141708978Y-125926875D01*
X141356553Y-126088800D01*
X141051400Y-126358675D01*
X140816803Y-126706161D01*
X140676044Y-127100919D01*
X140629125Y-127542950D01*
X140629125Y-128660550D01*
X139548547Y-128660550D01*
X139657575Y-128339522D01*
X139695675Y-127911250D01*
X139695675Y-126971450D01*
X139956025Y-126990500D01*
X140187800Y-126882550D01*
X140279875Y-126514250D01*
X140248125Y-126136425D01*
X140159225Y-125968150D01*
X139905225Y-125885600D01*
X139695675Y-125911000D01*
X139695675Y-125304575D01*
X148191975Y-125304575D01*
X148325325Y-125657000D01*
X148560275Y-125914175D01*
X148769825Y-125999900D01*
X149093675Y-125860200D01*
X149404825Y-125698275D01*
X149804875Y-125644300D01*
X150214450Y-125715737D01*
X150617675Y-125930050D01*
X150935175Y-126323750D01*
X151030425Y-126594419D01*
X151062175Y-126898425D01*
X151030425Y-127202431D01*
X150935175Y-127473100D01*
X150611325Y-127873150D01*
X150216037Y-128082700D01*
X149804875Y-128152550D01*
X149433400Y-128101750D01*
X149182575Y-128000150D01*
X149068275Y-127917600D01*
X148763475Y-127790600D01*
X148558687Y-127879500D01*
X148338025Y-128146200D01*
X148198325Y-128501800D01*
X148284050Y-128724050D01*
X148484075Y-128882800D01*
X148703150Y-129016150D01*
X149131775Y-129181250D01*
X149450069Y-129257450D01*
X149757250Y-129282850D01*
X150060462Y-129263006D01*
X150366850Y-129203475D01*
X150679587Y-129097113D01*
X151001850Y-128936775D01*
X151312206Y-128728813D01*
X151589225Y-128479575D01*
X151826556Y-128171600D01*
X152017850Y-127787425D01*
X152144056Y-127346894D01*
X152186125Y-126869850D01*
X152144850Y-126397569D01*
X152021025Y-125971325D01*
X151832906Y-125603025D01*
X151598750Y-125304575D01*
X151323319Y-125062481D01*
X151011375Y-124863250D01*
X150595803Y-124672750D01*
X150178819Y-124558450D01*
X149760425Y-124520350D01*
X149459594Y-124543369D01*
X149154000Y-124612425D01*
X148687275Y-124799750D01*
X148534875Y-124888650D01*
X148357075Y-125002950D01*
X148191975Y-125304575D01*
X139695675Y-125304575D01*
X139695675Y-125256950D01*
X139686150Y-125041050D01*
X139625825Y-124888650D01*
X139462312Y-124769587D01*
X139136875Y-124729900D01*
X138792387Y-124788637D01*
X138622525Y-124964850D01*
X138590775Y-125288700D01*
X138590775Y-125911000D01*
X138168500Y-125885600D01*
X137952600Y-125895125D01*
X137784325Y-125955450D01*
X137660500Y-126118962D01*
X137619225Y-126444400D01*
X137269975Y-126444400D01*
X137269975Y-126425350D01*
X137260450Y-126206275D01*
X137206475Y-126044350D01*
X137038200Y-125915762D01*
X136711175Y-125872900D01*
X136401612Y-125909412D01*
X136234925Y-126018950D01*
X136165075Y-126228500D01*
X136073000Y-126120550D01*
X135815825Y-125949100D01*
X135469750Y-125841150D01*
X135218925Y-125857025D01*
X134996675Y-125911000D01*
X134796650Y-126041175D01*
X134717275Y-126336450D01*
X133966481Y-126336450D01*
X133929875Y-126292000D01*
X133557342Y-126016833D01*
X133150942Y-125851733D01*
X132710675Y-125796700D01*
X132271114Y-125851381D01*
X131866831Y-126015422D01*
X131497825Y-126288825D01*
X131205019Y-126646894D01*
X131029336Y-127064936D01*
X130970775Y-127542950D01*
X130558025Y-127542950D01*
X130558025Y-124856900D01*
X130548500Y-124637825D01*
X130494525Y-124469550D01*
X130326250Y-124340962D01*
X129999225Y-124298100D01*
X129684900Y-124340962D01*
X129516625Y-124469550D01*
X129456300Y-124641000D01*
X129446775Y-124863250D01*
X129446775Y-127803300D01*
X129408675Y-128092225D01*
X129240400Y-128152550D01*
X129065775Y-128162075D01*
X128957825Y-128216050D01*
X128830825Y-128666900D01*
X128370975Y-128666900D01*
X128437125Y-128466875D01*
X128481575Y-127879500D01*
X128481575Y-124856900D01*
X128472050Y-124637825D01*
X128418075Y-124469550D01*
X128249800Y-124340962D01*
X127922775Y-124298100D01*
X127608450Y-124340962D01*
X127440175Y-124469550D01*
X127379850Y-124641000D01*
X127370325Y-124863250D01*
X127370325Y-127803300D01*
X127332225Y-128092225D01*
X127163950Y-128152550D01*
X126989325Y-128162075D01*
X126881375Y-128216050D01*
X126754375Y-128666900D01*
X126128051Y-128666900D01*
X126322575Y-128355044D01*
X126455925Y-127971928D01*
X126500375Y-127562000D01*
X126442872Y-127064231D01*
X126270364Y-126637722D01*
X125982850Y-126282475D01*
X125609258Y-126016128D01*
X125178517Y-125856319D01*
X124690625Y-125803050D01*
X124278669Y-125841944D01*
X123925450Y-125958625D01*
X123630969Y-126153094D01*
X123395225Y-126425350D01*
X123233300Y-126770631D01*
X123179325Y-127146075D01*
X122766575Y-127146075D01*
X122766575Y-126425350D01*
X122757050Y-126206275D01*
X122703075Y-126044350D01*
X122534800Y-125915762D01*
X122207775Y-125872900D01*
X121898212Y-125909412D01*
X121731525Y-126018950D01*
X121661675Y-126228500D01*
X121569600Y-126120550D01*
X121312425Y-125949100D01*
X120966350Y-125841150D01*
X120715525Y-125857025D01*
X120493275Y-125911000D01*
X120293250Y-126041175D01*
X120213875Y-126336450D01*
X115097709Y-126336450D01*
X115139634Y-126053815D01*
X115230837Y-125689714D01*
X115357288Y-125336306D01*
X115517771Y-124996994D01*
X115710740Y-124675046D01*
X115934335Y-124373562D01*
X116186405Y-124095446D01*
X116464520Y-123843377D01*
X116766004Y-123619781D01*
X117087952Y-123426813D01*
X117427264Y-123266330D01*
X117780673Y-123139879D01*
X118144774Y-123048676D01*
X118516061Y-122993601D01*
X118890958Y-122975183D01*
X153509042Y-122975183D01*
X153883939Y-122993601D01*
X154255226Y-123048676D01*
X154619327Y-123139879D01*
X154972736Y-123266330D01*
X155312048Y-123426813D01*
X155633996Y-123619781D01*
X155935480Y-123843377D01*
X156213595Y-124095446D01*
X156465665Y-124373562D01*
X156689260Y-124675046D01*
X156882229Y-124996994D01*
X157042712Y-125336306D01*
X157169163Y-125689714D01*
X157260366Y-126053815D01*
X157315441Y-126425102D01*
X157333858Y-126800000D01*
X157315441Y-127174898D01*
X157260366Y-127546185D01*
X157169163Y-127910286D01*
X157042712Y-128263694D01*
X156882229Y-128603006D01*
X156689260Y-128924954D01*
X156465665Y-129226438D01*
X156213595Y-129504554D01*
X155935480Y-129756623D01*
X155633996Y-129980219D01*
X155312048Y-130173187D01*
X154972736Y-130333670D01*
X154619327Y-130460121D01*
X154255226Y-130551324D01*
X153883939Y-130606399D01*
X153509042Y-130624817D01*
X118890958Y-130624817D01*
X118516061Y-130606399D01*
G37*
%TO.C,kibuzzard-639AF8C4*%
G36*
X149908750Y-109720650D02*
G01*
X149997650Y-109920675D01*
X149908750Y-110123875D01*
X149715075Y-110201662D01*
X149526162Y-110119112D01*
X149442025Y-109919087D01*
X149527750Y-109723825D01*
X149716662Y-109646037D01*
X149908750Y-109720650D01*
G37*
G36*
X149926213Y-104578737D02*
G01*
X150013525Y-104775587D01*
X149927800Y-104975612D01*
X149738888Y-105051812D01*
X149553150Y-104970850D01*
X149470600Y-104774000D01*
X149554738Y-104581912D01*
X149738888Y-104505712D01*
X149926213Y-104578737D01*
G37*
G36*
X149908750Y-100776675D02*
G01*
X149997650Y-100976700D01*
X149908750Y-101179900D01*
X149715075Y-101257687D01*
X149526162Y-101175137D01*
X149442025Y-100975112D01*
X149527750Y-100779850D01*
X149716662Y-100702062D01*
X149908750Y-100776675D01*
G37*
G36*
X149860331Y-94687819D02*
G01*
X149956375Y-94761637D01*
X150032575Y-94974362D01*
X149953200Y-95187087D01*
X149855172Y-95260906D01*
X149719837Y-95285512D01*
X149584900Y-95260112D01*
X149488062Y-95183912D01*
X149410275Y-94977537D01*
X149489650Y-94767987D01*
X149588075Y-94689406D01*
X149724600Y-94663212D01*
X149860331Y-94687819D01*
G37*
G36*
X147508711Y-93219031D02*
G01*
X147541141Y-93000410D01*
X147594843Y-92786019D01*
X147669300Y-92577925D01*
X147763796Y-92378131D01*
X147877420Y-92188561D01*
X148009078Y-92011041D01*
X148157501Y-91847280D01*
X148321262Y-91698857D01*
X148498782Y-91567199D01*
X148688352Y-91453575D01*
X148888146Y-91359079D01*
X149096240Y-91284622D01*
X149310631Y-91230920D01*
X149529252Y-91198491D01*
X149750000Y-91187646D01*
X149970748Y-91198491D01*
X150189369Y-91230920D01*
X150403760Y-91284622D01*
X150611854Y-91359079D01*
X150811648Y-91453575D01*
X151001218Y-91567199D01*
X151178738Y-91698857D01*
X151342499Y-91847280D01*
X151490922Y-92011041D01*
X151622580Y-92188561D01*
X151736204Y-92378131D01*
X151830700Y-92577925D01*
X151905157Y-92786019D01*
X151958859Y-93000410D01*
X151991289Y-93219031D01*
X152002133Y-93439779D01*
X152002133Y-113060221D01*
X151991289Y-113280968D01*
X151958859Y-113499590D01*
X151905157Y-113713980D01*
X151830700Y-113922075D01*
X151736204Y-114121869D01*
X151622580Y-114311439D01*
X151490923Y-114488959D01*
X151342499Y-114652719D01*
X151178738Y-114801143D01*
X151001218Y-114932801D01*
X150811648Y-115046425D01*
X150611854Y-115140921D01*
X150403760Y-115215378D01*
X150189369Y-115269080D01*
X149970748Y-115301509D01*
X149750000Y-115312354D01*
X149529252Y-115301509D01*
X149310631Y-115269080D01*
X149096240Y-115215378D01*
X148888146Y-115140921D01*
X148688352Y-115046425D01*
X148498782Y-114932801D01*
X148321262Y-114801143D01*
X148157501Y-114652719D01*
X148009077Y-114488959D01*
X147877420Y-114311439D01*
X147763796Y-114121869D01*
X147669300Y-113922075D01*
X147594843Y-113713980D01*
X147541141Y-113499590D01*
X147508711Y-113280968D01*
X147497867Y-113060221D01*
X147497867Y-111535162D01*
X148864175Y-111535162D01*
X148887811Y-111729543D01*
X148958719Y-111918985D01*
X149076900Y-112103487D01*
X149195566Y-112221756D01*
X149348362Y-112316212D01*
X149526956Y-112378125D01*
X149723012Y-112398762D01*
X149918275Y-112378125D01*
X150094487Y-112316212D01*
X150244903Y-112221756D01*
X150362775Y-112103487D01*
X150479192Y-111923923D01*
X150549042Y-111736598D01*
X150572325Y-111541512D01*
X150538988Y-111306562D01*
X150473900Y-111138287D01*
X150442150Y-111087487D01*
X150381825Y-110998587D01*
X150237362Y-110916037D01*
X150054800Y-110982712D01*
X149923831Y-111094631D01*
X149880175Y-111201787D01*
X149950025Y-111373237D01*
X150004000Y-111536750D01*
X149927800Y-111735187D01*
X149716662Y-111827262D01*
X149507113Y-111738362D01*
X149432500Y-111549450D01*
X149491238Y-111362125D01*
X149549975Y-111220837D01*
X149507906Y-111115269D01*
X149381700Y-110989062D01*
X149216600Y-110916037D01*
X149099919Y-110959694D01*
X148991175Y-111090662D01*
X148895925Y-111292275D01*
X148864175Y-111535162D01*
X147497867Y-111535162D01*
X147497867Y-109320600D01*
X148886400Y-109320600D01*
X148929262Y-109552375D01*
X149054675Y-109620637D01*
X148928469Y-109777403D01*
X148886400Y-110012750D01*
X148914269Y-110191432D01*
X148997878Y-110361294D01*
X149137225Y-110522337D01*
X149313437Y-110652865D01*
X149507642Y-110731182D01*
X149719837Y-110757287D01*
X149931857Y-110731005D01*
X150125532Y-110652160D01*
X150300862Y-110520750D01*
X150439328Y-110357943D01*
X150522407Y-110184905D01*
X150550100Y-110001637D01*
X150512000Y-109804787D01*
X150440562Y-109680962D01*
X150375475Y-109623812D01*
X150508825Y-109551581D01*
X150553275Y-109372987D01*
X150534225Y-109188837D01*
X150467550Y-109104700D01*
X150383413Y-109076125D01*
X150273875Y-109071362D01*
X149162625Y-109071362D01*
X149053087Y-109076125D01*
X148968950Y-109103112D01*
X148907037Y-109179709D01*
X148886400Y-109320600D01*
X147497867Y-109320600D01*
X147497867Y-107239387D01*
X148870525Y-107239387D01*
X148926087Y-107380675D01*
X149038800Y-107471162D01*
X149092775Y-107496562D01*
X149176031Y-107528665D01*
X149341131Y-107591107D01*
X149588075Y-107683887D01*
X149487666Y-107723178D01*
X149338837Y-107777550D01*
X149122937Y-107856925D01*
X149065787Y-107879150D01*
X149013400Y-107906137D01*
X148946725Y-107956937D01*
X148870525Y-108131562D01*
X148926087Y-108296662D01*
X149038800Y-108385562D01*
X150207200Y-108864987D01*
X150331025Y-108896737D01*
X150444531Y-108851494D01*
X150531050Y-108715762D01*
X150572325Y-108550662D01*
X150545338Y-108447475D01*
X150491362Y-108391912D01*
X150435800Y-108366512D01*
X150313033Y-108317476D01*
X150114067Y-108242335D01*
X149838900Y-108141087D01*
X150353250Y-107953762D01*
X150464375Y-107883912D01*
X150556450Y-107696587D01*
X150505650Y-107533075D01*
X150404050Y-107439412D01*
X150350075Y-107414012D01*
X150096075Y-107322643D01*
X149926742Y-107260201D01*
X149842075Y-107226687D01*
X150369125Y-107033012D01*
X150521525Y-106937762D01*
X150572325Y-106804412D01*
X150540575Y-106677412D01*
X150441356Y-106525012D01*
X150321500Y-106474212D01*
X150148463Y-106525012D01*
X149940500Y-106610737D01*
X149089600Y-106959987D01*
X148970537Y-107023487D01*
X148892750Y-107118737D01*
X148870525Y-107239387D01*
X147497867Y-107239387D01*
X147497867Y-106031300D01*
X148876875Y-106031300D01*
X148891956Y-106190844D01*
X148937200Y-106285300D01*
X149165800Y-106347212D01*
X149178500Y-106347212D01*
X149289625Y-106342450D01*
X149375350Y-106312287D01*
X149446787Y-106228547D01*
X149470600Y-106072575D01*
X149453931Y-105910253D01*
X149403925Y-105807462D01*
X149181675Y-105753487D01*
X149168975Y-105753487D01*
X149056262Y-105758250D01*
X148968950Y-105791587D01*
X148899894Y-105875328D01*
X148876875Y-106031300D01*
X147497867Y-106031300D01*
X147497867Y-104769237D01*
X148159325Y-104769237D01*
X148188694Y-105004981D01*
X148276800Y-105229612D01*
X148388719Y-105393919D01*
X148489525Y-105448687D01*
X148708600Y-105353437D01*
X148800675Y-105259775D01*
X148826075Y-105181987D01*
X148787975Y-105089912D01*
X148699869Y-104931162D01*
X148670500Y-104759712D01*
X148765750Y-104562862D01*
X148994350Y-104486662D01*
X149089600Y-104486662D01*
X148970537Y-104643031D01*
X148930850Y-104870837D01*
X148957837Y-105042816D01*
X149038800Y-105207387D01*
X149173737Y-105364550D01*
X149344658Y-105492432D01*
X149533571Y-105569161D01*
X149740475Y-105594737D01*
X149947556Y-105568985D01*
X150136997Y-105491726D01*
X150308800Y-105362962D01*
X150444619Y-105203507D01*
X150526111Y-105034173D01*
X150553275Y-104854962D01*
X150513588Y-104658112D01*
X150440562Y-104535875D01*
X150378650Y-104483487D01*
X150513588Y-104418400D01*
X150559625Y-104239012D01*
X150540575Y-104058037D01*
X150475488Y-103977075D01*
X150394525Y-103948500D01*
X150286575Y-103943737D01*
X148972125Y-103943737D01*
X148744407Y-103971960D01*
X148548086Y-104056626D01*
X148383162Y-104197737D01*
X148258808Y-104374126D01*
X148184196Y-104564626D01*
X148159325Y-104769237D01*
X147497867Y-104769237D01*
X147497867Y-102299087D01*
X148883225Y-102299087D01*
X148902275Y-102455456D01*
X148959425Y-102537212D01*
X149089600Y-102568962D01*
X149026100Y-102626112D01*
X148956250Y-102711837D01*
X148886400Y-102946787D01*
X148913387Y-103148400D01*
X148994350Y-103325671D01*
X149129287Y-103478600D01*
X149303031Y-103595898D01*
X149500410Y-103666278D01*
X149721425Y-103689737D01*
X150277050Y-103689737D01*
X150388175Y-103684975D01*
X150470725Y-103657987D01*
X150535019Y-103573850D01*
X150556450Y-103410337D01*
X150526288Y-103234125D01*
X150435800Y-103149987D01*
X150273875Y-103130937D01*
X149718250Y-103130937D01*
X149515050Y-103056325D01*
X149442025Y-102856300D01*
X149518225Y-102653100D01*
X149718250Y-102575312D01*
X150280225Y-102575312D01*
X150389763Y-102570550D01*
X150473900Y-102540387D01*
X150535812Y-102458631D01*
X150556450Y-102295912D01*
X150535019Y-102134781D01*
X150470725Y-102051437D01*
X150386588Y-102024450D01*
X150277050Y-102019687D01*
X149153100Y-102019687D01*
X149046738Y-102024450D01*
X148965775Y-102054612D01*
X148903862Y-102139544D01*
X148883225Y-102299087D01*
X147497867Y-102299087D01*
X147497867Y-100376625D01*
X148886400Y-100376625D01*
X148929262Y-100608400D01*
X149054675Y-100676662D01*
X148928469Y-100833428D01*
X148886400Y-101068775D01*
X148914269Y-101247457D01*
X148997878Y-101417319D01*
X149137225Y-101578362D01*
X149313437Y-101708890D01*
X149507642Y-101787207D01*
X149719837Y-101813312D01*
X149931857Y-101787030D01*
X150125532Y-101708185D01*
X150300862Y-101576775D01*
X150439328Y-101413968D01*
X150522407Y-101240930D01*
X150550100Y-101057662D01*
X150512000Y-100860812D01*
X150440562Y-100736987D01*
X150375475Y-100679837D01*
X150508825Y-100607606D01*
X150553275Y-100429012D01*
X150534225Y-100244862D01*
X150467550Y-100160725D01*
X150383413Y-100132150D01*
X150273875Y-100127387D01*
X149162625Y-100127387D01*
X149053087Y-100132150D01*
X148968950Y-100159137D01*
X148907037Y-100235734D01*
X148886400Y-100376625D01*
X147497867Y-100376625D01*
X147497867Y-99597162D01*
X148880050Y-99597162D01*
X148901481Y-99758294D01*
X148965775Y-99841637D01*
X149048325Y-99868625D01*
X149159450Y-99873387D01*
X150273875Y-99873387D01*
X150383413Y-99868625D01*
X150467550Y-99841637D01*
X150529463Y-99757500D01*
X150549900Y-99595575D01*
X150778700Y-99595575D01*
X150797750Y-99755912D01*
X150864425Y-99840050D01*
X150948563Y-99868625D01*
X151058100Y-99873387D01*
X151167638Y-99868625D01*
X151248600Y-99841637D01*
X151312894Y-99757500D01*
X151334325Y-99593987D01*
X151312894Y-99433650D01*
X151248600Y-99352687D01*
X151164463Y-99322525D01*
X151054925Y-99317762D01*
X150945388Y-99322525D01*
X150862838Y-99351100D01*
X150797750Y-99435237D01*
X150778700Y-99595575D01*
X150549900Y-99595575D01*
X150550100Y-99593987D01*
X150496125Y-99378087D01*
X150359600Y-99320937D01*
X150267525Y-99317762D01*
X149156275Y-99317762D01*
X149046738Y-99322525D01*
X148962600Y-99352687D01*
X148900687Y-99434444D01*
X148880050Y-99597162D01*
X147497867Y-99597162D01*
X147497867Y-97825512D01*
X148861000Y-97825512D01*
X148953075Y-98019187D01*
X148975300Y-98050937D01*
X149058247Y-98143806D01*
X149186437Y-98276362D01*
X149315422Y-98410506D01*
X149400750Y-98508137D01*
X149156275Y-98508137D01*
X149046738Y-98512900D01*
X148962600Y-98543062D01*
X148900687Y-98624819D01*
X148880050Y-98787537D01*
X148901481Y-98948669D01*
X148965775Y-99032012D01*
X149049912Y-99059000D01*
X149159450Y-99063762D01*
X151061275Y-99063762D01*
X151170812Y-99059000D01*
X151254950Y-99032012D01*
X151319244Y-98947875D01*
X151340675Y-98784362D01*
X151286700Y-98568462D01*
X151147000Y-98511312D01*
X151058100Y-98508137D01*
X150051625Y-98508137D01*
X150213550Y-98335100D01*
X150375475Y-98162062D01*
X150400875Y-98123962D01*
X150486600Y-97933462D01*
X150358013Y-97750900D01*
X150156400Y-97647712D01*
X149984950Y-97765187D01*
X149718250Y-98079512D01*
X149369000Y-97657237D01*
X149267400Y-97557225D01*
X149200725Y-97536587D01*
X148994350Y-97635012D01*
X148861000Y-97825512D01*
X147497867Y-97825512D01*
X147497867Y-97093675D01*
X148876875Y-97093675D01*
X148891956Y-97253219D01*
X148937200Y-97347675D01*
X149165800Y-97409587D01*
X149178500Y-97409587D01*
X149289625Y-97404825D01*
X149375350Y-97374662D01*
X149446787Y-97290922D01*
X149470600Y-97134950D01*
X149453931Y-96972628D01*
X149403925Y-96869837D01*
X149181675Y-96815862D01*
X149168975Y-96815862D01*
X149056262Y-96820625D01*
X148968950Y-96853962D01*
X148899894Y-96937703D01*
X148876875Y-97093675D01*
X147497867Y-97093675D01*
X147497867Y-96333262D01*
X148880050Y-96333262D01*
X148901481Y-96494394D01*
X148965775Y-96577737D01*
X149048325Y-96604725D01*
X149159450Y-96609487D01*
X150273875Y-96609487D01*
X150383413Y-96604725D01*
X150467550Y-96577737D01*
X150529463Y-96493600D01*
X150549900Y-96331675D01*
X150778700Y-96331675D01*
X150797750Y-96492012D01*
X150864425Y-96576150D01*
X150948563Y-96604725D01*
X151058100Y-96609487D01*
X151167638Y-96604725D01*
X151248600Y-96577737D01*
X151312894Y-96493600D01*
X151334325Y-96330087D01*
X151312894Y-96169750D01*
X151248600Y-96088787D01*
X151164463Y-96058625D01*
X151054925Y-96053862D01*
X150945388Y-96058625D01*
X150862838Y-96087200D01*
X150797750Y-96171337D01*
X150778700Y-96331675D01*
X150549900Y-96331675D01*
X150550100Y-96330087D01*
X150496125Y-96114187D01*
X150359600Y-96057037D01*
X150267525Y-96053862D01*
X149156275Y-96053862D01*
X149046738Y-96058625D01*
X148962600Y-96088787D01*
X148900687Y-96170544D01*
X148880050Y-96333262D01*
X147497867Y-96333262D01*
X147497867Y-94974362D01*
X148851475Y-94974362D01*
X148877272Y-95180737D01*
X148954662Y-95380762D01*
X149082456Y-95562134D01*
X149259462Y-95712550D01*
X149474172Y-95813753D01*
X149715075Y-95847487D01*
X149954258Y-95817854D01*
X150163808Y-95728954D01*
X150343725Y-95580787D01*
X150481308Y-95394521D01*
X150563858Y-95191321D01*
X150591375Y-94971187D01*
X150564035Y-94751407D01*
X150482014Y-94549265D01*
X150345313Y-94364762D01*
X150166278Y-94218360D01*
X149957257Y-94130518D01*
X149718250Y-94101237D01*
X149469409Y-94135369D01*
X149249937Y-94237762D01*
X149072137Y-94388972D01*
X148948312Y-94569550D01*
X148875684Y-94768384D01*
X148851475Y-94974362D01*
X147497867Y-94974362D01*
X147497867Y-93439779D01*
X147508711Y-93219031D01*
G37*
D11*
%TO.C,C36*%
X126646267Y-76740000D02*
X126353733Y-76740000D01*
X126646267Y-77760000D02*
X126353733Y-77760000D01*
%TO.C,C30*%
X140950000Y-70393733D02*
X140950000Y-70686267D01*
X139930000Y-70393733D02*
X139930000Y-70686267D01*
%TO.C,C28*%
X142236267Y-78660000D02*
X141943733Y-78660000D01*
X142236267Y-79680000D02*
X141943733Y-79680000D01*
%TO.C,C26*%
X139576267Y-67430000D02*
X139283733Y-67430000D01*
X139576267Y-66410000D02*
X139283733Y-66410000D01*
D12*
%TO.C,Y3*%
X137389500Y-71667700D02*
X137389500Y-68467300D01*
X139670500Y-68472300D02*
X139670500Y-71672700D01*
D11*
%TO.C,L1*%
X140489520Y-108018271D02*
X140731729Y-108260480D01*
X139768271Y-108739520D02*
X140010480Y-108981729D01*
%TO.C,L3*%
X133560000Y-67358733D02*
X133560000Y-67701267D01*
X134580000Y-67358733D02*
X134580000Y-67701267D01*
D13*
%TO.C,F1*%
X143634000Y-69263000D02*
X142444000Y-69263000D01*
X142444000Y-67077000D02*
X143634000Y-67077000D01*
X142291000Y-69110000D02*
X142291000Y-67230000D01*
X146676000Y-67077000D02*
X145486000Y-67077000D01*
X146829000Y-69110000D02*
X146829000Y-67230000D01*
X145486000Y-69263000D02*
X146676000Y-69263000D01*
D14*
X144560000Y-68170000D02*
G75*
G03*
X144560537Y-69014931I732000J-422000D01*
G01*
X144560000Y-68170000D02*
G75*
G03*
X144559463Y-67325069I-731999J422000D01*
G01*
D11*
%TO.C,C35*%
X130570000Y-72293733D02*
X130570000Y-72586267D01*
X131590000Y-72293733D02*
X131590000Y-72586267D01*
%TO.C,C31*%
X133550000Y-84236267D02*
X133550000Y-83943733D01*
X134570000Y-84236267D02*
X134570000Y-83943733D01*
%TO.C,C23*%
X137757198Y-114214051D02*
X137964051Y-114007198D01*
X137035949Y-113492802D02*
X137242802Y-113285949D01*
%TO.C,C15*%
X136242802Y-101285949D02*
X136035949Y-101492802D01*
X136964051Y-102007198D02*
X136757198Y-102214051D01*
%TO.C,C24*%
X131090000Y-79836267D02*
X131090000Y-79543733D01*
X130070000Y-79836267D02*
X130070000Y-79543733D01*
D15*
%TO.C,Y4*%
X126529100Y-71488000D02*
X126501300Y-75549500D01*
X126529100Y-71488000D02*
X126529100Y-71488000D01*
X129831300Y-75549500D02*
X129831100Y-71488000D01*
D13*
X126275100Y-75806000D02*
X126275100Y-75298000D01*
D15*
X129831100Y-71488000D02*
X128180100Y-71488000D01*
X126501300Y-75549500D02*
X129831300Y-75549500D01*
X128180100Y-71488000D02*
X126529100Y-71488000D01*
D13*
X126783100Y-75806000D02*
X126275100Y-75806000D01*
D11*
%TO.C,L5*%
X136688733Y-83980000D02*
X137031267Y-83980000D01*
X136688733Y-82960000D02*
X137031267Y-82960000D01*
%TO.C,C34*%
X137273733Y-88150000D02*
X137566267Y-88150000D01*
X137273733Y-87130000D02*
X137566267Y-87130000D01*
%TO.C,C5*%
X142742802Y-108714051D02*
X142535949Y-108507198D01*
X143464051Y-107992802D02*
X143257198Y-107785949D01*
%TO.C,C8*%
X135257198Y-111714051D02*
X135464051Y-111507198D01*
X134535949Y-110992802D02*
X134742802Y-110785949D01*
%TO.C,kibuzzard-638D7386*%
G36*
X114427747Y-58307150D02*
G01*
X114466640Y-58403987D01*
X114425365Y-58498444D01*
X114325353Y-58540512D01*
X114227722Y-58497650D01*
X114188828Y-58403194D01*
X114226134Y-58307150D01*
X114326147Y-58262700D01*
X114427747Y-58307150D01*
G37*
G36*
X117232065Y-58260319D02*
G01*
X117282865Y-58350012D01*
X117082840Y-58350012D01*
X117022515Y-58299212D01*
X117050297Y-58240475D01*
X117129672Y-58218250D01*
X117232065Y-58260319D01*
G37*
G36*
X120005428Y-58338900D02*
G01*
X119794290Y-58338900D01*
X119900653Y-58121412D01*
X120005428Y-58338900D01*
G37*
G36*
X113570761Y-57327133D02*
G01*
X120813994Y-57327133D01*
X121429239Y-58250000D01*
X120813994Y-59172867D01*
X113570761Y-59172867D01*
X113570761Y-58680213D01*
X113901490Y-58680213D01*
X113903872Y-58734981D01*
X113917365Y-58777050D01*
X113955664Y-58808006D01*
X114026109Y-58818325D01*
X114141997Y-58796894D01*
X114176128Y-58734187D01*
X114254511Y-58797291D01*
X114372184Y-58818325D01*
X114461525Y-58804390D01*
X114546456Y-58762586D01*
X114626978Y-58692913D01*
X114635210Y-58681800D01*
X114847640Y-58681800D01*
X114850022Y-58736569D01*
X114863515Y-58777050D01*
X114905584Y-58809197D01*
X114987340Y-58819912D01*
X115076240Y-58805228D01*
X115117515Y-58761175D01*
X115127040Y-58680213D01*
X115127040Y-58400812D01*
X115164347Y-58299212D01*
X115264359Y-58262700D01*
X115365959Y-58300800D01*
X115404853Y-58400812D01*
X115404853Y-58681800D01*
X115407234Y-58736569D01*
X115422315Y-58777050D01*
X115463193Y-58809197D01*
X115544553Y-58819912D01*
X115625118Y-58809197D01*
X115666790Y-58777050D01*
X115680284Y-58734981D01*
X115682596Y-58681800D01*
X115809665Y-58681800D01*
X115812047Y-58736569D01*
X115825540Y-58777050D01*
X115867609Y-58809197D01*
X115949365Y-58819912D01*
X116038265Y-58805228D01*
X116079540Y-58761175D01*
X116089065Y-58680213D01*
X116089065Y-58400812D01*
X116126372Y-58299212D01*
X116226384Y-58262700D01*
X116327984Y-58300800D01*
X116366878Y-58400812D01*
X116366878Y-58681800D01*
X116369259Y-58736569D01*
X116384340Y-58777050D01*
X116425218Y-58809197D01*
X116506578Y-58819912D01*
X116587143Y-58809197D01*
X116628815Y-58777050D01*
X116642309Y-58734981D01*
X116644690Y-58680213D01*
X116644690Y-58303181D01*
X116747878Y-58303181D01*
X116759982Y-58388112D01*
X116796297Y-58447644D01*
X116903453Y-58494475D01*
X117279690Y-58494475D01*
X117227303Y-58569087D01*
X117122528Y-58599250D01*
X117040375Y-58594488D01*
X116978065Y-58580200D01*
X116960603Y-58573850D01*
X116897103Y-58556388D01*
X116809790Y-58627825D01*
X116789153Y-58700850D01*
X116810286Y-58762663D01*
X116873687Y-58806816D01*
X116979355Y-58833307D01*
X117127290Y-58842138D01*
X117238217Y-58832017D01*
X117336047Y-58801656D01*
X117417207Y-58754627D01*
X117478128Y-58694500D01*
X117533690Y-58605424D01*
X117567028Y-58509644D01*
X117578140Y-58407162D01*
X117563765Y-58282720D01*
X117520638Y-58176093D01*
X117481522Y-58127762D01*
X117641640Y-58127762D01*
X117652356Y-58208328D01*
X117684503Y-58250000D01*
X117726572Y-58263494D01*
X117781340Y-58265875D01*
X117884528Y-58259525D01*
X117884528Y-58478600D01*
X117871034Y-58540512D01*
X117820234Y-58559562D01*
X117763084Y-58561944D01*
X117721015Y-58577025D01*
X117684503Y-58683387D01*
X117695615Y-58763953D01*
X117728953Y-58805625D01*
X117771022Y-58819119D01*
X117824203Y-58821500D01*
X117925450Y-58813210D01*
X118009058Y-58788339D01*
X118075028Y-58746887D01*
X118122653Y-58685681D01*
X118123971Y-58681800D01*
X118394115Y-58681800D01*
X118396497Y-58736569D01*
X118409990Y-58777050D01*
X118452059Y-58809197D01*
X118533815Y-58819912D01*
X118622715Y-58805228D01*
X118663990Y-58761175D01*
X118673515Y-58680213D01*
X118673515Y-58400812D01*
X118710822Y-58299212D01*
X118810834Y-58262700D01*
X118912434Y-58300800D01*
X118951328Y-58400812D01*
X118951328Y-58681800D01*
X118953709Y-58736569D01*
X118968790Y-58777050D01*
X119009668Y-58809197D01*
X119091028Y-58819912D01*
X119171593Y-58809197D01*
X119213265Y-58777050D01*
X119226759Y-58734981D01*
X119227967Y-58707200D01*
X119316453Y-58707200D01*
X119339472Y-58761572D01*
X119408528Y-58810387D01*
X119493459Y-58837375D01*
X119544259Y-58823088D01*
X119572834Y-58792925D01*
X119597440Y-58745300D01*
X119679990Y-58573850D01*
X120119728Y-58573850D01*
X120202278Y-58745300D01*
X120226884Y-58791337D01*
X120255459Y-58820706D01*
X120306259Y-58835788D01*
X120391190Y-58808800D01*
X120460247Y-58761175D01*
X120483265Y-58707200D01*
X120456278Y-58626238D01*
X120027653Y-57738825D01*
X119974472Y-57680087D01*
X119899065Y-57657862D01*
X119824453Y-57678500D01*
X119772065Y-57740412D01*
X119343440Y-58626238D01*
X119316453Y-58707200D01*
X119227967Y-58707200D01*
X119229140Y-58680213D01*
X119229140Y-58118237D01*
X119226759Y-58065056D01*
X119211678Y-58024575D01*
X119170006Y-57994809D01*
X119089440Y-57984887D01*
X119011256Y-57994016D01*
X118970378Y-58021400D01*
X118954503Y-58086487D01*
X118925928Y-58054737D01*
X118883065Y-58021400D01*
X118764003Y-57984887D01*
X118664078Y-57998381D01*
X118575972Y-58038862D01*
X118499684Y-58106331D01*
X118441035Y-58193203D01*
X118405845Y-58291892D01*
X118394115Y-58402400D01*
X118394115Y-58681800D01*
X118123971Y-58681800D01*
X118151228Y-58601543D01*
X118160753Y-58494475D01*
X118160753Y-58259525D01*
X118225840Y-58264287D01*
X118283784Y-58237300D01*
X118306803Y-58145225D01*
X118298865Y-58050769D01*
X118276640Y-58008700D01*
X118213140Y-57988062D01*
X118160753Y-57994412D01*
X118160753Y-57830900D01*
X118158372Y-57776925D01*
X118143290Y-57738825D01*
X118102412Y-57709059D01*
X118021053Y-57699137D01*
X117934931Y-57713822D01*
X117892465Y-57757875D01*
X117884528Y-57838837D01*
X117884528Y-57994412D01*
X117778959Y-57988062D01*
X117724984Y-57990444D01*
X117682915Y-58005525D01*
X117651959Y-58046403D01*
X117641640Y-58127762D01*
X117481522Y-58127762D01*
X117448759Y-58087281D01*
X117355361Y-58020694D01*
X117247676Y-57980742D01*
X117125703Y-57967425D01*
X117022714Y-57977148D01*
X116934409Y-58006319D01*
X116860789Y-58054936D01*
X116801853Y-58123000D01*
X116761372Y-58209320D01*
X116747878Y-58303181D01*
X116644690Y-58303181D01*
X116644690Y-58118237D01*
X116642309Y-58065056D01*
X116627228Y-58024575D01*
X116585556Y-57994809D01*
X116504990Y-57984887D01*
X116426806Y-57994016D01*
X116385928Y-58021400D01*
X116370053Y-58086487D01*
X116341478Y-58054737D01*
X116298615Y-58021400D01*
X116179553Y-57984887D01*
X116079628Y-57998381D01*
X115991522Y-58038862D01*
X115915234Y-58106331D01*
X115856585Y-58193203D01*
X115821395Y-58291892D01*
X115809665Y-58402400D01*
X115809665Y-58681800D01*
X115682596Y-58681800D01*
X115682665Y-58680213D01*
X115682665Y-58118237D01*
X115680284Y-58065056D01*
X115665203Y-58024575D01*
X115623531Y-57994809D01*
X115542965Y-57984887D01*
X115464781Y-57994016D01*
X115423903Y-58021400D01*
X115408028Y-58086487D01*
X115379453Y-58054737D01*
X115336590Y-58021400D01*
X115217528Y-57984887D01*
X115117603Y-57998381D01*
X115029497Y-58038862D01*
X114953209Y-58106331D01*
X114894560Y-58193203D01*
X114859370Y-58291892D01*
X114847640Y-58402400D01*
X114847640Y-58681800D01*
X114635210Y-58681800D01*
X114692242Y-58604806D01*
X114731400Y-58507704D01*
X114744453Y-58401606D01*
X114731312Y-58295597D01*
X114691889Y-58198759D01*
X114626184Y-58111094D01*
X114544781Y-58041861D01*
X114458262Y-58000322D01*
X114366628Y-57986475D01*
X114268203Y-58005525D01*
X114206290Y-58041244D01*
X114177715Y-58073787D01*
X114141600Y-58007112D01*
X114052303Y-57984887D01*
X113960228Y-57994412D01*
X113918159Y-58027750D01*
X113903872Y-58069819D01*
X113901490Y-58124587D01*
X113901490Y-58680213D01*
X113570761Y-58680213D01*
X113570761Y-57327133D01*
G37*
%TO.C,C11*%
X138492802Y-114535949D02*
X138285949Y-114742802D01*
X139214051Y-115257198D02*
X139007198Y-115464051D01*
%TO.C,C39*%
X128033733Y-71280000D02*
X128326267Y-71280000D01*
X128033733Y-70260000D02*
X128326267Y-70260000D01*
%TO.C,C14*%
X129853733Y-76740000D02*
X130146267Y-76740000D01*
X129853733Y-77760000D02*
X130146267Y-77760000D01*
%TO.C,C20*%
X139464051Y-109492802D02*
X139257198Y-109285949D01*
X138742802Y-110214051D02*
X138535949Y-110007198D01*
%TO.C,C7*%
X134007198Y-110464051D02*
X134214051Y-110257198D01*
X133285949Y-109742802D02*
X133492802Y-109535949D01*
%TO.C,R1*%
X140950420Y-110810654D02*
X141310654Y-110450420D01*
X141689346Y-111549580D02*
X142049580Y-111189346D01*
%TO.C,C37*%
X131990000Y-84246267D02*
X131990000Y-83953733D01*
X133010000Y-84246267D02*
X133010000Y-83953733D01*
D15*
%TO.C,L2*%
X133212500Y-56888600D02*
X131350600Y-56888600D01*
X121787500Y-59611400D02*
X121787500Y-56888600D01*
X133212500Y-59611400D02*
X133212500Y-56888600D01*
X131350600Y-59611400D02*
X133212500Y-59611400D01*
X123649400Y-59611400D02*
X121787500Y-59611400D01*
X121787500Y-56888600D02*
X123649400Y-56888600D01*
D11*
%TO.C,C16*%
X131785949Y-116757198D02*
X131992802Y-116964051D01*
X132507198Y-116035949D02*
X132714051Y-116242802D01*
%TO.C,C27*%
X141966267Y-75790000D02*
X141673733Y-75790000D01*
X141966267Y-74770000D02*
X141673733Y-74770000D01*
%TO.C,C1*%
X141714051Y-103742802D02*
X141507198Y-103535949D01*
X140992802Y-104464051D02*
X140785949Y-104257198D01*
%TO.C,C12*%
X144714051Y-106742802D02*
X144507198Y-106535949D01*
X143992802Y-107464051D02*
X143785949Y-107257198D01*
%TO.C,R14*%
X137674724Y-86492500D02*
X137165276Y-86492500D01*
X137674724Y-85447500D02*
X137165276Y-85447500D01*
%TO.C,C38*%
X125070000Y-73633733D02*
X125070000Y-73926267D01*
X126090000Y-73633733D02*
X126090000Y-73926267D01*
%TO.C,C33*%
X142256267Y-80410000D02*
X141963733Y-80410000D01*
X142256267Y-81430000D02*
X141963733Y-81430000D01*
%TO.C,C21*%
X136507198Y-112964051D02*
X136714051Y-112757198D01*
X135785949Y-112242802D02*
X135992802Y-112035949D01*
D15*
%TO.C,U4*%
X139716200Y-80991950D02*
X139220500Y-80991950D01*
X132563800Y-74335250D02*
X132563800Y-73839550D01*
X139716200Y-74335250D02*
X139716200Y-73839550D01*
X132563800Y-80991950D02*
X133059500Y-80991950D01*
X139716200Y-80496250D02*
X139716200Y-80991950D01*
X132563800Y-73839550D02*
X133059500Y-73839550D01*
X139716200Y-73839550D02*
X139220500Y-73839550D01*
X132563800Y-80496250D02*
X132563800Y-80991950D01*
D10*
X133464900Y-73375850D02*
G75*
G03*
X133464900Y-73375850I-75000J0D01*
G01*
D11*
%TO.C,C6*%
X132035949Y-108492802D02*
X132242802Y-108285949D01*
X132757198Y-109214051D02*
X132964051Y-109007198D01*
%TO.C,C32*%
X133346267Y-69480000D02*
X133053733Y-69480000D01*
X133346267Y-70500000D02*
X133053733Y-70500000D01*
D15*
%TO.C,L6*%
X128321000Y-78289400D02*
X128168600Y-78441700D01*
X128168600Y-80971700D02*
X128321000Y-81124100D01*
D13*
X128168600Y-80971700D02*
X128168600Y-80209700D01*
D15*
X129489800Y-78441700D02*
X129337400Y-78289400D01*
D13*
X129489800Y-80971700D02*
X129489800Y-80209700D01*
X129489800Y-78441700D02*
X129489800Y-79203700D01*
D15*
X129337400Y-78289400D02*
X128321000Y-78289400D01*
D13*
X128168600Y-78441700D02*
X128168600Y-79203700D01*
D15*
X128321000Y-81124100D02*
X129337400Y-81124100D01*
X129337400Y-81124100D02*
X129489800Y-80971700D01*
D11*
%TO.C,C17*%
X131507198Y-107964051D02*
X131714051Y-107757198D01*
X130785949Y-107242802D02*
X130992802Y-107035949D01*
%TO.C,R9*%
X135049580Y-105560654D02*
X134689346Y-105200420D01*
X134310654Y-106299580D02*
X133950420Y-105939346D01*
%TO.C,C29*%
X134783733Y-65580000D02*
X135076267Y-65580000D01*
X134783733Y-64560000D02*
X135076267Y-64560000D01*
%TO.C,C2*%
X138214051Y-103257198D02*
X138007198Y-103464051D01*
X137492802Y-102535949D02*
X137285949Y-102742802D01*
%TO.C,C25*%
X134580000Y-62756267D02*
X134580000Y-62463733D01*
X133560000Y-62756267D02*
X133560000Y-62463733D01*
%TD*%
M02*
