M48
; DRILL file {KiCad (6.0.9)} date Wed Jan  4 16:14:07 2023
; FORMAT={-:-/ absolute / inch / decimal}
; #@! TF.CreationDate,2023-01-04T16:14:07+08:00
; #@! TF.GenerationSoftware,Kicad,Pcbnew,(6.0.9)
; #@! TF.FileFunction,Plated,1,4,PTH
FMAT,2
INCH
; #@! TA.AperFunction,Plated,PTH,ViaDrill
T1C0.0157
; #@! TA.AperFunction,Plated,PTH,ComponentDrill
T2C0.0197
; #@! TA.AperFunction,Plated,PTH,ComponentDrill
T3C0.0217
; #@! TA.AperFunction,Plated,PTH,ViaDrill
T4C0.0236
; #@! TA.AperFunction,Plated,PTH,ComponentDrill
T5C0.0236
; #@! TA.AperFunction,Plated,PTH,ViaDrill
T6C0.0276
; #@! TA.AperFunction,Plated,PTH,ComponentDrill
T7C0.0394
; #@! TA.AperFunction,Plated,PTH,ComponentDrill
T8C0.1693
%
G90
G05
T1
X4.1831Y-2.815
X4.1831Y-2.8445
X4.1831Y-2.9035
X4.1831Y-2.9331
X4.2126Y-2.815
X4.2126Y-2.8445
X4.2126Y-2.9035
X4.2126Y-2.9331
X4.5472Y-2.815
X4.5472Y-2.8445
X4.5472Y-2.9035
X4.5472Y-2.9331
X4.5768Y-2.815
X4.5768Y-2.8445
X4.5768Y-2.9035
X4.5768Y-2.9331
X4.5986Y-3.0762
X4.5986Y-3.151
X4.6143Y-2.9796
X4.6478Y-3.0726
X4.6478Y-3.14
X4.6478Y-3.1996
X4.6539Y-3.011
X4.6598Y-2.9689
X4.7126Y-2.8449
X4.7539Y-3.4744
X4.798Y-2.8457
X4.8528Y-2.9693
X4.8661Y-3.3421
X4.8705Y-3.6709
X4.9213Y-2.5984
X4.9213Y-2.628
X4.9213Y-2.6575
X4.9323Y-3.1524
X4.9437Y-2.8181
X4.9508Y-2.5984
X4.9508Y-2.628
X4.9508Y-2.6575
X4.9508Y-4.7343
X4.9606Y-2.7854
X4.9606Y-4.1929
X4.9795Y-4.7598
X4.9803Y-2.5984
X4.9803Y-2.628
X4.9803Y-2.6575
X4.9835Y-3.1528
X4.9996Y-3.7843
X5.0492Y-2.6673
X5.0571Y-3.7843
X5.0681Y-3.2217
X5.0858Y-3.4937
X5.1083Y-4.2913
X5.1114Y-3.7768
X5.1201Y-3.2228
X5.1213Y-4.5402
X5.1282Y-2.9482
X5.1476Y-4.3406
X5.1606Y-2.7681
X5.187Y-4.3799
X5.2067Y-4.1339
X5.2165Y-4.4094
X5.2189Y-3.4197
X5.2264Y-2.4213
X5.2264Y-4.1732
X5.2378Y-2.4862
X5.2386Y-2.4528
X5.2386Y-2.6425
X5.2386Y-2.6823
X5.2571Y-3.2252
X5.2642Y-4.9429
X5.2701Y-3.7846
X5.2752Y-4.6437
X5.2772Y-4.2205
X5.2839Y-3.6102
X5.2953Y-4.4783
X5.315Y-4.065
X5.3177Y-2.7008
X5.3248Y-2.4213
X5.3248Y-3.002
X5.3248Y-3.0413
X5.3248Y-3.0807
X5.3248Y-3.4106
X5.3248Y-4.2717
X5.326Y-3.4496
X5.3543Y-4.2224
X5.3543Y-4.5374
X5.3642Y-3.002
X5.3642Y-3.0413
X5.3642Y-3.0807
X5.3642Y-4.1142
X5.3752Y-4.3189
X5.3839Y-4.5669
X5.3994Y-2.8463
X5.4035Y-3.002
X5.4035Y-3.0413
X5.4035Y-3.0807
X5.4134Y-4.2618
X5.4134Y-4.5965
X5.4248Y-4.3681
X5.4331Y-3.9469
X5.4504Y-4.3917
X5.4535Y-2.5476
X5.4626Y-4.2126
X5.4646Y-2.4677
X5.4681Y-3.2413
X5.472Y-4.4181
X5.4823Y-3.9961
X5.502Y-4.1043
X5.5217Y-3.8484
X5.5217Y-4.4685
X5.5224Y-2.585
X5.5291Y-2.6909
X5.5307Y-3.0811
X5.5317Y-3.3866
X5.5421Y-3.2504
X5.55Y-3.8122
X5.5512Y-4.1535
X5.5709Y-4.2028
X5.5787Y-3.8437
X5.5807Y-4.4291
X5.5945Y-2.9154
X5.6201Y-4.1535
X5.6201Y-5.0
X5.6205Y-3.8449
X5.6299Y-4.3799
X5.6311Y-2.4677
X5.6402Y-3.239
X5.689Y-4.3209
X5.6961Y-3.7205
X5.7142Y-2.628
X5.7244Y-2.7717
X5.7244Y-2.8031
X5.7244Y-2.8346
X5.7382Y-3.7205
X5.748Y-4.2618
X5.7559Y-2.7717
X5.7559Y-2.8031
X5.7559Y-2.8346
X5.7874Y-2.7717
X5.7874Y-2.8031
X5.7874Y-2.8346
X5.7952Y-2.6278
X5.8327Y-2.6278
X5.8988Y-2.7882
X5.9154Y-2.6378
X5.9154Y-2.6673
X5.9449Y-2.6378
X5.9449Y-2.6673
X5.9685Y-2.7874
X5.9744Y-2.6378
X5.9744Y-2.6673
X6.0354Y-2.7886
T4
X5.5024Y-3.4504
X5.5031Y-3.287
T5
X4.0364Y-2.5986
X4.0364Y-4.9608
X4.0736Y-2.5088
X4.0736Y-2.6884
X4.0736Y-4.871
X4.0736Y-5.0506
X4.1634Y-2.4717
X4.1634Y-2.7256
X4.1634Y-4.8339
X4.1634Y-5.0878
X4.2532Y-2.5088
X4.2532Y-2.6884
X4.2532Y-4.871
X4.2532Y-5.0506
X4.2904Y-2.5986
X4.2904Y-4.9608
X6.3986Y-2.5986
X6.3986Y-4.9608
X6.4358Y-2.5088
X6.4358Y-2.6884
X6.4358Y-4.871
X6.4358Y-5.0506
X6.5256Y-2.4717
X6.5256Y-2.7256
X6.5256Y-4.8339
X6.5256Y-5.0878
X6.6154Y-2.5088
X6.6154Y-2.6884
X6.6154Y-4.871
X6.6154Y-5.0506
X6.6526Y-2.5986
X6.6526Y-4.9608
T6
X5.5735Y-2.6723
X5.7453Y-2.965
X5.865Y-2.9642
X6.0913Y-2.9087
T7
X4.3396Y-2.8287
X4.3396Y-2.9287
X4.3396Y-3.0287
X4.3396Y-3.1287
X4.3396Y-3.2287
X4.3396Y-3.3287
X4.3396Y-3.4287
X4.3396Y-3.5287
X4.3396Y-3.6287
X4.3396Y-3.7287
X4.3396Y-3.8287
X4.3396Y-3.9287
X4.3396Y-4.0287
X4.3396Y-4.1287
X4.3396Y-4.2287
X4.3396Y-4.3287
X4.3396Y-4.4287
X4.3396Y-4.5287
X4.3396Y-4.6287
X4.3396Y-4.7287
X4.4396Y-2.8287
X4.4396Y-2.9287
X4.4396Y-3.0287
X4.4396Y-3.1287
X4.4396Y-3.2287
X4.4396Y-3.3287
X4.4396Y-3.4287
X4.4396Y-3.5287
X4.4396Y-3.6287
X4.4396Y-3.7287
X4.4396Y-3.8287
X4.4396Y-3.9287
X4.4396Y-4.0287
X4.4396Y-4.1287
X4.4396Y-4.2287
X4.4396Y-4.3287
X4.4396Y-4.4287
X4.4396Y-4.5287
X4.4396Y-4.6287
X4.4396Y-4.7287
X4.7539Y-3.0776
X4.7539Y-3.1776
X4.7539Y-3.2776
X4.7539Y-3.3776
X5.0846Y-3.5531
X5.1846Y-3.5531
X5.2846Y-3.5531
X5.3846Y-3.5531
X5.4846Y-3.5531
X5.5846Y-3.5531
X5.7504Y-3.0504
X5.7504Y-3.1504
X5.7504Y-3.2504
X5.8976Y-3.0506
X5.8976Y-3.1506
X5.8976Y-3.2506
X6.1148Y-2.53
X6.2148Y-2.53
X6.249Y-2.8287
X6.249Y-2.9287
X6.249Y-3.0287
X6.249Y-3.1287
X6.249Y-3.2287
X6.249Y-3.3287
X6.249Y-3.4287
X6.249Y-3.5287
X6.249Y-3.6287
X6.249Y-3.7287
X6.249Y-3.8287
X6.249Y-3.9287
X6.249Y-4.0287
X6.249Y-4.1287
X6.249Y-4.2287
X6.249Y-4.3287
X6.249Y-4.4287
X6.249Y-4.5287
X6.249Y-4.6287
X6.249Y-4.7287
X6.349Y-2.8287
X6.349Y-2.9287
X6.349Y-3.0287
X6.349Y-3.1287
X6.349Y-3.2287
X6.349Y-3.3287
X6.349Y-3.4287
X6.349Y-3.5287
X6.349Y-3.6287
X6.349Y-3.7287
X6.349Y-3.8287
X6.349Y-3.9287
X6.349Y-4.0287
X6.349Y-4.1287
X6.349Y-4.2287
X6.349Y-4.3287
X6.349Y-4.4287
X6.349Y-4.5287
X6.349Y-4.6287
X6.349Y-4.7287
T8
X4.1634Y-2.5986
X4.1634Y-4.9608
X6.5256Y-2.5986
X6.5256Y-4.9608
T2
G00X5.689Y-2.4636
M15
G01X5.689Y-2.4892
M16
G05
G00X5.9646Y-2.4636
M15
G01X5.9646Y-2.4892
M16
G05
T3
G00X5.7283Y-2.5768
M15
G01X5.7283Y-2.5886
M16
G05
G00X5.9252Y-2.5768
M15
G01X5.9252Y-2.5886
M16
G05
T0
M30
